<svg xmlns="http://www.w3.org/2000/svg" width="528" height="1026" fill="none" viewBox="0 0 528 1026">
  <g filter="url(#filter0_d_1124_4732)">
    <g clip-path="url(#clip0_1124_4732)">
      <rect width="428" height="926" x="40" y="50" fill="#fff" rx="30"/>
      <rect width="140" height="5" x="185" y="961" fill="#444" rx="2.5"/>
      <path fill="#fff" d="M40 904h428v72H40z"/>
      <path stroke="#EDEDED" stroke-width=".5" d="M40 903.75h428"/>
      <circle cx="253.5" cy="917.5" r="39.5" fill="#C4C4C4"/>
      <path fill="#C4C4C4" d="M80 924h31v31H80v-31zM161 924h31v31h-31v-31zM316 924h31v31h-31v-31zM399 924h31v31h-31v-31z"/>
      <path fill="#F1F1F1" d="M281.483 626h137.034v-2H281.483v2zM437 644.483v137.034h2V644.483h-2zM418.517 800H281.483v2h137.034v-2zM263 781.517V644.483h-2v137.034h2zM281.483 800C271.275 800 263 791.725 263 781.517h-2c0 11.312 9.171 20.483 20.483 20.483v-2zM437 781.517c0 10.208-8.275 18.483-18.483 18.483v2c11.312 0 20.483-9.171 20.483-20.483h-2zM418.517 626c10.208 0 18.483 8.275 18.483 18.483h2c0-11.312-9.171-20.483-20.483-20.483v2zm-137.034-2C270.171 624 261 633.171 261 644.483h2c0-10.208 8.275-18.483 18.483-18.483v-2zm-12.481 171.952l82.188-82.188-1.414-1.414-82.188 82.188 1.414 1.414zm82.188-82.188l81.633-81.633-1.414-1.414-81.633 81.633 1.414 1.414zm-83.753-82.339l82.339 82.339 1.414-1.414-82.338-82.339-1.415 1.414zm82.339 82.339l81.782 81.782 1.414-1.414-81.782-81.782-1.414 1.414zM80.483 626h137.034v-2H80.483v2zM236 644.483v137.034h2V644.483h-2zM217.517 800H80.483v2h137.034v-2zM62 781.517V644.483h-2v137.034h2zM80.483 800C70.275 800 62 791.725 62 781.517h-2C60 792.829 69.17 802 80.483 802v-2zM236 781.517c0 10.208-8.275 18.483-18.483 18.483v2c11.312 0 20.483-9.171 20.483-20.483h-2zM217.517 626c10.208 0 18.483 8.275 18.483 18.483h2c0-11.312-9.171-20.483-20.483-20.483v2zm-137.034-2C69.171 624 60 633.171 60 644.483h2C62 634.275 70.275 626 80.483 626v-2zm-12.48 171.952l82.187-82.188-1.414-1.414-82.188 82.188 1.414 1.414zm82.187-82.188l81.633-81.633-1.414-1.414-81.633 81.633 1.414 1.414zm-83.753-82.339l82.339 82.339 1.414-1.414-82.338-82.339-1.415 1.414zm82.339 82.339l81.782 81.782 1.414-1.414-81.782-81.782-1.414 1.414zM281.483 434h137.034v-2H281.483v2zM437 452.483v137.034h2V452.483h-2zM418.517 608H281.483v2h137.034v-2zM263 589.517V452.483h-2v137.034h2zM281.483 608C271.275 608 263 599.725 263 589.517h-2c0 11.312 9.171 20.483 20.483 20.483v-2zM437 589.517c0 10.208-8.275 18.483-18.483 18.483v2c11.312 0 20.483-9.171 20.483-20.483h-2zM418.517 434c10.208 0 18.483 8.275 18.483 18.483h2c0-11.312-9.171-20.483-20.483-20.483v2zm-137.034-2C270.171 432 261 441.171 261 452.483h2c0-10.208 8.275-18.483 18.483-18.483v-2zm-12.481 171.952l82.188-82.188-1.414-1.414-82.188 82.188 1.414 1.414zm82.188-82.188l81.633-81.633-1.414-1.414-81.633 81.633 1.414 1.414zm-83.753-82.339l82.339 82.339 1.414-1.414-82.338-82.339-1.415 1.414zm82.339 82.339l81.782 81.782 1.414-1.414-81.782-81.782-1.414 1.414zM89.483 434h137.034v-2H89.483v2zM245 452.483v137.034h2V452.483h-2zM226.517 608H89.483v2h137.034v-2zM71 589.517V452.483h-2v137.034h2zM89.483 608C79.275 608 71 599.725 71 589.517h-2C69 600.829 78.17 610 89.483 610v-2zM245 589.517c0 10.208-8.275 18.483-18.483 18.483v2c11.312 0 20.483-9.171 20.483-20.483h-2zM226.517 434c10.208 0 18.483 8.275 18.483 18.483h2c0-11.312-9.171-20.483-20.483-20.483v2zm-137.034-2C78.171 432 69 441.171 69 452.483h2C71 442.275 79.275 434 89.483 434v-2zm-12.48 171.952l82.187-82.188-1.414-1.414-82.188 82.188 1.414 1.414zm82.187-82.188l81.633-81.633-1.414-1.414-81.633 81.633 1.414 1.414zm-83.753-82.339l82.339 82.339 1.414-1.414-82.338-82.339-1.415 1.414zm82.339 82.339l81.782 81.782 1.414-1.414-81.782-81.782-1.414 1.414z"/>
      <g>
        <rect width="255" height="21" x="126" y="327" fill="#F0F0F0" opacity=".6" rx="10.5"/>
        <rect width="174" height="21" x="167" y="354" fill="#F0F0F0" opacity=".6" rx="10.5"/>
      </g>
      <g>
        <path fill="#C4C4C4" d="M311.132 195.566c0 32.345-26.221 58.566-58.566 58.566v2c33.449 0 60.566-27.117 60.566-60.566h-2zm-58.566 58.566c-32.345 0-58.566-26.221-58.566-58.566h-2c0 33.449 27.116 60.566 60.566 60.566v-2zM194 195.566C194 163.221 220.221 137 252.566 137v-2C219.116 135 192 162.116 192 195.566h2zM252.566 137c32.345 0 58.566 26.221 58.566 58.566h2c0-33.45-27.117-60.566-60.566-60.566v2zm-41.329 101.191l42.119-42.119-1.414-1.415-42.119 42.12 1.414 1.414zm42.119-42.119l41.835-41.835-1.414-1.414-41.835 41.834 1.414 1.415zm-43.533-42.12l42.119 42.12 1.414-1.415-42.119-42.119-1.414 1.414zm42.119 42.12l41.835 41.835 1.414-1.415-41.835-41.835-1.414 1.415z"/>
        <g filter="url(#filter1_d_1124_4732)">
          <circle cx="296.5" cy="232.5" r="18.5" fill="#fff"/>
        </g>
        <path fill="#444" d="M305.692 228.971v9.314c0 .857-.71 1.553-1.585 1.553h-13.734c-.875 0-1.585-.696-1.585-1.553v-9.314c0-.857.71-1.553 1.585-1.553h2.905l.406-1.064a1.582 1.582 0 011.483-1.005h4.143c.66 0 1.251.401 1.482 1.005l.41 1.064h2.905c.875 0 1.585.696 1.585 1.553zm-4.49 4.657c0-2.141-1.776-3.881-3.962-3.881s-3.962 1.74-3.962 3.881 1.776 3.881 3.962 3.881 3.962-1.74 3.962-3.881zm-1.057 0c0 1.569-1.304 2.846-2.905 2.846-1.601 0-2.905-1.277-2.905-2.846 0-1.569 1.304-2.846 2.905-2.846 1.601 0 2.905 1.277 2.905 2.846z"/>
      </g>
      <rect width="107" height="40" x="200" y="262" fill="#F0F0F0" opacity=".6" rx="20"/>
    </g>
  </g>
  <defs>
    <filter id="filter0_d_1124_4732" width="528" height="1026" x="0" y="0" color-interpolation-filters="sRGB" filterUnits="userSpaceOnUse">
      <feFlood flood-opacity="0" result="BackgroundImageFix"/>
      <feColorMatrix in="SourceAlpha" result="hardAlpha" values="0 0 0 0 0 0 0 0 0 0 0 0 0 0 0 0 0 0 127 0"/>
      <feOffset dx="10"/>
      <feGaussianBlur stdDeviation="25"/>
      <feComposite in2="hardAlpha" operator="out"/>
      <feColorMatrix values="0 0 0 0 0 0 0 0 0 0 0 0 0 0 0 0 0 0 0.1 0"/>
      <feBlend in2="BackgroundImageFix" result="effect1_dropShadow_1124_4732"/>
      <feBlend in="SourceGraphic" in2="effect1_dropShadow_1124_4732" result="shape"/>
    </filter>
    <filter id="filter1_d_1124_4732" width="45" height="45" x="274" y="214" color-interpolation-filters="sRGB" filterUnits="userSpaceOnUse">
      <feFlood flood-opacity="0" result="BackgroundImageFix"/>
      <feColorMatrix in="SourceAlpha" result="hardAlpha" values="0 0 0 0 0 0 0 0 0 0 0 0 0 0 0 0 0 0 127 0"/>
      <feOffset dy="4"/>
      <feGaussianBlur stdDeviation="2"/>
      <feComposite in2="hardAlpha" operator="out"/>
      <feColorMatrix values="0 0 0 0 0 0 0 0 0 0 0 0 0 0 0 0 0 0 0.25 0"/>
      <feBlend in2="BackgroundImageFix" result="effect1_dropShadow_1124_4732"/>
      <feBlend in="SourceGraphic" in2="effect1_dropShadow_1124_4732" result="shape"/>
    </filter>
    <clipPath id="clip0_1124_4732">
      <rect width="428" height="926" x="40" y="50" fill="#fff" rx="30"/>
    </clipPath>
  </defs>
</svg>
