<svg xmlns="http://www.w3.org/2000/svg" width="488" height="956" fill="none" viewBox="0 0 488 956">
  <rect width="428" height="926" x="30" y="26" fill="#fff" rx="40"/>
  <g filter="url(#filter0_d_1124_4730)">
    <rect width="428" height="220" x="30" y="26" fill="#fff" rx="30"/>
  </g>
  <path fill="#C4C4C4" d="M433.132 139.566c0 32.345-26.221 58.566-58.566 58.566v2c33.449 0 60.566-27.117 60.566-60.566h-2zm-58.566 58.566c-32.345 0-58.566-26.221-58.566-58.566h-2c0 33.449 27.116 60.566 60.566 60.566v-2zM316 139.566C316 107.221 342.221 81 374.566 81v-2C341.116 79 314 106.116 314 139.566h2zM374.566 81c32.345 0 58.566 26.221 58.566 58.566h2c0-33.45-27.117-60.566-60.566-60.566v2zm-41.329 101.191l42.119-42.119-1.414-1.415-42.119 42.12 1.414 1.414zm42.119-42.119l41.835-41.835-1.414-1.414-41.835 41.834 1.414 1.415zm-43.533-42.12l42.119 42.12 1.414-1.415-42.119-42.119-1.414 1.414zm42.119 42.12l41.835 41.835 1.414-1.415-41.835-41.835-1.414 1.415z"/>
  <g filter="url(#filter1_d_1124_4730)">
    <circle cx="418.838" cy="176.593" r="18.514" fill="#fff"/>
  </g>
  <path fill="#444" d="M427.692 172.971v9.314c0 .857-.71 1.553-1.585 1.553h-13.734c-.875 0-1.585-.696-1.585-1.553v-9.314c0-.857.71-1.553 1.585-1.553h2.905l.406-1.064a1.582 1.582 0 011.483-1.005h4.143c.66 0 1.251.401 1.482 1.005l.41 1.064h2.905c.875 0 1.585.696 1.585 1.553zm-4.49 4.657c0-2.141-1.776-3.881-3.962-3.881s-3.962 1.74-3.962 3.881 1.776 3.881 3.962 3.881 3.962-1.74 3.962-3.881zm-1.057 0c0 1.569-1.304 2.846-2.905 2.846-1.601 0-2.905-1.277-2.905-2.846 0-1.569 1.304-2.846 2.905-2.846 1.601 0 2.905 1.277 2.905 2.846z"/>
  <rect width="31" height="17" x="52" y="101" fill="#F6F6F6" rx="8.5"/>
  <path fill="#C4C4C4" d="M96.956 365h295.088v-2H96.956v2zM433 414.923v358.155h2V414.923h-2zM392.044 823H96.956v2h295.088v-2zM56 773.078V414.923h-2v358.155h2zM96.956 823C74.509 823 56 800.839 56 773.078h-2C54 801.564 73.06 825 96.956 825v-2zM433 773.078C433 800.839 414.491 823 392.044 823v2C415.941 825 435 801.564 435 773.078h-2zM392.044 365C414.491 365 433 387.161 433 414.923h2C435 386.436 415.941 363 392.044 363v2zm-295.088-2C73.059 363 54 386.436 54 414.923h2C56 387.161 74.509 365 96.956 365v-2zM69.327 809.594l176.985-214.81-1.544-1.272-176.984 214.81 1.543 1.272zm176.985-214.81l175.789-213.358-1.544-1.272-175.789 213.358 1.544 1.272zM67.46 379.581l177.308 215.203 1.544-1.272L69.003 378.309l-1.543 1.272zm177.308 215.203l176.111 213.749 1.543-1.272-176.11-213.749-1.544 1.272zM58.936 302.456c0-1.504 1.392-2.384 3.408-2.384 2.032 0 3.424.88 3.424 2.384s-1.392 2.384-3.424 2.384c-2.016 0-3.408-.88-3.408-2.384zm4.464 6.496v-2.496c2.608-.304 4.448-1.808 4.448-4 0-2.464-2.352-4.064-5.504-4.064-3.136 0-5.488 1.6-5.488 4.064 0 2.192 1.84 3.68 4.432 4v2.496h-5.6v1.712h13.344v-1.712H63.4zm18.815-8.352h-8.048v-2.816h-2.112v4.48h10.16V300.6zm-8.16 9.088h8.128v-3.904H71.91v1.584h8.144v.832h-8.128v4h10.672v-1.584h-8.544v-.928zm-3.648-6.48v1.664H83.75v-1.664H70.407zm22.43 5.776v-3.072h4.209v-1.696h-8.24v-3.872h8.127v-1.696H86.677v7.264h4.048v3.072h-5.6v1.728H98.47v-1.728h-5.631zm20.016-4.928c-2.384-.736-3.424-2.496-3.424-4.336v-1.408h-2.144v1.408c0 1.872-1.056 3.792-3.52 4.576l1.04 1.664c1.728-.56 2.912-1.712 3.584-3.136.656 1.328 1.792 2.368 3.44 2.896l1.024-1.664zm-6.832 4.704h7.92v3.632h2.128v-5.328h-10.048v1.696zm7.92-11.12v8.784h2.128v-8.784h-2.128zm12.942 6.112c-1.6.336-3.056.432-5.68.448v-3.712h4.496v-1.68h-6.592v7.088h1.232c3.264 0 4.944-.08 6.752-.48l-.208-1.664zm-4.128 3.424h-2.112v4.944h10.032v-1.68h-7.92v-3.264zm7.392-5.52v-4.016h-2.112v10.656h2.112v-4.912h1.952v-1.728h-1.952zm10.991 2.304c.336-1.856.336-3.312.336-4.336v-.912h-7.568v1.68h5.488c-.016.88-.08 1.952-.32 3.328l2.064.24zm.976.592c-1.376.192-2.848.304-4.304.368v-2.784h-2.064V305c-.96.016-1.872.016-2.688.016l.192 1.68c2.528-.016 5.952-.08 8.992-.64l-.128-1.504zm-4.8 3.136h-2.112v4.432h10.288v-1.68h-8.176v-2.752zm7.712-5.568v-4.496h-2.112v11.04h2.112v-4.8h1.76v-1.744h-1.76zm5.903 2.464h4.784v-5.696h-6.96v1.68h4.8v2.352h-4.784v6.064h1.328c2.672 0 4.832-.096 7.232-.512l-.224-1.712c-2.08.352-3.936.464-6.176.48v-2.656zm7.2-6.96v14.784h2.112v-14.784h-2.112zm18.767 8.656h2.112v-8.64h-2.112v2.688h-2.688v1.712h2.688v4.24zm-1.344-2.128c-2.336-.752-3.296-2.544-3.296-4.528v-1.216h-2.144v1.312c0 2.032-1.04 4.032-3.552 4.832l1.104 1.696c1.744-.592 2.912-1.776 3.568-3.28.624 1.312 1.664 2.32 3.216 2.848l1.104-1.664zm-1.52 6.608c-1.936 0-2.944-.4-2.944-1.232 0-.848 1.008-1.248 2.944-1.248 1.92 0 2.928.4 2.928 1.248 0 .832-1.008 1.232-2.928 1.232zm0-4.112c-3.136 0-5.056 1.056-5.056 2.88 0 1.792 1.92 2.848 5.056 2.848 3.12 0 5.04-1.056 5.04-2.848 0-1.824-1.92-2.88-5.04-2.88zm18.687-3.2c.416-1.52.416-2.768.416-3.936v-1.216h-10.208v1.664h8.096c0 .976-.048 1.968-.384 3.28l2.08.208zm-4.736 7.344c-1.984 0-3.12-.4-3.12-1.184 0-.8 1.136-1.2 3.12-1.2 2 0 3.136.4 3.136 1.2 0 .784-1.136 1.184-3.136 1.184zm0-3.968c-3.168 0-5.216 1.056-5.216 2.784 0 1.712 2.048 2.768 5.216 2.768 3.184 0 5.232-1.056 5.232-2.768 0-1.728-2.048-2.784-5.232-2.784zm.48-2.592v-2.576h-2.112v2.576h-4.912v1.664h13.264v-1.664h-6.24zm11.576 3.354h-1.867a6.18 6.18 0 01.117-1.219c.078-.338.206-.643.383-.914.177-.276.417-.557.719-.844.239-.224.453-.435.64-.632.193-.204.344-.415.453-.633.11-.224.164-.477.164-.758 0-.318-.052-.583-.156-.797a1.033 1.033 0 00-.445-.484c-.193-.115-.435-.172-.727-.172-.239 0-.466.049-.679.148a1.188 1.188 0 00-.516.461c-.13.203-.201.469-.211.797h-2.07c.015-.682.177-1.25.484-1.703.307-.458.721-.8 1.242-1.024.521-.229 1.104-.343 1.75-.343.714 0 1.323.12 1.828.359.511.234.899.578 1.164 1.031.271.453.407 1 .407 1.641 0 .458-.089.87-.266 1.234-.177.36-.411.696-.703 1.008a20.54 20.54 0 01-.945.946c-.297.265-.498.549-.602.851a3.343 3.343 0 00-.164 1.047zm-2.062 2.43c0-.313.104-.573.312-.782.214-.208.5-.312.859-.312.36 0 .644.104.852.312.214.209.32.469.32.782 0 .302-.106.557-.32.765-.208.209-.492.313-.852.313-.359 0-.645-.104-.859-.313a1.04 1.04 0 01-.312-.765z"/>
  <path fill="#838383" d="M59.674 327.854c0-1.786 1.653-2.831 4.047-2.831 2.413 0 4.066 1.045 4.066 2.831s-1.653 2.831-4.066 2.831c-2.394 0-4.047-1.045-4.047-2.831zm5.301 7.714v-2.964c3.097-.361 5.282-2.147 5.282-4.75 0-2.926-2.793-4.826-6.536-4.826-3.724 0-6.517 1.9-6.517 4.826 0 2.603 2.185 4.37 5.263 4.75v2.964h-6.65v2.033h15.846v-2.033h-6.688zm22.343-9.918H77.76v-3.344h-2.508v5.32h12.066v-1.976zm-9.69 10.792h9.651v-4.636H75.082v1.881h9.67v.988h-9.651v4.75h12.672v-1.881H77.629v-1.102zm-4.332-7.695v1.976H89.14v-1.976H73.295zm32.659.741c-2.755-.836-3.933-2.812-3.933-4.864V322.8h-2.526v1.634c0 2.223-1.216 4.408-4.105 5.301l1.273 1.957c1.977-.627 3.326-1.9 4.104-3.534.741 1.501 2.033 2.679 3.914 3.268l1.273-1.938zm1.691 7.961h-6.631v-1.482h6.631v1.482zm0-3.401h-6.631v-1.577h-2.47v6.954h11.59v-6.954h-2.489v1.577zm-.019-11.913v2.907h-3.192v2.033h3.192v4.731h2.508v-9.671h-2.508zm6.991 8.93c2.033-.418 3.42-1.387 4.199-2.66.779 1.14 2.09 2.014 4.047 2.394l.969-1.938c-2.546-.456-3.743-1.672-3.819-3.059h3.42v-1.938h-3.42v-1.71h-2.508v1.71h-3.42v1.938h3.42c-.076 1.482-1.273 2.831-3.895 3.325l1.007 1.938zm9.519.228c-3.667.494-7.904.513-11.096.513l.304 2.033c1.254 0 2.66 0 4.142-.057v5.32h2.508v-5.472c1.425-.114 2.888-.266 4.294-.532l-.152-1.805zm.988-9.158v17.499h2.508v-17.499h-2.508zm15.655 1.843h-3.914v-1.862h-2.527v1.862h-3.876v1.957h10.298l.019-1.957zm-7.068 5.947c0-.95.779-1.463 1.9-1.463 1.102 0 1.9.513 1.9 1.463 0 .969-.798 1.482-1.9 1.482-1.121 0-1.9-.513-1.9-1.482zm6.194 0c0-1.976-1.786-3.363-4.294-3.363-2.508 0-4.294 1.387-4.294 3.363 0 2.014 1.786 3.382 4.294 3.382 2.508 0 4.294-1.368 4.294-3.382zm-4.446 4.332h-2.508v5.073h11.913v-1.995h-9.405v-3.078zm8.778-6.783v-5.339h-2.508v13.091h2.508v-5.681h2.318v-2.071h-2.318zm9.441-4.674v1.995h5.301a4.27 4.27 0 01-.247.969l-5.947.209.361 1.938 4.332-.323c-1.007.931-2.546 1.691-4.731 2.185l.95 1.957c5.339-1.311 7.999-4.294 7.999-8.93h-8.018zm3.743 13.68h9.025v-4.693h-11.552v1.919h9.044v.988h-9.025v4.75h12.027v-1.9h-9.519v-1.064zm9.025-10.792v-3.572h-2.508v8.987h2.508v-3.382h2.318v-2.033h-2.318zm12.862 9.975v-2.603h5.301v-2.014h-10.146v-1.957h9.747v-5.833h-12.255v1.995h9.785v1.881h-9.766v5.928h4.826v2.603h-6.65v2.052h15.846v-2.052h-6.688zm11.817-5.282h5.681v-6.764h-8.265v1.995h5.7v2.793h-5.681v7.201h1.577c3.173 0 5.738-.114 8.588-.608l-.266-2.033c-2.47.418-4.674.551-7.334.57v-3.154zm8.55-8.265v17.556h2.508v-17.556h-2.508zm20.309 1.311h-3.686v-1.444h-2.508v1.444h-3.724v1.786h9.918v-1.786zm-6.84 4.807c0-.646.722-.969 1.9-.969s1.881.323 1.881.969c0 .646-.703.988-1.881.988s-1.9-.342-1.9-.988zm7.296 3.097c-1.33.152-2.717.266-4.142.323v-.893c1.862-.285 3.002-1.197 3.002-2.527 0-1.596-1.672-2.584-4.256-2.584-2.584 0-4.275.988-4.275 2.584 0 1.33 1.159 2.242 3.021 2.527v.988c-1.482.038-2.907.038-4.161.038l.266 1.919c3.078 0 7.068-.038 10.735-.684l-.19-1.691zm-8.588 5.358h9.348v2.964h2.508v-4.902h-11.856v1.938zm14.06-9.538h-2.204v-5.016h-2.508v11.932h2.508v-4.864h2.204v-2.052zm15.94-4.997h-2.527v12.559h2.527v-12.559zm-11.837 5.548c0-1.444 1.026-2.28 2.318-2.28 1.311 0 2.299.836 2.299 2.28 0 1.406-.988 2.261-2.299 2.261-1.292 0-2.318-.855-2.318-2.261zm7.068 0c0-2.584-2.071-4.446-4.75-4.446s-4.769 1.862-4.769 4.446c0 2.546 2.09 4.427 4.769 4.427 2.679 0 4.75-1.881 4.75-4.427zm-4.37 9.633v-3.857h-2.508v5.852h12.084v-1.995h-9.576z"/>
  <g>
    <path fill="#fff" d="M32 884h428v72H32z"/>
    <path stroke="#EDEDED" stroke-width=".5" d="M32 883.75h428"/>
    <circle cx="245.5" cy="897.5" r="39.5" fill="#C4C4C4"/>
    <g>
      <path fill="#C4C4C4" d="M72 919.5c0-8.56 6.94-15.5 15.5-15.5 8.56 0 15.5 6.94 15.5 15.5 0 8.56-6.94 15.5-15.5 15.5-8.56 0-15.5-6.94-15.5-15.5zM153 919.5c0-8.56 6.94-15.5 15.5-15.5 8.56 0 15.5 6.94 15.5 15.5 0 8.56-6.94 15.5-15.5 15.5-8.56 0-15.5-6.94-15.5-15.5zM308 919.5c0-8.56 6.94-15.5 15.5-15.5 8.56 0 15.5 6.94 15.5 15.5 0 8.56-6.94 15.5-15.5 15.5-8.56 0-15.5-6.94-15.5-15.5zM391 919.5c0-8.56 6.94-15.5 15.5-15.5 8.56 0 15.5 6.94 15.5 15.5 0 8.56-6.94 15.5-15.5 15.5-8.56 0-15.5-6.94-15.5-15.5z"/>
    </g>
  </g>
  <rect width="130" height="34" x="50" y="128" fill="#F0F0F0" opacity=".6" rx="17"/>
  <rect width="220" height="44" x="50" y="172" fill="#F0F0F0" opacity=".6" rx="22"/>
  <defs>
    <filter id="filter0_d_1124_4730" width="488" height="280" x="0" y="0" color-interpolation-filters="sRGB" filterUnits="userSpaceOnUse">
      <feFlood flood-opacity="0" result="BackgroundImageFix"/>
      <feColorMatrix in="SourceAlpha" result="hardAlpha" values="0 0 0 0 0 0 0 0 0 0 0 0 0 0 0 0 0 0 127 0"/>
      <feOffset dy="4"/>
      <feGaussianBlur stdDeviation="15"/>
      <feComposite in2="hardAlpha" operator="out"/>
      <feColorMatrix values="0 0 0 0 0 0 0 0 0 0 0 0 0 0 0 0 0 0 0.2 0"/>
      <feBlend in2="BackgroundImageFix" result="effect1_dropShadow_1124_4730"/>
      <feBlend in="SourceGraphic" in2="effect1_dropShadow_1124_4730" result="shape"/>
    </filter>
    <filter id="filter1_d_1124_4730" width="45.027" height="45.027" x="396.324" y="158.08" color-interpolation-filters="sRGB" filterUnits="userSpaceOnUse">
      <feFlood flood-opacity="0" result="BackgroundImageFix"/>
      <feColorMatrix in="SourceAlpha" result="hardAlpha" values="0 0 0 0 0 0 0 0 0 0 0 0 0 0 0 0 0 0 127 0"/>
      <feOffset dy="4"/>
      <feGaussianBlur stdDeviation="2"/>
      <feComposite in2="hardAlpha" operator="out"/>
      <feColorMatrix values="0 0 0 0 0 0 0 0 0 0 0 0 0 0 0 0 0 0 0.25 0"/>
      <feBlend in2="BackgroundImageFix" result="effect1_dropShadow_1124_4730"/>
      <feBlend in="SourceGraphic" in2="effect1_dropShadow_1124_4730" result="shape"/>
    </filter>
  </defs>
</svg>
