<svg xmlns="http://www.w3.org/2000/svg" width="508" height="1006" fill="none" viewBox="0 0 508 1006">
  <g filter="url(#filter0_d_1124_4726)">
    <g clip-path="url(#clip0_1124_4726)">
      <rect width="428" height="926" x="30" y="40" fill="#fff" rx="40"/>
      <rect width="379" height="158" x="56" y="247" fill="#F2F2F2" rx="30"/>
      <rect width="379" height="158" x="56" y="425" fill="#F2F2F2" rx="30"/>
      <rect width="379" height="158" x="56" y="601" fill="#F2F2F2" rx="30"/>
      <rect width="379" height="158" x="56" y="790" fill="#F2F2F2" rx="30"/>
      <rect width="120" height="120" x="75" y="266" fill="#D6D6D6" rx="30"/>
      <rect width="120" height="120" x="75" y="444" fill="#D6D6D6" rx="30"/>
      <rect width="120" height="120" x="75" y="620" fill="#D6D6D6" rx="30"/>
      <rect width="120" height="120" x="75" y="809" fill="#D6D6D6" rx="30"/>
      <path fill="#C1C1C1" d="M53.248 171.032h-2.112v9.728h1.28c2.144 0 4.512-.128 6.96-.64l-.208-1.728c-2.064.4-4.064.56-5.92.608v-7.968zm11.04 4.16h-2.064v-5.568h-2.112v14.72h2.112v-7.408h2.064v-1.744zm5.855-4.576c-2.304 0-4.048 1.52-4.048 3.632 0 2.128 1.744 3.632 4.048 3.632 2.304 0 4.064-1.504 4.064-3.632 0-2.112-1.76-3.632-4.064-3.632zm0 1.808c1.136 0 2 .672 2 1.824 0 1.152-.864 1.824-2 1.824-1.136 0-2-.672-2-1.824 0-1.152.864-1.824 2-1.824zm5.44-2.8v14.784h2.112v-14.784h-2.112zm-9.84 11.792c2.544 0 6-.032 9.168-.672l-.128-1.52c-3.104.464-6.72.48-9.312.48l.272 1.712zm22.623-1.776c-.992 0-1.728-.672-1.728-1.792s.736-1.808 1.728-1.808 1.712.688 1.712 1.792c0 1.136-.72 1.808-1.712 1.808zm0-5.312c-2.144 0-3.744 1.456-3.744 3.504 0 2.08 1.6 3.536 3.744 3.536 2.128 0 3.712-1.456 3.712-3.536 0-2.048-1.584-3.504-3.712-3.504zm1.04-4.432h-2.112v1.92H84.03v1.68h8.576v-1.68h-3.2v-1.92zm8.384 5.504h-2.112v-5.76h-2.112v14.736h2.112v-7.232h2.112V175.4zm10.703-2.48h-8.112v4.464h10.608v-1.664h-8.448v-1.216h8.096v-4.4h-10.272v1.664h8.128v1.152zm3.68 5.536H98.829v1.696h5.584v4.256h2.112v-4.256h5.648v-1.696zm11.006-6.416h-7.968v3.52h10.304v-1.424h-8.224v-.768h7.968v-3.472h-10.08v1.424h8v.72zm-6.016 9.984h8.144v-3.504h-10.256v1.424h8.16v.752h-8.144v3.552h10.64v-1.424h-8.544v-.8zm-3.616-5.76v1.52h13.344v-1.52h-13.344zm27.392-5.072h-3.296v-1.568h-2.128v1.568h-3.264v1.648h8.672l.016-1.648zm-5.952 5.008c0-.8.656-1.232 1.6-1.232.928 0 1.6.432 1.6 1.232 0 .816-.672 1.248-1.6 1.248-.944 0-1.6-.432-1.6-1.248zm5.216 0c0-1.664-1.504-2.832-3.616-2.832s-3.616 1.168-3.616 2.832c0 1.696 1.504 2.848 3.616 2.848s3.616-1.152 3.616-2.848zm-3.744 3.648h-2.112v4.272h10.032v-1.68h-7.92v-2.592zm7.392-5.712v-4.496h-2.112v11.024h2.112v-4.784h1.952v-1.744h-1.952zm18.975-.528h-8.048v-3.568h-2.112v5.232h10.16v-1.664zm-8.192 6.08h-2.112v4.432h10.4v-1.664h-8.288v-2.768zm-3.664-3.136v1.68h5.776v2.576h2.112v-2.576h5.456v-1.68H150.97zm18.014 2.848c-.8 0-1.28-1.104-1.28-3.376 0-2.256.48-3.36 1.28-3.36.816 0 1.28 1.104 1.28 3.36 0 2.272-.464 3.376-1.28 3.376zm4.336-4.336h-1.168c-.24-2.752-1.424-4.384-3.168-4.384-1.952 0-3.184 2.016-3.184 5.344 0 3.344 1.232 5.36 3.184 5.36 1.792 0 2.992-1.728 3.184-4.608h1.152v6.944h1.968v-13.84h-1.968v5.184zm2.992-5.44v14.736h2v-14.736h-2z"/>
      <path fill="#646464" d="M62.046 194.097v17.594h2.508v-17.594h-2.508zm1.938 6.859v2.109H67.1v-2.109h-3.116zm-13.3-4.256v2.014h10.241V196.7H50.684zm5.149 3.002c-2.565 0-4.465 1.748-4.465 4.199 0 2.451 1.9 4.199 4.465 4.199s4.465-1.748 4.465-4.199c0-2.451-1.9-4.199-4.465-4.199zm0 2.052c1.197 0 2.052.798 2.052 2.147 0 1.349-.855 2.147-2.052 2.147s-2.052-.798-2.052-2.147c0-1.349.855-2.147 2.052-2.147zm-1.273-7.372v3.078h2.527v-3.078H54.56zm15.502.266v2.014h9.71v1.349H70.1v4.56h2.566v-2.679h9.67v-5.244H70.064zm.038 6.688v1.995h12.674v-1.995H70.1zm-1.861 3.287v2.033h15.94v-2.033H68.24zm6.668.741v6.365h2.528v-6.365h-2.528zm15.56 2.242v2.052h15.922v-2.052H90.468zm6.67-3.895v4.37h2.526v-4.37h-2.526zm-5.016-8.322v8.645h12.52v-8.645h-12.52zm10.05 2.014v4.636h-7.562v-4.636h7.562zm10.468-2.09c-2.679 0-4.617 2.432-4.617 6.27 0 3.876 1.938 6.308 4.617 6.308 2.679 0 4.617-2.432 4.617-6.308 0-3.838-1.938-6.27-4.617-6.27zm0 2.299c1.311 0 2.204 1.387 2.204 3.971 0 2.622-.893 4.028-2.204 4.028-1.311 0-2.185-1.406-2.185-4.028 0-2.584.874-3.971 2.185-3.971zm6.536-3.515v17.594h2.546v-17.594h-2.546zm1.976 6.631v2.09h3.116v-2.09h-3.116zm4.274 6.878v2.052h15.922v-2.052h-15.922zm6.669-3.762v4.256h2.527v-4.256h-2.527zm-4.997-8.626v9.158h12.521v-9.158h-2.508v2.698h-7.505v-2.698h-2.508zm2.508 4.674h7.505v2.47h-7.505v-2.47zm25.401-5.795v17.594h2.546v-17.594h-2.546zm-5.187 1.824v.456c0 4.712-1.824 7.904-6.878 10.336l1.311 2.014c6.251-3.021 8.075-7.429 8.075-12.806h-2.508zm-5.947 0v1.995h7.144v-1.995h-7.144z"/>
      <rect width="189" height="4" x="214" y="278" fill="#C4C4C4" rx="2"/>
      <rect width="189" height="2" x="214" y="454" fill="#C4C4C4" rx="1"/>
      <rect width="189" height="2" x="214" y="632" fill="#C4C4C4" rx="1"/>
      <rect width="189" height="2" x="214" y="821" fill="#C4C4C4" rx="1"/>
      <circle cx="392" cy="377" r="6" fill="#C4C4C4"/>
      <circle cx="392" cy="555" r="6" fill="#C4C4C4"/>
      <circle cx="392" cy="731" r="6" fill="#C4C4C4"/>
      <circle cx="392" cy="920" r="6" fill="#C4C4C4"/>
      <path fill="#ACACAC" d="M55.291 133.201h.774c.378 0 .69-.062.937-.187a1.29 1.29 0 00.557-.522c.125-.222.187-.472.187-.75 0-.328-.055-.603-.164-.826a1.095 1.095 0 00-.492-.504c-.219-.113-.496-.17-.832-.17-.305 0-.574.061-.809.182-.23.117-.412.285-.545.504a1.492 1.492 0 00-.193.773h-1.084c0-.433.11-.828.328-1.183.219-.356.526-.639.92-.85.398-.211.86-.316 1.383-.316.515 0 .967.091 1.353.275.387.18.688.449.903.809.214.355.322.798.322 1.33 0 .214-.05.445-.152.691a2.05 2.05 0 01-.463.68 2.393 2.393 0 01-.809.521c-.332.133-.73.199-1.195.199h-.926v-.656zm0 .891v-.651h.926c.543 0 .992.065 1.348.194.355.129.634.301.837.515.207.215.352.452.434.709.086.254.129.508.129.762 0 .399-.069.752-.205 1.061-.133.308-.322.57-.569.785a2.421 2.421 0 01-.855.486 3.382 3.382 0 01-1.072.164c-.371 0-.721-.053-1.05-.158a2.711 2.711 0 01-.86-.457 2.137 2.137 0 01-.586-.744 2.342 2.342 0 01-.211-1.014h1.084c0 .297.064.557.193.779.133.223.32.397.563.522.246.121.535.182.867.182.332 0 .617-.057.855-.17.242-.118.428-.293.557-.528.133-.234.199-.529.199-.884 0-.356-.074-.647-.223-.874-.148-.23-.359-.4-.633-.509a2.44 2.44 0 00-.954-.17h-.774zm124.983-.153l-.867-.222.427-4.248h4.377v1.002h-3.457l-.258 2.32c.157-.09.354-.174.592-.252.242-.078.52-.117.832-.117.395 0 .748.068 1.061.205.312.133.578.324.797.574.222.25.392.551.509.903.118.351.176.744.176 1.177 0 .41-.056.787-.17 1.131a2.52 2.52 0 01-.498.902 2.232 2.232 0 01-.843.592c-.336.141-.733.211-1.19.211-.344 0-.67-.047-.978-.14a2.53 2.53 0 01-.821-.44 2.39 2.39 0 01-.586-.738 2.975 2.975 0 01-.281-1.043h1.031c.047.32.141.59.282.808.14.219.324.385.55.498.231.11.498.165.803.165.258 0 .486-.045.686-.135a1.37 1.37 0 00.504-.387c.136-.168.24-.371.31-.609.074-.239.111-.506.111-.803 0-.27-.037-.52-.111-.75a1.703 1.703 0 00-.334-.604 1.468 1.468 0 00-.533-.398 1.707 1.707 0 00-.727-.146c-.363 0-.638.048-.826.146-.183.098-.373.23-.568.398zm65.315-4.482h.094v.92h-.094c-.574 0-1.054.094-1.441.281a2.367 2.367 0 00-.92.744 3.065 3.065 0 00-.492 1.043c-.098.387-.147.78-.147 1.178v1.254c0 .379.045.715.135 1.008.09.289.213.533.369.732.157.199.332.35.528.451.199.102.406.153.621.153.25 0 .472-.047.668-.141.195-.098.359-.232.492-.404.137-.176.24-.383.31-.621.071-.239.106-.5.106-.785 0-.254-.031-.499-.094-.733a1.947 1.947 0 00-.287-.633 1.38 1.38 0 00-1.172-.603c-.301 0-.582.074-.844.222-.257.145-.47.336-.638.575-.164.234-.258.49-.281.767l-.575-.006c.055-.437.157-.81.305-1.119.152-.312.34-.566.563-.761.226-.2.478-.344.755-.434.282-.094.579-.141.891-.141.426 0 .793.08 1.102.241.308.16.562.375.761.644.2.266.346.566.44.902.097.332.146.674.146 1.026 0 .402-.056.779-.17 1.131-.113.351-.283.66-.509.925a2.308 2.308 0 01-.827.622 2.754 2.754 0 01-1.142.222c-.461 0-.863-.094-1.207-.281a2.579 2.579 0 01-.856-.762 3.479 3.479 0 01-.509-1.054 4.149 4.149 0 01-.17-1.178v-.51c0-.602.06-1.191.181-1.77a4.71 4.71 0 01.627-1.57 3.213 3.213 0 011.248-1.119c.531-.277 1.209-.416 2.033-.416zm63.881.012v.609L305.936 138h-1.142l3.527-7.641h-4.617v-.89h5.766zm62.391 6.222c0 .52-.121.961-.363 1.325a2.273 2.273 0 01-.973.82 3.255 3.255 0 01-1.377.281c-.511 0-.972-.094-1.382-.281a2.273 2.273 0 01-.973-.82c-.238-.364-.357-.805-.357-1.325 0-.339.064-.65.193-.931.133-.285.318-.533.557-.744.242-.211.527-.373.855-.487a3.277 3.277 0 011.096-.175c.523 0 .99.101 1.4.304.41.199.733.475.967.826.238.352.357.754.357 1.207zm-1.09-.023c0-.316-.068-.596-.205-.838a1.447 1.447 0 00-.574-.574 1.728 1.728 0 00-.855-.205c-.332 0-.619.068-.862.205a1.436 1.436 0 00-.556.574 1.713 1.713 0 00-.199.838c0 .328.064.609.193.844.133.23.32.408.562.533.246.121.537.182.873.182.336 0 .625-.061.868-.182.242-.125.427-.303.556-.533.133-.235.199-.516.199-.844zm.891-3.979c0 .415-.109.788-.328 1.12a2.29 2.29 0 01-.896.785 2.827 2.827 0 01-1.29.287c-.488 0-.923-.096-1.306-.287a2.241 2.241 0 01-.891-.785 2.015 2.015 0 01-.322-1.12c0-.496.107-.918.322-1.265a2.14 2.14 0 01.897-.797c.379-.184.81-.275 1.295-.275.488 0 .921.091 1.3.275a2.1 2.1 0 01.891.797c.219.347.328.769.328 1.265zm-1.084.018c0-.285-.06-.537-.182-.756a1.331 1.331 0 00-.503-.515 1.43 1.43 0 00-.75-.194c-.286 0-.536.061-.75.182a1.258 1.258 0 00-.498.504 1.615 1.615 0 00-.176.779c0 .293.058.549.176.768.121.218.289.388.503.509.215.121.465.182.75.182.286 0 .534-.061.745-.182.214-.121.382-.291.503-.509.122-.219.182-.475.182-.768zm59.509 5.385h.111c.625 0 1.133-.088 1.524-.264.39-.176.691-.412.902-.709.211-.297.356-.631.434-1.002.078-.375.117-.76.117-1.154v-1.307c0-.386-.045-.73-.135-1.031a2.236 2.236 0 00-.363-.756 1.612 1.612 0 00-.522-.463 1.291 1.291 0 00-.621-.158 1.426 1.426 0 00-1.172.568 2 2 0 00-.304.633 2.802 2.802 0 00-.106.791c0 .254.032.5.094.739a2.1 2.1 0 00.287.644c.129.191.289.344.481.457.195.109.423.164.685.164.242 0 .469-.047.68-.14a1.974 1.974 0 001.142-1.624h.516c0 .325-.064.645-.193.961a2.936 2.936 0 01-.528.856 2.67 2.67 0 01-.796.621 2.203 2.203 0 01-.997.228c-.421 0-.787-.082-1.095-.246a2.201 2.201 0 01-.762-.656 2.986 2.986 0 01-.439-.914 3.854 3.854 0 01-.141-1.031c0-.406.057-.787.17-1.143.113-.355.281-.668.504-.937.222-.274.498-.487.826-.639a2.732 2.732 0 011.148-.228c.489 0 .905.097 1.248.293.344.195.623.457.838.785.219.328.379.697.481 1.107.101.41.152.832.152 1.266v.392c0 .442-.029.891-.088 1.348a5.354 5.354 0 01-.322 1.301 3.412 3.412 0 01-.686 1.113c-.3.324-.693.582-1.177.773-.481.188-1.075.282-1.782.282h-.111v-.92z"/>
      <path fill="#666" d="M122.089 134.812v1.325h-6.146l-.082-1.026 3.556-5.642h1.342l-1.453 2.431-1.77 2.912h4.553zm-.967-5.343V138h-1.687v-8.531h1.687z"/>
      <g>
        <path fill="#ACACAC" d="M53.504 108.576v1.932h.996v-1.932h-.996zm4.98-4.488v6.384h.996v-6.384h-.996zm-7.8 4.824c2.028 0 4.62-.024 6.996-.372l-.06-.648c-2.316.264-4.968.276-7.056.276l.12.744zm1.524 1.956v.72h6.288v.876h-6.264v1.884h.972v-1.224h6.276v-2.256h-7.272zm.024 3.228v.72h7.608v-.72h-7.608zm4.092-4.848v.648h2.472v-.648h-2.472zm-2.256-4.956c-1.62 0-2.676.624-2.676 1.632s1.056 1.632 2.676 1.632c1.608 0 2.664-.624 2.664-1.632s-1.056-1.632-2.664-1.632zm0 .696c1.044 0 1.728.36 1.728.936 0 .576-.684.936-1.728.936-1.068 0-1.752-.36-1.752-.936 0-.576.684-.936 1.752-.936zm126.407-.516v.6c0 1.548-1.908 2.844-3.888 3.144l.396.804c2.256-.384 4.368-1.872 4.368-3.948v-.6h-.876zm.18 0v.6c0 2.052 2.124 3.564 4.356 3.948l.396-.804c-1.956-.3-3.888-1.632-3.888-3.144v-.6h-.864zm-.18 6.336v4.128h.984v-4.128h-.984zm-4.38-.612v.828h9.804v-.828h-9.804zm63.995-5.664v3.696h7.296v-3.696h-7.296zm6.312.804v2.088h-5.34v-2.088h5.34zm-7.572 4.248v.804h9.804v-.804h-9.804zm4.416-1.572v1.872h.984v-1.872h-.984zm-3.324 3.492v.816h6.504v2.616h.996v-3.432h-7.5zm62.915-6.852v.816h6.984v-.816h-6.984zm-1.248 3.996v.816h9.828v-.816h-9.828zm7.584-3.996v.804c0 .9 0 1.944-.36 3.432l.972.048c.36-1.5.36-2.556.36-3.48v-.804h-.972zm-6.384 6.288v3.852h7.392v-3.852h-7.392zm6.42.792v2.256h-5.448v-2.256h5.448zm56.388-2.016v.804h7.452v-.804h-7.452zm-1.26 3.048v.828h9.828v-.828h-9.828zm4.404-2.628v3.012h.984v-3.012h-.984zm-3.144-5.172v5.052h1.008v-4.236h6.324v-.816h-7.332zm.684 2.328v.804h6.42v-.804h-6.42zm63.839-2.808c-1.608 0-2.796.984-2.796 2.412 0 1.416 1.188 2.4 2.796 2.4 1.62 0 2.808-.984 2.808-2.4 0-1.428-1.188-2.412-2.808-2.412zm0 .816c1.056 0 1.836.66 1.836 1.596s-.78 1.584-1.836 1.584c-1.044 0-1.836-.648-1.836-1.584s.792-1.596 1.836-1.596zm4.848-1.212v5.556h1.008v-5.556h-1.008zm-6.012 6.084v.804h6.036v1.092h-6.012v2.376h.972v-1.632h6.024v-2.64h-7.02zm.024 3.828v.792h7.356V114h-7.356z"/>
        <path fill="#666" d="M115.795 110.532v1.8h1.596v-1.8h-1.596zm4.668-6.576v11.112h1.608v-11.112h-1.608zm1.044 4.512v1.32h1.956v-1.32h-1.956zm-8.208 4.752c1.872 0 4.392 0 6.732-.456l-.12-1.152c-2.244.312-4.884.324-6.804.324l.192 1.284zm.012-8.04v1.248h6.54v-1.248h-6.54zm3.288 1.692c-1.596 0-2.712.84-2.712 2.076 0 1.248 1.116 2.088 2.712 2.088 1.584 0 2.712-.84 2.712-2.088 0-1.236-1.128-2.076-2.712-2.076zm0 1.2c.72 0 1.2.312 1.2.876 0 .576-.48.888-1.2.888-.732 0-1.2-.312-1.2-.888 0-.564.468-.876 1.2-.876zm-.804-4.056v2.1h1.596v-2.1h-1.596z"/>
      </g>
      <g>
        <path fill="#fff" d="M32 898h428v72H32z"/>
        <path stroke="#EDEDED" stroke-width=".5" d="M32 897.75h428"/>
        <circle cx="245.5" cy="911.5" r="39.5" fill="#C4C4C4"/>
        <g>
          <path fill="#C4C4C4" d="M72 918h31v31H72v-31zM153 918h31v31h-31v-31zM308 918h31v31h-31v-31zM391 918h31v31h-31v-31z"/>
        </g>
      </g>
    </g>
  </g>
  <defs>
    <clipPath id="clip0_1124_4726">
      <rect width="428" height="926" x="30" y="40" fill="#fff" rx="40"/>
    </clipPath>
    <filter id="filter0_d_1124_4726" width="508" height="1006" x="0" y="0" color-interpolation-filters="sRGB" filterUnits="userSpaceOnUse">
      <feFlood flood-opacity="0" result="BackgroundImageFix"/>
      <feColorMatrix in="SourceAlpha" result="hardAlpha" values="0 0 0 0 0 0 0 0 0 0 0 0 0 0 0 0 0 0 127 0"/>
      <feOffset dx="10"/>
      <feGaussianBlur stdDeviation="20"/>
      <feComposite in2="hardAlpha" operator="out"/>
      <feColorMatrix values="0 0 0 0 0 0 0 0 0 0 0 0 0 0 0 0 0 0 0.1 0"/>
      <feBlend in2="BackgroundImageFix" result="effect1_dropShadow_1124_4726"/>
      <feBlend in="SourceGraphic" in2="effect1_dropShadow_1124_4726" result="shape"/>
    </filter>
  </defs>
</svg>
