<svg xmlns="http://www.w3.org/2000/svg" width="173" height="27" fill="none" viewBox="0 0 173 27">
  <path fill="#463613" d="M6.098 21h4.02l3.8-13.07h.164L17.855 21h4.02l5.66-19.797h-4.484l-3.336 13.863h-.164L15.914 1.203H12.06L8.422 15.04h-.164L4.922 1.203H.438L6.098 21zm24.02 0h4.048V6.152h-4.047V21zm-.19-18.84c0 1.121.997 2.05 2.214 2.05 1.203 0 2.201-.929 2.188-2.05.013-1.148-.985-2.064-2.188-2.078-1.217.014-2.215.93-2.215 2.078zM37.87 21h4.047v-8.45c-.014-1.818 1.34-3.09 3.172-3.09.56 0 1.34.097 1.722.22V6.07a6.386 6.386 0 00-1.285-.136c-1.668 0-3.049.97-3.582 2.789h-.164v-2.57h-3.91V21zm17.732.3c3.664-.013 6.125-1.79 6.7-4.538h-3.856c-.397.888-1.381 1.49-2.762 1.504-2.092-.014-3.418-1.395-3.418-3.637H62.41V13.48c0-5.058-3.077-7.52-6.973-7.52-4.348 0-7.178 3.104-7.164 7.685-.014 4.703 2.775 7.642 7.328 7.656zm-3.336-9.214c.082-1.709 1.395-3.104 3.254-3.09 1.804-.014 3.049 1.285 3.062 3.09h-6.316zM72.609 21h4.101v-8.203h8.094v-3.39H76.71V4.593h8.942v-3.39H72.609V21zm15.982 0h4.046v-8.45c-.013-1.818 1.34-3.09 3.172-3.09.56 0 1.34.097 1.723.22V6.07a6.386 6.386 0 00-1.285-.136c-1.668 0-3.05.97-3.582 2.789H92.5v-2.57h-3.91V21zm10.349-4.156c.013 2.94 2.105 4.443 4.949 4.43 2.201.013 3.623-.958 4.347-2.325h.11V21h3.828V10.992c.014-3.582-3.049-5.031-6.289-5.031-3.938 0-6.18 2.023-6.426 4.594h3.856c.218-1.012 1.08-1.627 2.46-1.64 1.518.013 2.366.724 2.379 1.968v1.203c-.629.027-2.625.123-3.691.191-2.857.178-5.51 1.258-5.523 4.567zm3.882-.11c0-1.148.889-1.818 2.297-1.941.684-.055 2.42-.15 3.035-.178v1.08c.014 1.573-1.271 2.776-3.117 2.79-1.299-.014-2.215-.616-2.215-1.75zm17.049-4.32c0-1.955 1.162-3.09 2.843-3.09 1.682 0 2.666 1.094 2.68 2.926V21h4.02v-9.46c.013-3.46-2.01-5.58-5.114-5.58-2.201 0-3.787 1.081-4.457 2.79h-.164V6.152h-3.855V21h4.047v-8.586zM133.118 21h4.047V6.152h-4.047V21zm-.191-18.84c0 1.121.998 2.05 2.215 2.05 1.203 0 2.201-.929 2.187-2.05.014-1.148-.984-2.064-2.187-2.078-1.217.014-2.215.93-2.215 2.078zm11.989 10.254c0-1.955 1.163-3.09 2.844-3.09 1.682 0 2.666 1.094 2.68 2.926V21h4.019v-9.46c.014-3.46-2.009-5.58-5.113-5.58-2.201 0-3.787 1.081-4.457 2.79h-.164V6.152h-3.855V21h4.046v-8.586zm19.92 14.465c4.224 0 7.205-1.928 7.219-5.715V6.152h-4.02v2.489h-.164c-.547-1.204-1.75-2.68-4.238-2.68-3.282 0-6.043 2.502-6.043 7.52 0 4.949 2.693 7.314 6.043 7.3 2.392.014 3.705-1.203 4.238-2.406h.191v2.707c-.013 2.064-1.271 2.871-3.144 2.871-1.613 0-2.735-.533-2.953-1.723h-3.992c.232 2.803 2.761 4.649 6.863 4.649zm-3.09-13.344c-.014-2.556 1.08-4.348 3.144-4.348 2.038 0 3.172 1.71 3.172 4.348 0 2.639-1.148 4.197-3.172 4.211-2.05-.014-3.158-1.64-3.144-4.21z"/>
</svg>
