<svg xmlns="http://www.w3.org/2000/svg" width="508" height="1006" fill="none" viewBox="0 0 508 1006">
  <g filter="url(#filter0_d_1124_4718)">
    <g clip-path="url(#clip0_1124_4718)">
      <rect width="428" height="926" x="40" y="30" fill="#fff" rx="40"/>
      <rect width="269" height="269" x="120.09" y="320" stroke="#C4C4C4" stroke-width="2" rx="29"/>
      <path fill="#C4C4C4" d="M129.49 579.846l252.247-252.247-1.415-1.414-252.246 252.247 1.414 1.414zm-1.646-253.333l252.709 252.708 1.414-1.414-252.709-252.709-1.414 1.415z"/>
      <path fill="#444" d="M181.059 259.031V270h-34.36v-10.969h34.36zm-29.813-57.281V270h-14.062v-68.25h14.062zm90.844 32.531v3.235c0 5.187-.703 9.843-2.11 13.968-1.406 4.125-3.39 7.641-5.953 10.547a25.817 25.817 0 01-9.187 6.61c-3.531 1.531-7.453 2.297-11.766 2.297-4.281 0-8.203-.766-11.765-2.297a26.378 26.378 0 01-9.188-6.61c-2.594-2.906-4.609-6.422-6.047-10.547-1.406-4.125-2.109-8.781-2.109-13.968v-3.235c0-5.219.703-9.875 2.109-13.969 1.406-4.124 3.391-7.64 5.953-10.546 2.594-2.907 5.657-5.125 9.188-6.657 3.562-1.531 7.484-2.297 11.765-2.297 4.313 0 8.235.766 11.766 2.297a25.558 25.558 0 019.188 6.657c2.593 2.906 4.593 6.422 6 10.546 1.437 4.094 2.156 8.75 2.156 13.969zm-14.203 3.235v-3.328c0-3.626-.328-6.813-.985-9.563-.656-2.75-1.625-5.063-2.906-6.937-1.281-1.876-2.844-3.282-4.687-4.219-1.844-.969-3.954-1.453-6.329-1.453-2.375 0-4.484.484-6.328 1.453-1.812.937-3.359 2.343-4.64 4.219-1.25 1.874-2.203 4.187-2.86 6.937-.656 2.75-.984 5.937-.984 9.563v3.328c0 3.593.328 6.781.984 9.562.657 2.75 1.625 5.078 2.907 6.984 1.281 1.876 2.843 3.297 4.687 4.266 1.844.969 3.953 1.453 6.328 1.453 2.375 0 4.485-.484 6.328-1.453 1.844-.969 3.391-2.39 4.641-4.266 1.25-1.906 2.203-4.234 2.859-6.984.657-2.781.985-5.969.985-9.562zm78.422-3.188v27.047c-1.063 1.281-2.704 2.672-4.922 4.172-2.219 1.469-5.078 2.734-8.578 3.797-3.5 1.062-7.735 1.594-12.704 1.594-4.406 0-8.421-.719-12.046-2.157-3.625-1.469-6.75-3.609-9.375-6.422-2.594-2.812-4.594-6.25-6-10.312-1.407-4.094-2.11-8.766-2.11-14.016v-4.265c0-5.25.672-9.922 2.016-14.016 1.375-4.094 3.328-7.547 5.859-10.359a25.075 25.075 0 019.047-6.422c3.5-1.469 7.391-2.203 11.672-2.203 5.937 0 10.812.968 14.625 2.906 3.812 1.906 6.719 4.562 8.719 7.969 2.031 3.375 3.281 7.25 3.75 11.625h-13.641c-.344-2.313-1-4.328-1.969-6.047-.968-1.719-2.359-3.063-4.172-4.031-1.781-.969-4.093-1.454-6.937-1.454-2.344 0-4.438.485-6.281 1.454-1.813.937-3.344 2.328-4.594 4.171-1.25 1.844-2.203 4.125-2.859 6.844-.657 2.719-.985 5.875-.985 9.469v4.359c0 3.563.344 6.719 1.031 9.469.688 2.719 1.704 5.016 3.047 6.891 1.375 1.843 3.063 3.234 5.063 4.171 2 .938 4.328 1.407 6.984 1.407 2.219 0 4.063-.188 5.531-.563 1.5-.375 2.704-.828 3.61-1.359.937-.563 1.656-1.094 2.156-1.594v-12.094h-12.844v-10.031h26.907zm67.406-.047v3.235c0 5.187-.703 9.843-2.11 13.968-1.406 4.125-3.39 7.641-5.953 10.547a25.817 25.817 0 01-9.187 6.61c-3.531 1.531-7.453 2.297-11.766 2.297-4.281 0-8.203-.766-11.765-2.297a26.378 26.378 0 01-9.188-6.61c-2.594-2.906-4.609-6.422-6.047-10.547-1.406-4.125-2.109-8.781-2.109-13.968v-3.235c0-5.219.703-9.875 2.109-13.969 1.406-4.124 3.391-7.64 5.953-10.546 2.594-2.907 5.657-5.125 9.188-6.657 3.562-1.531 7.484-2.297 11.765-2.297 4.313 0 8.235.766 11.766 2.297a25.558 25.558 0 019.188 6.657c2.593 2.906 4.593 6.422 6 10.546 1.437 4.094 2.156 8.75 2.156 13.969zm-14.203 3.235v-3.328c0-3.626-.328-6.813-.985-9.563-.656-2.75-1.625-5.063-2.906-6.937-1.281-1.876-2.844-3.282-4.687-4.219-1.844-.969-3.954-1.453-6.329-1.453-2.375 0-4.484.484-6.328 1.453-1.812.937-3.359 2.343-4.64 4.219-1.25 1.874-2.203 4.187-2.86 6.937-.656 2.75-.984 5.937-.984 9.563v3.328c0 3.593.328 6.781.984 9.562.657 2.75 1.625 5.078 2.907 6.984 1.281 1.876 2.843 3.297 4.687 4.266 1.844.969 3.953 1.453 6.328 1.453 2.375 0 4.485-.484 6.328-1.453 1.844-.969 3.391-2.39 4.641-4.266 1.25-1.906 2.203-4.234 2.859-6.984.657-2.781.985-5.969.985-9.562zM195.24 175.148c0-.515-.129-1.025-.386-1.529-.258-.504-.756-.967-1.495-1.389-.726-.421-1.798-.779-3.216-1.072a24.667 24.667 0 01-2.831-.791c-.82-.293-1.511-.644-2.074-1.055a4.161 4.161 0 01-1.283-1.476c-.293-.574-.439-1.254-.439-2.039 0-.703.152-1.365.457-1.986a5.001 5.001 0 011.336-1.653c.586-.48 1.289-.855 2.109-1.125.832-.269 1.764-.404 2.795-.404 1.465 0 2.719.252 3.762.756 1.054.492 1.857 1.166 2.408 2.021.562.856.844 1.823.844 2.901h-2.092c0-.657-.194-1.278-.58-1.864-.375-.586-.932-1.066-1.67-1.441-.727-.375-1.617-.563-2.672-.563-1.09 0-1.975.165-2.654.493-.68.328-1.178.744-1.495 1.248a2.99 2.99 0 00-.457 1.564c0 .422.065.809.194 1.16.14.34.387.657.738.95.363.292.879.568 1.547.826.668.258 1.535.509 2.602.756 1.535.339 2.789.755 3.761 1.248.985.48 1.711 1.078 2.18 1.793.469.703.703 1.558.703 2.566 0 .785-.164 1.506-.492 2.162a4.824 4.824 0 01-1.424 1.67c-.609.469-1.348.832-2.215 1.09-.855.258-1.816.387-2.883.387-1.605 0-2.964-.264-4.078-.791-1.101-.54-1.939-1.243-2.513-2.11-.563-.879-.844-1.81-.844-2.795h2.092c.07.985.38 1.764.931 2.338a4.578 4.578 0 002.022 1.195 8.53 8.53 0 002.39.352c1.078 0 1.981-.158 2.707-.475.727-.316 1.278-.732 1.653-1.248a2.78 2.78 0 00.562-1.67zm14.203 5.204c-1.242 0-2.384-.229-3.427-.686a8.182 8.182 0 01-2.707-1.934c-.762-.832-1.354-1.816-1.776-2.953-.41-1.148-.615-2.402-.615-3.761v-.756c0-1.465.217-2.789.65-3.973.434-1.184 1.032-2.197 1.793-3.041a7.95 7.95 0 012.602-1.934 7.263 7.263 0 013.094-.685c1.207 0 2.279.217 3.216.65a6.303 6.303 0 012.356 1.811c.644.773 1.131 1.693 1.459 2.76.328 1.054.492 2.22.492 3.498v1.283h-14.396v-1.793h12.304v-.246a7.708 7.708 0 00-.65-2.988 5.404 5.404 0 00-1.793-2.286c-.797-.586-1.793-.879-2.988-.879-.891 0-1.711.188-2.461.563a5.588 5.588 0 00-1.916 1.617c-.528.692-.938 1.518-1.231 2.479-.281.949-.422 2.004-.422 3.164v.756c0 1.054.153 2.039.457 2.953a7.695 7.695 0 001.336 2.39 6.302 6.302 0 002.075 1.618c.796.386 1.675.58 2.636.58 1.125 0 2.121-.205 2.989-.616.867-.422 1.646-1.084 2.337-1.986l1.319 1.02a8.034 8.034 0 01-1.547 1.687c-.609.516-1.342.926-2.197 1.231-.856.304-1.852.457-2.989.457zm13.272-15.434V180h-2.11v-19.02h2.022l.088 3.938zm-.387 4.394l-1.019-.527c.07-1.125.281-2.18.632-3.164a8.454 8.454 0 011.512-2.601 6.857 6.857 0 012.32-1.758c.903-.422 1.928-.633 3.077-.633.925 0 1.763.129 2.513.387a4.656 4.656 0 011.934 1.177c.539.528.955 1.219 1.248 2.075.293.855.439 1.88.439 3.076V180h-2.091v-12.586c0-1.266-.2-2.256-.598-2.971-.387-.714-.932-1.224-1.635-1.529-.691-.305-1.494-.457-2.408-.457-1.078 0-1.992.223-2.742.668a5.485 5.485 0 00-1.811 1.705 7.845 7.845 0 00-1.019 2.232 8.788 8.788 0 00-.352 2.25zm12.639-1.652l-1.406.035c.058-.925.269-1.81.632-2.654a7.563 7.563 0 011.53-2.25 7.08 7.08 0 012.302-1.582c.903-.387 1.916-.58 3.041-.58.985 0 1.864.135 2.637.404a4.552 4.552 0 011.951 1.248c.539.563.95 1.283 1.231 2.162.281.879.422 1.934.422 3.164V180h-2.11v-12.41c0-1.348-.199-2.391-.597-3.129-.387-.75-.926-1.272-1.618-1.565-.691-.292-1.5-.439-2.425-.439-.914.012-1.717.182-2.409.51a5.176 5.176 0 00-1.74 1.265 5.904 5.904 0 00-1.054 1.67 5.384 5.384 0 00-.387 1.758zm20.021-6.68V180h-2.092v-19.02h2.092zm-2.461-5.501c0-.399.123-.733.369-1.002.258-.282.61-.422 1.055-.422.445 0 .797.14 1.055.422.269.269.404.603.404 1.002a1.4 1.4 0 01-.404 1.001c-.258.27-.61.405-1.055.405-.445 0-.797-.135-1.055-.405a1.47 1.47 0 01-.369-1.001zM263.074 153v27h-2.092v-27h2.092zm4.588 17.789v-.58c0-1.383.199-2.66.598-3.832.398-1.172.967-2.186 1.705-3.041a7.753 7.753 0 012.689-1.986c1.043-.481 2.203-.721 3.481-.721 1.289 0 2.455.24 3.498.721a7.753 7.753 0 012.689 1.986c.75.855 1.324 1.869 1.723 3.041.398 1.172.598 2.449.598 3.832v.58c0 1.383-.2 2.66-.598 3.832-.399 1.16-.973 2.168-1.723 3.024a7.787 7.787 0 01-2.672 2.003c-1.043.469-2.203.704-3.48.704-1.289 0-2.455-.235-3.498-.704a7.97 7.97 0 01-2.69-2.003c-.75-.856-1.324-1.864-1.722-3.024-.399-1.172-.598-2.449-.598-3.832zm2.092-.58v.58c0 1.043.141 2.033.422 2.971a8.03 8.03 0 001.23 2.478 5.803 5.803 0 002.004 1.688c.797.41 1.717.615 2.76.615 1.031 0 1.939-.205 2.725-.615a5.81 5.81 0 002.003-1.688 7.718 7.718 0 001.213-2.478c.282-.938.422-1.928.422-2.971v-.58c0-1.031-.14-2.01-.422-2.936a7.542 7.542 0 00-1.23-2.478 5.903 5.903 0 00-2.004-1.723c-.797-.422-1.711-.633-2.742-.633s-1.946.211-2.742.633a6.117 6.117 0 00-2.004 1.723 8.043 8.043 0 00-1.231 2.478 10.476 10.476 0 00-.404 2.936zm31.764-9.229h1.951v18.686c0 1.652-.317 3.07-.949 4.254a6.475 6.475 0 01-2.655 2.725c-1.136.632-2.478.949-4.025.949a8.54 8.54 0 01-2.426-.369 8.339 8.339 0 01-2.338-1.09 7.151 7.151 0 01-1.863-1.793l1.178-1.283c.773.937 1.599 1.623 2.478 2.056a6.203 6.203 0 002.848.668c1.207 0 2.226-.24 3.058-.721a4.623 4.623 0 001.916-2.074c.446-.902.668-1.986.668-3.252v-14.572l.159-4.184zm-13.36 9.704v-.37c0-1.476.164-2.806.492-3.99.34-1.195.827-2.215 1.459-3.058a6.332 6.332 0 012.303-1.952c.914-.457 1.945-.685 3.094-.685 1.101 0 2.08.182 2.935.545a6.299 6.299 0 012.215 1.564c.621.68 1.119 1.489 1.494 2.426.387.938.668 1.981.844 3.129v4.693a11.603 11.603 0 01-.773 2.971 7.898 7.898 0 01-1.494 2.338 6.458 6.458 0 01-2.25 1.529c-.868.352-1.87.528-3.006.528-1.137 0-2.157-.235-3.059-.704a6.653 6.653 0 01-2.303-1.986c-.632-.867-1.119-1.892-1.459-3.076-.328-1.184-.492-2.484-.492-3.902zm2.11-.37v.37c0 1.113.111 2.144.334 3.093.222.95.562 1.776 1.019 2.479a4.986 4.986 0 001.74 1.652c.703.399 1.53.598 2.479.598 1.207 0 2.221-.229 3.041-.686a5.466 5.466 0 001.951-1.845 8.67 8.67 0 001.055-2.532v-5.466a10.374 10.374 0 00-.598-1.899 6.204 6.204 0 00-1.09-1.775c-.457-.551-1.043-.991-1.758-1.319-.703-.339-1.558-.509-2.566-.509-.961 0-1.799.199-2.514.597a4.941 4.941 0 00-1.74 1.67c-.457.703-.797 1.529-1.019 2.479a13.51 13.51 0 00-.334 3.093zm17.543.475v-.58c0-1.383.199-2.66.597-3.832.399-1.172.967-2.186 1.705-3.041a7.757 7.757 0 012.69-1.986c1.043-.481 2.203-.721 3.48-.721 1.289 0 2.455.24 3.498.721a7.757 7.757 0 012.69 1.986c.75.855 1.324 1.869 1.722 3.041.399 1.172.598 2.449.598 3.832v.58c0 1.383-.199 2.66-.598 3.832-.398 1.16-.972 2.168-1.722 3.024a7.796 7.796 0 01-2.672 2.003c-1.043.469-2.203.704-3.481.704-1.289 0-2.455-.235-3.498-.704a7.966 7.966 0 01-2.689-2.003c-.75-.856-1.324-1.864-1.723-3.024-.398-1.172-.597-2.449-.597-3.832zm2.091-.58v.58c0 1.043.141 2.033.422 2.971a8.031 8.031 0 001.231 2.478 5.803 5.803 0 002.004 1.688c.796.41 1.716.615 2.759.615 1.032 0 1.94-.205 2.725-.615a5.803 5.803 0 002.004-1.688 7.76 7.76 0 001.213-2.478c.281-.938.422-1.928.422-2.971v-.58c0-1.031-.141-2.01-.422-2.936a7.564 7.564 0 00-1.231-2.478 5.903 5.903 0 00-2.004-1.723c-.796-.422-1.711-.633-2.742-.633s-1.945.211-2.742.633a6.138 6.138 0 00-2.004 1.723 8.04 8.04 0 00-1.23 2.478 10.44 10.44 0 00-.405 2.936z"/>
      <rect width="350" height="50" x="80" y="662" fill="#C4C4C4" rx="25"/>
      <rect width="350" height="50" x="80" y="722" fill="#C4C4C4" rx="25"/>
      <rect width="350" height="50" x="79" y="782" fill="#C4C4C4" rx="25"/>
    </g>
  </g>
  <defs>
    <clipPath id="clip0_1124_4718">
      <rect width="428" height="926" x="40" y="30" fill="#fff" rx="40"/>
    </clipPath>
    <filter id="filter0_d_1124_4718" width="508" height="1006" x="0" y="0" color-interpolation-filters="sRGB" filterUnits="userSpaceOnUse">
      <feFlood flood-opacity="0" result="BackgroundImageFix"/>
      <feColorMatrix in="SourceAlpha" result="hardAlpha" values="0 0 0 0 0 0 0 0 0 0 0 0 0 0 0 0 0 0 127 0"/>
      <feOffset dy="10"/>
      <feGaussianBlur stdDeviation="20"/>
      <feComposite in2="hardAlpha" operator="out"/>
      <feColorMatrix values="0 0 0 0 0 0 0 0 0 0 0 0 0 0 0 0 0 0 0.1 0"/>
      <feBlend in2="BackgroundImageFix" result="effect1_dropShadow_1124_4718"/>
      <feBlend in="SourceGraphic" in2="effect1_dropShadow_1124_4718" result="shape"/>
    </filter>
  </defs>
</svg>
