<svg xmlns="http://www.w3.org/2000/svg" width="508" height="1006" fill="none" viewBox="0 0 508 1006">
  <g filter="url(#filter0_d_1124_4719)">
    <rect width="428" height="926" x="40" y="30" fill="#fff" rx="40"/>
    <path fill="#444" d="M191.229 253.616v3.24c0 4.128-1.704 8.4-5.448 10.152l1.92 2.568c4.2-2.064 6.12-7.224 6.12-12.72v-3.24h-2.592zm.648 0v3.24c0 5.328 1.752 10.272 5.76 12.312l1.92-2.544c-3.552-1.728-5.136-5.784-5.136-9.768v-3.24h-2.544zm8.568-1.704v22.224h3.216v-22.224h-3.216zm2.496 8.544v2.664h3.936v-2.664h-3.936zm9.886-1.104v4.08h3.192v-4.08h-3.192zm7.824 0v4.08h3.168v-4.08h-3.168zm-12.336 3.096v2.52h20.088v-2.52h-20.088zm10.008 3.648c-4.824 0-7.728 1.44-7.728 4.008 0 2.592 2.904 4.032 7.728 4.032 4.8 0 7.704-1.44 7.704-4.032 0-2.568-2.904-4.008-7.704-4.008zm0 2.4c2.976 0 4.488.504 4.488 1.608 0 1.128-1.512 1.632-4.488 1.632-2.976 0-4.488-.504-4.488-1.632 0-1.104 1.512-1.608 4.488-1.608zm.048-16.272c-4.92 0-8.04 1.632-8.04 4.296 0 2.64 3.12 4.224 8.04 4.224 4.896 0 8.04-1.584 8.04-4.224 0-2.664-3.144-4.296-8.04-4.296zm0 2.448c3.048 0 4.752.6 4.752 1.848 0 1.224-1.704 1.824-4.752 1.824s-4.752-.6-4.752-1.824c0-1.248 1.704-1.848 4.752-1.848zm26.327-2.784v12h3.192v-12h-3.192zm1.92 4.752v2.592h4.224v-2.592h-4.224zm-13.416 8.136v2.304h11.544v1.176H233.25v4.176h3.168v-2.016h11.472v-5.64h-14.688zm.048 6.864v2.352h15.288v-2.352H233.25zm-2.856-18.096v2.4h13.08v-2.4h-13.08zm6.552 2.928c-3.312 0-5.472 1.416-5.472 3.648s2.16 3.6 5.472 3.6c3.288 0 5.448-1.368 5.448-3.6s-2.16-3.648-5.448-3.648zm0 2.232c1.488 0 2.4.48 2.4 1.416 0 .888-.912 1.368-2.4 1.368s-2.4-.48-2.4-1.368c0-.936.912-1.416 2.4-1.416zm-1.608-6.96v3.504h3.192v-3.504h-3.192zm38.35.144v22.296h3.216v-22.296h-3.216zm-8.76 1.56c-3.36 0-5.832 3.072-5.832 7.92 0 4.896 2.472 7.968 5.832 7.968s5.832-3.072 5.832-7.968c0-4.848-2.472-7.92-5.832-7.92zm0 2.904c1.656 0 2.76 1.752 2.76 5.016 0 3.312-1.104 5.088-2.76 5.088-1.656 0-2.784-1.776-2.784-5.088 0-3.264 1.128-5.016 2.784-5.016zm15.598 6.768v2.52h20.136v-2.52h-20.136zm2.472-10.8v2.424h12.072v1.272h-12.048v4.68h3.168v-2.424h12.024v-5.952h-15.216zm.024 7.2v2.424h15.624v-2.424h-15.624zm.048 7.464v6.912h15.264v-6.912H283.07zm12.12 2.496v1.896h-9v-1.896h9zm8.351-15.36v2.52h9.576v-2.52h-9.576zm2.856 6.36v7.536h3.144v-7.536h-3.144zm5.448-6.36v1.8c0 2.136 0 4.704-.576 8.256l3.12.288c.6-3.696.6-6.384.6-8.544v-1.8h-3.144zm5.04-2.208v22.224h3.192v-22.224h-3.192zm2.256 8.928v2.64h3.912v-2.64h-3.912zm-16.44 8.808c3.864 0 8.856-.096 13.344-.864l-.168-2.328c-4.368.552-9.552.624-13.464.624l.288 2.568zm-163.584 32.304v2.616h20.112v-2.616h-20.112zm1.536-15.12v2.544h16.92v-2.544h-16.92zm.096 9.192v2.568h16.752v-2.568h-16.752zm2.928-6.84v7.08h3.192v-7.08h-3.192zm7.704 0v7.08h3.168v-7.08h-3.168zm9.814 12.912v2.592h20.112v-2.592h-20.112zm8.424-4.2v5.256h3.192v-5.256h-3.192zm-6.168-11.544v2.52h12.432v2.376h-12.384v6.24h3.168v-3.744h12.384v-7.392h-15.6zm.048 9.864v2.568h16.056v-2.568h-16.056zm35.062-11.304v11.376h3.216v-11.376h-3.216zm-11.832 12.264v2.448h11.88v1.272h-11.832v4.968h3.144v-2.688h11.856v-6h-15.048zm.048 7.344v2.472h15.6v-2.472h-15.6zm-2.568-18.264v2.448h11.976v-2.448h-11.976zm-.264 9.648c3.84-.024 8.832-.12 13.224-.84l-.168-2.28c-4.296.528-9.48.6-13.368.6l.312 2.52zm2.016-8.544v7.272h3.048v-7.272h-3.048zm5.376 0v7.272h3.096v-7.272h-3.096zm24.046-2.136c-5.088 0-8.04 1.344-8.04 3.792 0 2.448 2.952 3.792 8.04 3.792 5.064 0 8.04-1.344 8.04-3.792 0-2.448-2.976-3.792-8.04-3.792zm0 2.328c3.216 0 4.728.48 4.728 1.464 0 1.032-1.512 1.464-4.728 1.464-3.216 0-4.728-.432-4.728-1.464 0-.984 1.512-1.464 4.728-1.464zm-10.056 6.288v2.52h20.088v-2.52h-20.088zm2.304 3.768v2.376h12.216v1.128h-12.192v4.176h3.144v-1.968h12.192v-5.712h-15.36zm.024 6.984v2.4h15.912v-2.4h-15.912zm37.079-16.44v2.544h5.472v-2.544h-5.472zm4.056-3.24v11.28h3.192v-11.28h-3.192zm-11.496 12.216v2.448h11.52v1.224h-11.472v5.088h3.144v-2.784h11.496v-5.976h-14.688zm.048 7.296v2.472h15.264v-2.472h-15.264zm1.128-18.792v1.584c0 2.832-1.56 5.544-5.256 6.648l1.632 2.52c4.248-1.344 6.216-4.968 6.216-9.168v-1.584h-2.592zm.624 0v1.584c0 3.984 1.896 7.416 5.952 8.736l1.632-2.472c-3.504-1.056-4.992-3.624-4.992-6.264v-1.584h-2.592zm28.414 4.656v2.592h4.224v-2.592h-4.224zm3.36-5.376v13.2h3.192v-13.2h-3.192zm-4.344 13.68c-4.704 0-7.608 1.608-7.608 4.296 0 2.712 2.904 4.272 7.608 4.272s7.608-1.56 7.608-4.272c0-2.688-2.904-4.296-7.608-4.296zm0 2.424c2.904 0 4.44.6 4.44 1.872 0 1.248-1.536 1.848-4.44 1.848-2.88 0-4.416-.6-4.416-1.848 0-1.272 1.536-1.872 4.416-1.872zm-5.928-13.872v1.392c0 2.856-1.584 5.808-5.256 7.056l1.632 2.52c4.248-1.44 6.216-5.328 6.216-9.576v-1.392h-2.592zm.672 0v1.392c0 3.96 1.896 7.656 6.024 9.024l1.56-2.52c-3.504-1.176-5.016-3.888-5.016-6.504v-1.392h-2.568zm-5.064-.888v2.544h11.952v-2.544h-11.952zm21.31 1.992v2.544h10.632v-2.544h-10.632zm5.352 3.528c-2.808 0-4.872 2.184-4.872 5.304 0 3.096 2.064 5.28 4.872 5.28 2.832 0 4.872-2.184 4.872-5.28 0-3.12-2.04-5.304-4.872-5.304zm0 2.664c1.2 0 2.064.96 2.064 2.64 0 1.68-.864 2.616-2.064 2.616-1.2 0-2.04-.936-2.04-2.616 0-1.68.84-2.64 2.04-2.64zm10.728-9.528v22.224h3.048v-22.224h-3.048zm-2.664 9.024v2.568h3.672v-2.568h-3.672zm-1.992-8.616v20.88h2.976v-20.88h-2.976zm-7.632.192v4.344h3.144v-4.344h-3.144zm32.519 1.872v.648c0 2.28-2.352 4.776-7.248 5.376l1.176 2.496c5.64-.768 8.832-3.96 8.832-7.872v-.648h-2.76zm.912 0v.648c0 3.912 3.192 7.104 8.856 7.872l1.152-2.496c-4.896-.6-7.248-3.096-7.248-5.376v-.648h-2.76zM313.993 299v8.16h3.168V299h-3.168zm-8.376-1.824v2.544h20.088v-2.544h-20.088zm1.776-11.136v2.52h16.488v-2.52h-16.488zm29.038 6.336v2.592h3.672v-2.592h-3.672zm-4.752-5.544v3.744c0 3.768-1.152 7.728-4.416 9.744l1.92 2.4c3.552-2.184 4.944-7.104 4.944-12.144v-3.744h-2.448zm.696 0v3.6c0 4.8 1.104 9.6 4.632 11.784l1.728-2.496c-3.024-1.968-3.96-5.664-3.96-9.288v-3.6h-2.4zm11.352-1.92v22.224h3.048v-22.224h-3.048zm-4.512.336v20.88h2.976v-20.88h-2.976zm14.974 10.944v6.24h3.168v-6.24h-3.168zm8.064 0v6.24h3.192v-6.24h-3.192zm-12.48 5.784v2.592h20.112v-2.592h-20.112zm10.032-15.984c-4.8 0-8.304 2.352-8.304 5.976s3.504 5.952 8.304 5.952c4.776 0 8.304-2.328 8.304-5.952s-3.528-5.976-8.304-5.976zm0 2.496c3.096 0 5.16 1.272 5.16 3.48 0 2.184-2.064 3.48-5.16 3.48s-5.16-1.296-5.16-3.48c0-2.208 2.064-3.48 5.16-3.48z"/>
    <path fill="#DCDCDC" d="M368.986 630.781V632h-6.195v-1.047l3.009-3.282c.33-.372.59-.694.781-.965a3.12 3.12 0 00.399-.73 1.85 1.85 0 00.121-.641c0-.292-.055-.548-.165-.768a1.208 1.208 0 00-.47-.527 1.385 1.385 0 00-.755-.197c-.343 0-.631.074-.863.222a1.392 1.392 0 00-.527.616 2.103 2.103 0 00-.178.889h-1.53a3 3 0 01.368-1.473 2.695 2.695 0 011.067-1.066c.465-.267 1.026-.4 1.682-.4.618 0 1.143.104 1.574.311.432.207.76.501.984.882.229.381.343.832.343 1.352 0 .288-.047.574-.14.857a4.031 4.031 0 01-.4.851c-.169.279-.37.56-.603.844-.232.279-.488.563-.768.851l-1.999 2.202h4.265zm5.301-8.023l-3.599 10.035h-1.2l3.605-10.035h1.194zm2.577 4.945l-1.219-.299.501-4.646h4.983v1.295h-3.713l-.254 2.266c.144-.085.343-.167.597-.248.254-.084.544-.127.869-.127.436 0 .826.072 1.168.216.347.14.642.345.883.616.241.266.425.592.552.977.127.381.19.811.19 1.289 0 .427-.063.827-.19 1.2-.123.372-.309.7-.559.984a2.575 2.575 0 01-.945.666c-.377.157-.824.235-1.34.235a3.74 3.74 0 01-1.111-.165 3 3 0 01-.945-.502 2.539 2.539 0 01-.673-.825 2.813 2.813 0 01-.292-1.136h1.498c.038.3.12.557.247.768.132.207.305.366.521.476.216.11.465.165.749.165.258 0 .48-.044.666-.133.187-.093.341-.224.464-.394.127-.173.22-.376.279-.609a2.92 2.92 0 00.095-.774 2.42 2.42 0 00-.108-.743 1.6 1.6 0 00-.311-.584 1.325 1.325 0 00-.514-.381 1.734 1.734 0 00-.717-.14c-.364 0-.643.053-.838.159-.19.106-.368.237-.533.394zm8.633-4.764v1.911c0 1.989-1.417 4.225-3.094 5.044l.624.858c1.833-.936 3.328-3.458 3.328-5.902v-1.911h-.858zm.195 0v1.911c0 2.327 1.417 4.693 3.276 5.616l.611-.858c-1.703-.806-3.029-2.899-3.029-4.758v-1.911h-.858zm-2.873-.481v.91h6.331v-.91h-6.331zm7.722-1.196v11.752h1.092v-11.752h-1.092zm.832 4.745v.91h2.184v-.91h-2.184z"/>
    <path stroke="#F1F1F1" stroke-width="2" d="M114 615h280"/>
    <rect width="140" height="60" x="183" y="821" fill="#C4C4C4" rx="30"/>
    <path fill="#DDD" d="M325 461c0 40.317-32.683 73-73 73v2c41.421 0 75-33.579 75-75h-2zm-73 73c-40.317 0-73-32.683-73-73h-2c0 41.421 33.579 75 75 75v-2zm-73-73c0-40.317 32.683-73 73-73v-2c-41.421 0-75 33.579-75 75h2zm73-73c40.317 0 73 32.683 73 73h2c0-41.421-33.579-75-75-75v2zm-51.515 125.783l52.326-52.326-1.415-1.414-52.326 52.326 1.415 1.414zm52.326-52.326l51.972-51.972-1.414-1.414-51.973 51.972 1.415 1.414zm-53.741-52.326l52.326 52.326 1.415-1.414-52.326-52.326-1.415 1.414zm52.326 52.326l51.973 51.972 1.414-1.414-51.972-51.972-1.415 1.414z"/>
    <g filter="url(#filter1_d_1124_4719)">
      <circle cx="307" cy="507" r="23" fill="#fff"/>
    </g>
    <path fill="#444" d="M318 502.5v11.571c0 1.065-.882 1.929-1.969 1.929h-17.062c-1.087 0-1.969-.864-1.969-1.929V502.5c0-1.065.882-1.929 1.969-1.929h3.609l.505-1.321a1.964 1.964 0 011.841-1.25h5.148c.82 0 1.554.498 1.841 1.25l.509 1.321h3.609c1.087 0 1.969.864 1.969 1.929zm-5.578 5.786c0-2.66-2.207-4.822-4.922-4.822s-4.922 2.162-4.922 4.822 2.207 4.821 4.922 4.821 4.922-2.161 4.922-4.821zm-1.313 0c0 1.948-1.62 3.535-3.609 3.535-1.989 0-3.609-1.587-3.609-3.535 0-1.949 1.62-3.536 3.609-3.536 1.989 0 3.609 1.587 3.609 3.536z"/>
    <path fill="#fff" d="M247.817 841.916v16.722h2.412v-16.722h-2.412zm1.872 6.174v1.962h2.952v-1.962h-2.952zm-11.88 4.554v1.98h1.404c2.898 0 5.184-.072 7.704-.522l-.234-1.98c-2.448.432-4.662.522-7.47.522h-1.404zm0-9.18v10.134h2.376v-8.208h5.4v-1.926h-7.776zm23.453-1.224c-3.672 0-6.03 1.242-6.03 3.258s2.358 3.24 6.03 3.24 6.03-1.224 6.03-3.24-2.358-3.258-6.03-3.258zm0 1.854c2.268 0 3.564.45 3.564 1.404 0 .936-1.296 1.404-3.564 1.404-2.286 0-3.564-.468-3.564-1.404 0-.954 1.278-1.404 3.564-1.404zm-5.796 8.64v5.688h11.52v-5.688h-11.52zm9.18 1.89v1.908h-6.822v-1.908h6.822zm-10.926-4.932v1.89h15.066v-1.89H253.72z"/>
    <circle cx="254" cy="160" r="50" fill="#F1F1F1"/>
    <rect width="211" height="26" x="149" y="331" fill="#F7F7F7" rx="10"/>
  </g>
  <defs>
    <filter id="filter0_d_1124_4719" width="508" height="1006" x="0" y="0" color-interpolation-filters="sRGB" filterUnits="userSpaceOnUse">
      <feFlood flood-opacity="0" result="BackgroundImageFix"/>
      <feColorMatrix in="SourceAlpha" result="hardAlpha" values="0 0 0 0 0 0 0 0 0 0 0 0 0 0 0 0 0 0 127 0"/>
      <feOffset dy="10"/>
      <feGaussianBlur stdDeviation="20"/>
      <feComposite in2="hardAlpha" operator="out"/>
      <feColorMatrix values="0 0 0 0 0 0 0 0 0 0 0 0 0 0 0 0 0 0 0.1 0"/>
      <feBlend in2="BackgroundImageFix" result="effect1_dropShadow_1124_4719"/>
      <feBlend in="SourceGraphic" in2="effect1_dropShadow_1124_4719" result="shape"/>
    </filter>
    <filter id="filter1_d_1124_4719" width="54" height="54" x="280" y="484" color-interpolation-filters="sRGB" filterUnits="userSpaceOnUse">
      <feFlood flood-opacity="0" result="BackgroundImageFix"/>
      <feColorMatrix in="SourceAlpha" result="hardAlpha" values="0 0 0 0 0 0 0 0 0 0 0 0 0 0 0 0 0 0 127 0"/>
      <feOffset dy="4"/>
      <feGaussianBlur stdDeviation="2"/>
      <feComposite in2="hardAlpha" operator="out"/>
      <feColorMatrix values="0 0 0 0 0 0 0 0 0 0 0 0 0 0 0 0 0 0 0.25 0"/>
      <feBlend in2="BackgroundImageFix" result="effect1_dropShadow_1124_4719"/>
      <feBlend in="SourceGraphic" in2="effect1_dropShadow_1124_4719" result="shape"/>
    </filter>
  </defs>
</svg>
