<svg xmlns="http://www.w3.org/2000/svg" width="508" height="1006" fill="none" viewBox="0 0 508 1006">
  <g filter="url(#filter0_d_1124_4728)">
    <g clip-path="url(#clip0_1124_4728)">
      <rect width="428" height="926" x="30" y="40" fill="#fff" rx="40"/>
      <path fill="#353535" d="M59.376 129.192H56.08v-1.568h-2.128v1.568h-3.264v1.648h8.672l.016-1.648zm-5.952 5.008c0-.8.656-1.232 1.6-1.232.928 0 1.6.432 1.6 1.232 0 .816-.672 1.248-1.6 1.248-.944 0-1.6-.432-1.6-1.248zm5.216 0c0-1.664-1.504-2.832-3.616-2.832s-3.616 1.168-3.616 2.832c0 1.696 1.504 2.848 3.616 2.848s3.616-1.152 3.616-2.848zm-3.744 3.648h-2.112v4.272h10.032v-1.68h-7.92v-2.592zm7.392-5.712v-4.496h-2.112v11.024h2.112v-4.784h1.952v-1.744h-1.952zm11.47.368c-1.68.352-3.215.464-5.743.48v-2.928h4.496v-1.648h-6.592v6.24h1.232c3.136 0 4.912-.08 6.816-.496l-.208-1.648zm-4.367 7.12h7.616v-4.064h-9.728v1.664h7.648v.864h-7.632v4.112h10.128v-1.648H69.39v-.928zm7.616-9.2v-2.8h-2.112v7.328h2.112v-2.816h1.952v-1.712h-1.952zm10.575-.032h6.352v3.904h-6.352v-3.904zm4.24 8.56v-2.992h4.176v-7.232h-10.48v7.232h4.192v2.992h-5.6v1.712h13.344v-1.712h-5.632zm10.959-1.68c-1.104 0-1.84-1.168-1.84-3.36 0-2.176.736-3.344 1.84-3.344 1.088 0 1.84 1.168 1.84 3.344 0 2.192-.752 3.36-1.84 3.36zm0-8.608c-2.24 0-3.872 2.016-3.872 5.248 0 3.248 1.632 5.28 3.872 5.28 2.224 0 3.872-2.032 3.872-5.28 0-3.232-1.648-5.248-3.872-5.248zm9.728 4.528h-2.144v-5.552h-2.112v14.736h2.112v-7.44h2.144v-1.744zm4.542-.688h6.304v2.064h-6.304v-2.064zm4.208 6.448v-2.704h4.176v-7.696h-2.08v2.288h-6.304v-2.288h-2.096v7.696h4.192v2.704h-5.6v1.712h13.344v-1.712h-5.632zm7.823-9.792v1.68h4.912c-.304 3.264-1.936 5.568-5.696 7.376l1.104 1.664c5.232-2.528 6.752-6.208 6.752-10.72h-7.072zm9.328-1.536v14.736h2.128v-14.736h-2.128z"/>
      <path fill="#A3A3A3" d="M60.168 165.913V168h-9.24v-1.781l4.37-4.685c.438-.489.785-.919 1.038-1.29.254-.377.437-.714.548-1.011a2.39 2.39 0 00.176-.863c0-.408-.068-.758-.204-1.048a1.522 1.522 0 00-.603-.687c-.26-.161-.581-.241-.965-.241-.408 0-.76.099-1.057.297-.291.198-.514.473-.669.826a3.054 3.054 0 00-.222 1.196h-2.681c0-.804.191-1.54.575-2.208a4.22 4.22 0 011.623-1.605c.7-.402 1.528-.603 2.487-.603.946 0 1.744.155 2.393.464.656.303 1.15.742 1.485 1.318.34.569.51 1.249.51 2.041 0 .445-.071.881-.213 1.308-.143.42-.347.841-.613 1.261-.26.415-.575.835-.946 1.262-.371.427-.782.869-1.234 1.327l-2.347 2.635h5.789zm10.762-5.854v2.337c0 1.015-.109 1.89-.325 2.626-.217.73-.529 1.33-.937 1.8a3.7 3.7 0 01-1.438 1.03 4.968 4.968 0 01-1.856.334 5.416 5.416 0 01-1.521-.205 3.821 3.821 0 01-1.271-.658 4.18 4.18 0 01-.965-1.123c-.266-.457-.47-1.002-.612-1.633-.142-.63-.214-1.354-.214-2.171v-2.337c0-1.015.109-1.884.325-2.607.223-.73.535-1.327.937-1.791.408-.464.89-.804 1.448-1.02a4.948 4.948 0 011.855-.334c.544 0 1.048.071 1.512.213.47.136.894.349 1.271.64.377.291.7.665.965 1.123.266.451.47.992.612 1.623.143.625.214 1.342.214 2.153zm-2.681 2.69v-3.052c0-.489-.028-.916-.084-1.28a3.75 3.75 0 00-.232-.928 1.959 1.959 0 00-.39-.631 1.428 1.428 0 00-.528-.353 1.868 1.868 0 00-.659-.111c-.303 0-.572.059-.807.176a1.503 1.503 0 00-.585.566c-.16.254-.284.594-.37 1.021-.081.42-.121.934-.121 1.54v3.052c0 .489.024.918.074 1.29.056.371.136.689.241.955.111.26.241.473.39.64.154.161.33.279.529.353.204.074.426.111.668.111.296 0 .56-.059.788-.176.235-.124.433-.316.594-.575.167-.266.29-.613.37-1.039.081-.427.122-.947.122-1.559zm13.74 3.164V168h-9.241v-1.781l4.37-4.685c.439-.489.785-.919 1.039-1.29.253-.377.436-.714.547-1.011a2.39 2.39 0 00.176-.863c0-.408-.068-.758-.204-1.048a1.522 1.522 0 00-.603-.687c-.26-.161-.581-.241-.965-.241-.408 0-.76.099-1.057.297-.29.198-.514.473-.668.826a3.054 3.054 0 00-.223 1.196H72.48c0-.804.192-1.54.575-2.208a4.22 4.22 0 011.624-1.605c.699-.402 1.527-.603 2.486-.603.946 0 1.744.155 2.394.464.655.303 1.15.742 1.484 1.318.34.569.51 1.249.51 2.041 0 .445-.07.881-.213 1.308-.142.42-.346.841-.612 1.261-.26.415-.576.835-.947 1.262-.37.427-.782.869-1.234 1.327l-2.347 2.635h5.79zm10.91 0V168h-9.24v-1.781l4.369-4.685c.439-.489.785-.919 1.039-1.29.254-.377.436-.714.547-1.011a2.39 2.39 0 00.176-.863c0-.408-.068-.758-.204-1.048a1.522 1.522 0 00-.603-.687c-.26-.161-.581-.241-.964-.241-.409 0-.761.099-1.058.297-.29.198-.513.473-.668.826a3.052 3.052 0 00-.223 1.196h-2.68c0-.804.19-1.54.574-2.208a4.22 4.22 0 011.624-1.605c.699-.402 1.528-.603 2.486-.603.947 0 1.744.155 2.394.464.655.303 1.15.742 1.484 1.318.34.569.51 1.249.51 2.041 0 .445-.07.881-.213 1.308-.142.42-.346.841-.612 1.261-.26.415-.576.835-.947 1.262-.37.427-.782.869-1.233 1.327l-2.348 2.635h5.79zm13.7-13.816v12.939h2.527v-12.939h-2.527zm-4.256 1.957v1.976h5.111v-1.976h-5.111zm-4.845 13.319v2.014h12.027v-2.014H97.498zm0-3.496v4.522h2.546v-4.522h-2.546zm-2.128-10.659v8.265h2.508v-8.265H95.37zm0 7.505v2.052h1.406c2.64 0 4.959-.095 7.543-.57l-.228-2.033c-2.508.437-4.77.551-7.315.551H95.37zm6.973-3.401v1.995h5.111v-1.995h-5.111zm20.948-2.858V168h-2.672v-10.456l-3.21 1.021v-2.106l5.594-1.995h.288zm8.486 4.777v3.059h2.527v-3.059h-2.527zm8.037-7.144v10.184h2.527v-10.184h-2.527zm-12.008 7.923c3.287.019 7.296-.019 11.115-.551l-.133-1.558c-3.705.361-7.866.361-11.248.361l.266 1.748zm2.223 2.793v1.71h9.804v.836h-9.766v2.964h2.489v-1.387h9.785v-4.123h-12.312zm.038 5.035v1.729h12.673v-1.729h-12.673zm6.631-7.6v1.501h3.895v-1.501h-3.895zm-3.572-7.904c-2.641 0-4.408 1.045-4.408 2.641 0 1.615 1.767 2.641 4.408 2.641 2.622 0 4.389-1.026 4.389-2.641 0-1.596-1.767-2.641-4.389-2.641zm0 1.653c1.254 0 2.033.342 2.033.988 0 .646-.779.969-2.033.969-1.273 0-2.052-.323-2.052-.969 0-.646.779-.988 2.052-.988z"/>
      <path fill="#626262" d="M355.271 240.422V249h-1.083v-7.225l-2.186.797v-.978l3.1-1.172h.169zM412.299 248.109V249h-5.584v-.779l2.795-3.112c.344-.382.609-.707.797-.972.191-.27.324-.51.398-.721.078-.215.117-.434.117-.656 0-.281-.058-.535-.176-.762a1.322 1.322 0 00-.503-.551 1.526 1.526 0 00-.809-.205c-.379 0-.695.074-.949.223-.25.144-.438.347-.563.609a2.073 2.073 0 00-.187.903h-1.084c0-.481.105-.92.316-1.319.211-.398.524-.715.938-.949.414-.238.924-.357 1.529-.357.539 0 1 .095 1.383.287.383.187.676.453.879.797.207.339.31.738.31 1.195a2.4 2.4 0 01-.129.762 3.907 3.907 0 01-.345.761 5.988 5.988 0 01-.51.75c-.192.246-.397.489-.615.727l-2.286 2.478h4.278z"/>
      <path fill="#A8A8A8" d="M132.748 218.532v1.8h1.596v-1.8h-1.596zm4.668-6.576v11.112h1.608v-11.112h-1.608zm1.044 4.512v1.32h1.956v-1.32h-1.956zm-8.208 4.752c1.872 0 4.392 0 6.732-.456l-.12-1.152c-2.244.312-4.884.324-6.804.324l.192 1.284zm.012-8.04v1.248h6.54v-1.248h-6.54zm3.288 1.692c-1.596 0-2.712.84-2.712 2.076 0 1.248 1.116 2.088 2.712 2.088 1.584 0 2.712-.84 2.712-2.088 0-1.236-1.128-2.076-2.712-2.076zm0 1.2c.72 0 1.2.312 1.2.876 0 .576-.48.888-1.2.888-.732 0-1.2-.312-1.2-.888 0-.564.468-.876 1.2-.876zm-.804-4.056v2.1h1.596v-2.1h-1.596z"/>
      <path fill="#626262" d="M76.504 216.576v1.932h.996v-1.932h-.996zm4.98-4.488v6.384h.996v-6.384h-.996zm-7.8 4.824c2.028 0 4.62-.024 6.996-.372l-.06-.648c-2.316.264-4.968.276-7.056.276l.12.744zm1.524 1.956v.72h6.288v.876h-6.264v1.884h.972v-1.224h6.276v-2.256h-7.272zm.024 3.228v.72h7.608v-.72h-7.608zm4.092-4.848v.648h2.472v-.648h-2.472zm-2.256-4.956c-1.62 0-2.676.624-2.676 1.632s1.056 1.632 2.676 1.632c1.608 0 2.664-.624 2.664-1.632s-1.056-1.632-2.664-1.632zm0 .696c1.044 0 1.728.36 1.728.936 0 .576-.684.936-1.728.936-1.068 0-1.752-.36-1.752-.936 0-.576.684-.936 1.752-.936zM188.98 212.472v.6c0 1.548-1.908 2.844-3.888 3.144l.396.804c2.256-.384 4.368-1.872 4.368-3.948v-.6h-.876zm.18 0v.6c0 2.052 2.124 3.564 4.356 3.948l.396-.804c-1.956-.3-3.888-1.632-3.888-3.144v-.6h-.864zm-.18 6.336v4.128h.984v-4.128h-.984zm-4.38-.612v.828h9.804v-.828H184.6zM240.848 212.532v3.696h7.296v-3.696h-7.296zm6.312.804v2.088h-5.34v-2.088h5.34zm-7.572 4.248v.804h9.804v-.804h-9.804zm4.416-1.572v1.872h.984v-1.872h-.984zm-3.324 3.492v.816h6.504v2.616h.996v-3.432h-7.5zM296.848 212.652v.816h6.984v-.816h-6.984zm-1.248 3.996v.816h9.828v-.816H295.6zm7.584-3.996v.804c0 .9 0 1.944-.36 3.432l.972.048c.36-1.5.36-2.556.36-3.48v-.804h-.972zm-6.384 6.288v3.852h7.392v-3.852H296.8zm6.42.792v2.256h-5.448v-2.256h5.448zM350.86 217.716v.804h7.452v-.804h-7.452zm-1.26 3.048v.828h9.828v-.828H349.6zm4.404-2.628v3.012h.984v-3.012h-.984zm-3.144-5.172v5.052h1.008v-4.236h6.324v-.816h-7.332zm.684 2.328v.804h6.42v-.804h-6.42zM407.636 212.484c-1.608 0-2.796.984-2.796 2.412 0 1.416 1.188 2.4 2.796 2.4 1.62 0 2.808-.984 2.808-2.4 0-1.428-1.188-2.412-2.808-2.412zm0 .816c1.056 0 1.836.66 1.836 1.596s-.78 1.584-1.836 1.584c-1.044 0-1.836-.648-1.836-1.584s.792-1.596 1.836-1.596zm4.848-1.212v5.556h1.008v-5.556h-1.008zm-6.012 6.084v.804h6.036v1.092h-6.012v2.376h.972v-1.632h6.024v-2.64h-7.02zm.024 3.828v.792h7.356V222h-7.356z"/>
      <path fill="#686868" d="M74.291 622.201h.773c.38 0 .692-.062.938-.187a1.29 1.29 0 00.557-.522c.125-.222.187-.472.187-.75 0-.328-.055-.603-.164-.826a1.095 1.095 0 00-.492-.504c-.219-.113-.496-.17-.832-.17-.305 0-.574.061-.809.182-.23.117-.412.285-.545.504a1.492 1.492 0 00-.193.773h-1.084c0-.433.11-.828.328-1.183.219-.356.526-.639.92-.85.398-.211.86-.316 1.383-.316.515 0 .967.091 1.353.275.387.18.688.449.903.809.215.355.322.798.322 1.33 0 .214-.05.445-.152.691a2.05 2.05 0 01-.463.68 2.393 2.393 0 01-.809.521c-.332.133-.73.199-1.195.199h-.926v-.656zm0 .891v-.651h.926c.543 0 .992.065 1.347.194.356.129.635.301.838.515.207.215.352.452.434.709.086.254.129.508.129.762 0 .399-.069.752-.205 1.061-.133.308-.323.57-.569.785a2.421 2.421 0 01-.855.486 3.382 3.382 0 01-1.072.164c-.371 0-.721-.053-1.05-.158a2.711 2.711 0 01-.86-.457 2.137 2.137 0 01-.586-.744 2.342 2.342 0 01-.211-1.014h1.084c0 .297.064.557.193.779.133.223.32.397.563.522.246.121.535.182.867.182.332 0 .617-.057.855-.17.242-.118.428-.293.557-.528.133-.234.199-.529.199-.884 0-.356-.074-.647-.223-.874-.148-.23-.359-.4-.633-.509a2.44 2.44 0 00-.955-.17h-.773zm8.13-4.67V627h-1.084v-7.225l-2.185.797v-.978l3.1-1.172h.17z"/>
      <path fill="#626262" d="M351.271 392.422V401h-1.083v-7.225l-2.186.797v-.978l3.1-1.172h.169zm3.959 4.517l-.867-.222.428-4.248h4.377v1.002h-3.457l-.258 2.32c.156-.09.353-.174.592-.252a2.71 2.71 0 01.832-.117c.394 0 .748.068 1.06.205.313.133.578.324.797.574.223.25.393.551.51.903.117.351.176.744.176 1.177 0 .41-.057.787-.17 1.131-.11.344-.276.645-.498.902a2.236 2.236 0 01-.844.592c-.336.141-.733.211-1.19.211a3.37 3.37 0 01-.978-.14 2.526 2.526 0 01-.82-.44 2.362 2.362 0 01-.586-.738 2.954 2.954 0 01-.282-1.043h1.032c.046.32.14.59.281.808.14.219.324.385.551.498.23.11.498.165.802.165.258 0 .487-.045.686-.135a1.37 1.37 0 00.504-.387c.137-.168.24-.371.31-.609.075-.239.112-.506.112-.803 0-.27-.037-.52-.112-.75a1.703 1.703 0 00-.334-.604 1.468 1.468 0 00-.533-.398 1.705 1.705 0 00-.726-.146c-.364 0-.639.048-.827.146-.183.098-.373.23-.568.398z"/>
      <path fill="#686868" d="M76.272 392.422V401h-1.085v-7.225l-2.185.797v-.978l3.1-1.172h.17zm7.942 3.633v1.3c0 .7-.062 1.29-.187 1.77s-.305.867-.54 1.16a2.054 2.054 0 01-.849.639c-.328.129-.699.193-1.113.193-.328 0-.63-.041-.908-.123a2.167 2.167 0 01-.75-.392 2.384 2.384 0 01-.563-.715 3.837 3.837 0 01-.357-1.067 7.678 7.678 0 01-.123-1.465v-1.3c0-.7.062-1.285.187-1.758.13-.473.31-.852.545-1.137.235-.289.516-.496.844-.621a3.14 3.14 0 011.113-.187c.332 0 .637.041.914.123.282.078.532.205.75.38.22.172.405.403.557.692.156.285.275.635.357 1.049.082.414.124.9.124 1.459zm-1.09 1.476v-1.658c0-.383-.023-.719-.07-1.008a3.165 3.165 0 00-.193-.75 1.485 1.485 0 00-.328-.504 1.162 1.162 0 00-.451-.281 1.632 1.632 0 00-.569-.094c-.258 0-.486.049-.685.147-.2.094-.368.244-.504.451-.133.207-.234.478-.305.814a6.09 6.09 0 00-.105 1.225v1.658c0 .383.021.721.064 1.014.047.293.115.547.205.762.09.211.2.384.328.521.13.137.278.238.446.305.172.062.361.094.568.094.266 0 .498-.051.697-.153.2-.101.366-.26.498-.474.137-.219.239-.498.305-.838.066-.344.1-.754.1-1.231zM406.271 392.422V401h-1.083v-7.225l-2.186.797v-.978l3.1-1.172h.169zm6.748.035h.094v.92h-.094c-.574 0-1.055.094-1.441.281a2.36 2.36 0 00-.92.744 3.047 3.047 0 00-.492 1.043c-.098.387-.147.78-.147 1.178v1.254c0 .379.045.715.135 1.008.09.289.213.533.369.732.156.199.332.35.527.451.2.102.407.153.621.153.25 0 .473-.047.668-.141.196-.098.36-.232.493-.404.136-.176.24-.383.31-.621.071-.239.106-.5.106-.785 0-.254-.032-.499-.094-.733a1.968 1.968 0 00-.287-.633 1.375 1.375 0 00-1.172-.603c-.301 0-.582.074-.844.222a1.905 1.905 0 00-.638.575 1.54 1.54 0 00-.282.767l-.574-.006c.055-.437.156-.81.305-1.119a2.39 2.39 0 01.562-.761c.227-.2.479-.344.756-.434a2.79 2.79 0 01.891-.141c.425 0 .793.08 1.101.241.309.16.563.375.762.644.199.266.346.566.439.902.098.332.147.674.147 1.026 0 .402-.057.779-.17 1.131-.113.351-.283.66-.51.925a2.296 2.296 0 01-.826.622 2.755 2.755 0 01-1.143.222c-.46 0-.863-.094-1.207-.281a2.585 2.585 0 01-.855-.762 3.481 3.481 0 01-.51-1.054 4.185 4.185 0 01-.17-1.178v-.51c0-.602.061-1.191.182-1.77a4.71 4.71 0 01.627-1.57 3.213 3.213 0 011.248-1.119c.531-.277 1.209-.416 2.033-.416zM131.271 392.422V401h-1.083v-7.225l-2.186.797v-.978l3.1-1.172h.169zm6.15 0V401h-1.083v-7.225l-2.186.797v-.978l3.1-1.172h.169zM186.271 392.422V401h-1.083v-7.225l-2.186.797v-.978l3.1-1.172h.169zm8.178 7.687V401h-5.584v-.779l2.795-3.112c.344-.382.609-.707.797-.972.191-.27.324-.51.398-.721.078-.215.117-.434.117-.656 0-.281-.058-.535-.176-.762a1.322 1.322 0 00-.503-.551 1.526 1.526 0 00-.809-.205c-.379 0-.695.074-.949.223-.25.144-.438.347-.563.609a2.073 2.073 0 00-.187.903h-1.084c0-.481.105-.92.316-1.319.211-.398.524-.715.938-.949.414-.238.924-.357 1.529-.357.539 0 1 .095 1.383.287.383.187.676.453.879.797.207.339.31.738.31 1.195a2.4 2.4 0 01-.129.762 3.907 3.907 0 01-.345.761 5.988 5.988 0 01-.51.75c-.192.246-.397.489-.615.727l-2.286 2.478h4.278zM241.271 392.422V401h-1.083v-7.225l-2.186.797v-.978l3.1-1.172h.169zm4.17 3.779h.773c.379 0 .692-.062.938-.187a1.29 1.29 0 00.557-.522c.125-.222.187-.472.187-.75 0-.328-.055-.603-.164-.826a1.092 1.092 0 00-.492-.504c-.219-.113-.496-.17-.832-.17a1.74 1.74 0 00-.809.182c-.23.117-.412.285-.545.504a1.49 1.49 0 00-.193.773h-1.084c0-.433.109-.828.328-1.183.219-.356.525-.639.92-.85.398-.211.859-.316 1.383-.316.515 0 .967.091 1.353.275.387.18.688.449.903.809.215.355.322.798.322 1.33 0 .214-.051.445-.152.691a2.053 2.053 0 01-.463.68 2.394 2.394 0 01-.809.521c-.332.133-.73.199-1.195.199h-.926v-.656zm0 .891v-.651h.926c.543 0 .992.065 1.347.194.356.129.635.301.838.515.207.215.352.452.434.709.086.254.129.508.129.762 0 .399-.069.752-.205 1.061a2.16 2.16 0 01-.569.785 2.419 2.419 0 01-.855.486 3.384 3.384 0 01-1.072.164c-.371 0-.721-.053-1.049-.158a2.712 2.712 0 01-.861-.457 2.13 2.13 0 01-.586-.744 2.337 2.337 0 01-.211-1.014h1.084c0 .297.064.557.193.779.133.223.32.397.562.522.247.121.536.182.868.182.332 0 .617-.057.855-.17.242-.118.428-.293.557-.528.133-.234.199-.529.199-.884 0-.356-.074-.647-.223-.874-.148-.23-.359-.4-.632-.509a2.445 2.445 0 00-.956-.17h-.773zM296.271 392.422V401h-1.083v-7.225l-2.186.797v-.978l3.1-1.172h.169zm8.354 5.707v.891h-6.164v-.639l3.82-5.912h.885l-.95 1.711-2.525 3.949h4.934zm-1.19-5.66V401h-1.084v-8.531h1.084z"/>
      <g>
        <path fill="#626262" d="M298.299 475.109V476h-5.584v-.779l2.795-3.112c.344-.382.609-.707.797-.972.191-.27.324-.51.398-.721.078-.215.117-.434.117-.656 0-.281-.058-.535-.176-.762a1.322 1.322 0 00-.503-.551 1.526 1.526 0 00-.809-.205c-.379 0-.695.074-.949.223-.25.144-.438.347-.563.609a2.073 2.073 0 00-.187.903h-1.084c0-.481.105-.92.316-1.319.211-.398.524-.715.938-.949.414-.238.924-.357 1.529-.357.539 0 1 .095 1.383.287.383.187.676.453.879.797.207.339.31.738.31 1.195a2.4 2.4 0 01-.129.762 3.907 3.907 0 01-.345.761 5.988 5.988 0 01-.51.75c-.192.246-.397.489-.615.727l-2.286 2.478h4.278zm4.122-7.687V476h-1.083v-7.225l-2.186.797v-.978l3.1-1.172h.169z"/>
        <path fill="#686868" d="M353.299 475.109V476h-5.584v-.779l2.795-3.112c.344-.382.609-.707.797-.972.191-.27.324-.51.398-.721.078-.215.117-.434.117-.656 0-.281-.058-.535-.176-.762a1.322 1.322 0 00-.503-.551 1.526 1.526 0 00-.809-.205c-.379 0-.695.074-.949.223-.25.144-.438.347-.563.609a2.073 2.073 0 00-.187.903h-1.084c0-.481.105-.92.316-1.319.211-.398.524-.715.938-.949.414-.238.924-.357 1.529-.357.539 0 1 .095 1.383.287.383.187.676.453.879.797.207.339.31.738.31 1.195a2.4 2.4 0 01-.129.762 3.907 3.907 0 01-.345.761 5.988 5.988 0 01-.51.75c-.192.246-.397.489-.615.727l-2.286 2.478h4.278zm6.15 0V476h-5.584v-.779l2.795-3.112c.344-.382.609-.707.797-.972.191-.27.324-.51.398-.721.078-.215.117-.434.117-.656 0-.281-.058-.535-.176-.762a1.322 1.322 0 00-.503-.551 1.526 1.526 0 00-.809-.205c-.379 0-.695.074-.949.223-.25.144-.438.347-.563.609a2.073 2.073 0 00-.187.903h-1.084c0-.481.105-.92.316-1.319.211-.398.524-.715.938-.949.414-.238.924-.357 1.529-.357.539 0 1 .095 1.383.287.383.187.676.453.879.797.207.339.31.738.31 1.195a2.4 2.4 0 01-.129.762 3.907 3.907 0 01-.345.761 5.988 5.988 0 01-.51.75c-.192.246-.397.489-.615.727l-2.286 2.478h4.278zM76.272 467.422V476h-1.085v-7.225l-2.185.797v-.978l3.1-1.172h.17zm8.1.047v.609L80.84 476h-1.143l3.527-7.641h-4.617v-.89h5.766zM408.299 475.109V476h-5.584v-.779l2.795-3.112c.344-.382.609-.707.797-.972.191-.27.324-.51.398-.721.078-.215.117-.434.117-.656 0-.281-.058-.535-.176-.762a1.322 1.322 0 00-.503-.551 1.526 1.526 0 00-.809-.205c-.379 0-.695.074-.949.223-.25.144-.438.347-.563.609a2.073 2.073 0 00-.187.903h-1.084c0-.481.105-.92.316-1.319.211-.398.524-.715.938-.949.414-.238.924-.357 1.529-.357.539 0 1 .095 1.383.287.383.187.676.453.879.797.207.339.31.738.31 1.195a2.4 2.4 0 01-.129.762 3.907 3.907 0 01-.345.761 5.988 5.988 0 01-.51.75c-.192.246-.397.489-.615.727l-2.286 2.478h4.278zm2.142-3.908h.773c.379 0 .692-.062.938-.187a1.29 1.29 0 00.557-.522c.125-.222.187-.472.187-.75 0-.328-.055-.603-.164-.826a1.092 1.092 0 00-.492-.504c-.219-.113-.496-.17-.832-.17a1.74 1.74 0 00-.809.182c-.23.117-.412.285-.545.504a1.49 1.49 0 00-.193.773h-1.084c0-.433.109-.828.328-1.183.219-.356.525-.639.92-.85.398-.211.859-.316 1.383-.316.515 0 .967.091 1.353.275.387.18.688.449.903.809.215.355.322.798.322 1.33 0 .214-.051.445-.152.691a2.053 2.053 0 01-.463.68 2.394 2.394 0 01-.809.521c-.332.133-.73.199-1.195.199h-.926v-.656zm0 .891v-.651h.926c.543 0 .992.065 1.347.194.356.129.635.301.838.515.207.215.352.452.434.709.086.254.129.508.129.762 0 .399-.069.752-.205 1.061a2.16 2.16 0 01-.569.785 2.419 2.419 0 01-.855.486 3.384 3.384 0 01-1.072.164c-.371 0-.721-.053-1.049-.158a2.712 2.712 0 01-.861-.457 2.13 2.13 0 01-.586-.744 2.337 2.337 0 01-.211-1.014h1.084c0 .297.064.557.193.779.133.223.32.397.562.522.247.121.536.182.868.182.332 0 .617-.057.855-.17.242-.118.428-.293.557-.528.133-.234.199-.529.199-.884 0-.356-.074-.647-.223-.874-.148-.23-.359-.4-.632-.509a2.445 2.445 0 00-.956-.17h-.773zM131.271 467.422V476h-1.083v-7.225l-2.186.797v-.978l3.1-1.172h.169zm7.967 6.269c0 .52-.121.961-.363 1.325a2.285 2.285 0 01-.973.82 3.255 3.255 0 01-1.377.281c-.512 0-.973-.094-1.383-.281a2.276 2.276 0 01-.972-.82c-.239-.364-.358-.805-.358-1.325 0-.339.065-.65.193-.931.133-.285.319-.533.557-.744.242-.211.527-.373.856-.487a3.275 3.275 0 011.095-.175c.524 0 .991.101 1.401.304.41.199.732.475.966.826.239.352.358.754.358 1.207zm-1.09-.023c0-.316-.068-.596-.205-.838a1.454 1.454 0 00-.574-.574 1.73 1.73 0 00-.856-.205 1.72 1.72 0 00-.861.205 1.438 1.438 0 00-.557.574 1.724 1.724 0 00-.199.838c0 .328.065.609.193.844.133.23.321.408.563.533.246.121.537.182.873.182.336 0 .625-.061.867-.182.242-.125.428-.303.557-.533.133-.235.199-.516.199-.844zm.891-3.979c0 .415-.11.788-.328 1.12a2.286 2.286 0 01-.897.785 2.826 2.826 0 01-1.289.287 2.89 2.89 0 01-1.307-.287 2.238 2.238 0 01-.89-.785 2.016 2.016 0 01-.323-1.12c0-.496.108-.918.323-1.265.218-.348.517-.613.896-.797a2.93 2.93 0 011.295-.275c.488 0 .922.091 1.301.275a2.1 2.1 0 01.891.797c.218.347.328.769.328 1.265zm-1.084.018c0-.285-.061-.537-.182-.756a1.327 1.327 0 00-.504-.515 1.43 1.43 0 00-.75-.194c-.285 0-.535.061-.75.182a1.258 1.258 0 00-.498.504 1.626 1.626 0 00-.176.779c0 .293.059.549.176.768.121.218.289.388.504.509.215.121.465.182.75.182s.533-.061.744-.182c.215-.121.383-.291.504-.509.121-.219.182-.475.182-.768zM186.271 467.422V476h-1.083v-7.225l-2.186.797v-.978l3.1-1.172h.169zm3.666 7.67h.111c.625 0 1.133-.088 1.524-.264.391-.176.691-.412.902-.709.211-.297.356-.631.434-1.002.078-.375.117-.76.117-1.154v-1.307c0-.386-.045-.73-.135-1.031a2.236 2.236 0 00-.363-.756 1.612 1.612 0 00-.522-.463 1.291 1.291 0 00-.621-.158c-.25 0-.474.051-.673.152a1.414 1.414 0 00-.498.416 1.98 1.98 0 00-.305.633c-.07.242-.106.506-.106.791 0 .254.032.5.094.739a2.1 2.1 0 00.287.644c.129.191.289.344.481.457.195.109.424.164.685.164.242 0 .469-.047.68-.14a1.974 1.974 0 001.142-1.624h.516c0 .325-.064.645-.193.961a2.936 2.936 0 01-.528.856 2.67 2.67 0 01-.796.621 2.203 2.203 0 01-.997.228c-.421 0-.787-.082-1.095-.246a2.201 2.201 0 01-.762-.656 2.986 2.986 0 01-.439-.914 3.854 3.854 0 01-.141-1.031c0-.406.057-.787.17-1.143.113-.355.281-.668.504-.937.222-.274.498-.487.826-.639a2.732 2.732 0 011.148-.228c.489 0 .905.097 1.248.293.344.195.623.457.838.785.219.328.379.697.481 1.107.101.41.152.832.152 1.266v.392c0 .442-.029.891-.088 1.348a5.354 5.354 0 01-.322 1.301 3.412 3.412 0 01-.686 1.113c-.3.324-.693.582-1.177.773-.481.188-1.075.282-1.782.282h-.111v-.92zM243.299 475.109V476h-5.584v-.779l2.795-3.112c.344-.382.609-.707.797-.972.191-.27.324-.51.398-.721.078-.215.117-.434.117-.656 0-.281-.058-.535-.176-.762a1.322 1.322 0 00-.503-.551 1.526 1.526 0 00-.809-.205c-.379 0-.695.074-.949.223-.25.144-.438.347-.563.609a2.073 2.073 0 00-.187.903h-1.084c0-.481.105-.92.316-1.319.211-.398.524-.715.938-.949.414-.238.924-.357 1.529-.357.539 0 1 .095 1.383.287.383.187.676.453.879.797.207.339.31.738.31 1.195a2.4 2.4 0 01-.129.762 3.907 3.907 0 01-.345.761 5.988 5.988 0 01-.51.75c-.192.246-.397.489-.615.727l-2.286 2.478h4.278zm5.915-4.054v1.3c0 .7-.062 1.29-.187 1.77s-.305.867-.539 1.16a2.053 2.053 0 01-.85.639 3.021 3.021 0 01-1.113.193 3.19 3.19 0 01-.908-.123 2.154 2.154 0 01-.75-.392 2.395 2.395 0 01-.563-.715 3.847 3.847 0 01-.357-1.067 7.686 7.686 0 01-.123-1.465v-1.3c0-.7.062-1.285.187-1.758.129-.473.311-.852.545-1.137a1.99 1.99 0 01.844-.621 3.139 3.139 0 011.113-.187c.332 0 .637.041.914.123.282.078.532.205.75.38.219.172.405.403.557.692.156.285.275.635.357 1.049.082.414.123.9.123 1.459zm-1.089 1.476v-1.658c0-.383-.024-.719-.071-1.008a3.166 3.166 0 00-.193-.75 1.483 1.483 0 00-.328-.504 1.161 1.161 0 00-.451-.281 1.636 1.636 0 00-.569-.094 1.53 1.53 0 00-.685.147 1.237 1.237 0 00-.504.451c-.133.207-.235.478-.305.814-.07.336-.105.745-.105 1.225v1.658c0 .383.021.721.064 1.014.047.293.115.547.205.762.09.211.199.384.328.521s.278.238.446.305c.172.062.361.094.568.094.266 0 .498-.051.697-.153.199-.101.366-.26.498-.474.137-.219.239-.498.305-.838.066-.344.1-.754.1-1.231z"/>
      </g>
      <g>
        <path fill="#686868" d="M78.299 550.109V551h-5.584v-.779l2.795-3.112c.343-.382.61-.707.797-.972.191-.27.324-.51.398-.721a1.91 1.91 0 00.117-.656c0-.281-.058-.535-.175-.762a1.323 1.323 0 00-.504-.551 1.523 1.523 0 00-.809-.205c-.379 0-.695.074-.95.223-.25.144-.437.347-.562.609a2.073 2.073 0 00-.187.903H72.55c0-.481.105-.92.316-1.319.211-.398.524-.715.938-.949.414-.238.923-.357 1.529-.357.539 0 1 .095 1.383.287.383.187.676.453.879.797.207.339.31.738.31 1.195a2.4 2.4 0 01-.129.762 3.882 3.882 0 01-.345.761 5.9 5.9 0 01-.51.75c-.191.246-.397.489-.615.727l-2.285 2.478h4.277zm6.326-1.98v.891H78.46v-.639l3.82-5.912h.886l-.95 1.711-2.525 3.949h4.934zm-1.19-5.66V551h-1.084v-8.531h1.084z"/>
        <path fill="#A8A8A8" d="M133.422 549.682V551h-5.836v-1.125l2.76-2.959c.277-.309.496-.58.656-.814.16-.239.275-.452.346-.639.074-.192.111-.373.111-.545 0-.258-.043-.479-.129-.662a.961.961 0 00-.381-.434 1.141 1.141 0 00-.609-.152c-.258 0-.481.062-.668.187a1.192 1.192 0 00-.422.522 1.93 1.93 0 00-.141.756h-1.693c0-.508.121-.973.363-1.395a2.657 2.657 0 011.026-1.013c.441-.254.965-.381 1.57-.381.598 0 1.102.097 1.512.293.414.191.726.468.937.832.215.359.322.789.322 1.289 0 .281-.044.556-.134.826a3.74 3.74 0 01-.387.797 6.367 6.367 0 01-.598.797c-.234.269-.494.549-.779.838l-1.482 1.664h3.656zm2.042-2.567l-1.347-.322.486-4.324h4.793v1.365h-3.404l-.211 1.893c.113-.067.285-.137.515-.211a2.41 2.41 0 01.774-.118c.414 0 .781.065 1.101.194.321.129.592.316.815.562.227.246.398.547.516.903.117.355.175.757.175 1.207 0 .379-.058.74-.175 1.084-.118.34-.295.644-.534.914a2.503 2.503 0 01-.896.627c-.359.152-.785.228-1.277.228-.368 0-.723-.055-1.067-.164a2.92 2.92 0 01-.92-.486 2.519 2.519 0 01-.65-.779 2.37 2.37 0 01-.252-1.055h1.676c.023.242.086.451.187.627.106.172.244.304.416.398.172.094.373.141.604.141.215 0 .398-.041.55-.123a1 1 0 00.37-.34c.093-.148.162-.32.205-.516a2.8 2.8 0 00.07-.644c0-.231-.027-.44-.082-.627a1.35 1.35 0 00-.252-.487 1.118 1.118 0 00-.434-.316 1.513 1.513 0 00-.603-.111c-.313 0-.555.049-.727.146a1.774 1.774 0 00-.422.334z"/>
        <path fill="#686868" d="M188.299 550.109V551h-5.584v-.779l2.795-3.112c.344-.382.609-.707.797-.972.191-.27.324-.51.398-.721.078-.215.117-.434.117-.656 0-.281-.058-.535-.176-.762a1.322 1.322 0 00-.503-.551 1.526 1.526 0 00-.809-.205c-.379 0-.695.074-.949.223-.25.144-.438.347-.563.609a2.073 2.073 0 00-.187.903h-1.084c0-.481.105-.92.316-1.319.211-.398.524-.715.938-.949.414-.238.924-.357 1.529-.357.539 0 1 .095 1.383.287.383.187.676.453.879.797.207.339.31.738.31 1.195a2.4 2.4 0 01-.129.762 3.907 3.907 0 01-.345.761 5.988 5.988 0 01-.51.75c-.192.246-.397.489-.615.727l-2.286 2.478h4.278zm4.72-7.652h.094v.92h-.094c-.574 0-1.055.094-1.441.281a2.36 2.36 0 00-.92.744 3.047 3.047 0 00-.492 1.043c-.098.387-.147.78-.147 1.178v1.254c0 .379.045.715.135 1.008.09.289.213.533.369.732.156.199.332.35.527.451.2.102.407.153.621.153.25 0 .473-.047.668-.141.196-.098.36-.232.493-.404.136-.176.24-.383.31-.621.071-.239.106-.5.106-.785 0-.254-.032-.499-.094-.733a1.968 1.968 0 00-.287-.633 1.375 1.375 0 00-1.172-.603c-.301 0-.582.074-.844.222a1.905 1.905 0 00-.638.575 1.54 1.54 0 00-.282.767l-.574-.006c.055-.437.156-.81.305-1.119a2.39 2.39 0 01.562-.761c.227-.2.479-.344.756-.434a2.79 2.79 0 01.891-.141c.425 0 .793.08 1.101.241.309.16.563.375.762.644.199.266.346.566.439.902.098.332.147.674.147 1.026 0 .402-.057.779-.17 1.131-.113.351-.283.66-.51.925a2.296 2.296 0 01-.826.622 2.755 2.755 0 01-1.143.222c-.46 0-.863-.094-1.207-.281a2.585 2.585 0 01-.855-.762 3.481 3.481 0 01-.51-1.054 4.185 4.185 0 01-.17-1.178v-.51c0-.602.061-1.191.182-1.77a4.71 4.71 0 01.627-1.57 3.213 3.213 0 011.248-1.119c.531-.277 1.209-.416 2.033-.416zM243.299 550.109V551h-5.584v-.779l2.795-3.112c.344-.382.609-.707.797-.972.191-.27.324-.51.398-.721.078-.215.117-.434.117-.656 0-.281-.058-.535-.176-.762a1.322 1.322 0 00-.503-.551 1.526 1.526 0 00-.809-.205c-.379 0-.695.074-.949.223-.25.144-.438.347-.563.609a2.073 2.073 0 00-.187.903h-1.084c0-.481.105-.92.316-1.319.211-.398.524-.715.938-.949.414-.238.924-.357 1.529-.357.539 0 1 .095 1.383.287.383.187.676.453.879.797.207.339.31.738.31 1.195a2.4 2.4 0 01-.129.762 3.907 3.907 0 01-.345.761 5.988 5.988 0 01-.51.75c-.192.246-.397.489-.615.727l-2.286 2.478h4.278zm6.074-7.64v.609L245.839 551h-1.142l3.527-7.641h-4.617v-.89h5.766zM298.299 550.109V551h-5.584v-.779l2.795-3.112c.344-.382.609-.707.797-.972.191-.27.324-.51.398-.721.078-.215.117-.434.117-.656 0-.281-.058-.535-.176-.762a1.322 1.322 0 00-.503-.551 1.526 1.526 0 00-.809-.205c-.379 0-.695.074-.949.223-.25.144-.438.347-.563.609a2.073 2.073 0 00-.187.903h-1.084c0-.481.105-.92.316-1.319.211-.398.524-.715.938-.949.414-.238.924-.357 1.529-.357.539 0 1 .095 1.383.287.383.187.676.453.879.797.207.339.31.738.31 1.195a2.4 2.4 0 01-.129.762 3.907 3.907 0 01-.345.761 5.988 5.988 0 01-.51.75c-.192.246-.397.489-.615.727l-2.286 2.478h4.278zm5.939-1.418c0 .52-.121.961-.363 1.325a2.285 2.285 0 01-.973.82 3.255 3.255 0 01-1.377.281c-.512 0-.973-.094-1.383-.281a2.276 2.276 0 01-.972-.82c-.239-.364-.358-.805-.358-1.325 0-.339.065-.65.193-.931.133-.285.319-.533.557-.744.242-.211.527-.373.856-.487a3.275 3.275 0 011.095-.175c.524 0 .991.101 1.401.304.41.199.732.475.966.826.239.352.358.754.358 1.207zm-1.09-.023c0-.316-.068-.596-.205-.838a1.454 1.454 0 00-.574-.574 1.73 1.73 0 00-.856-.205 1.72 1.72 0 00-.861.205 1.438 1.438 0 00-.557.574 1.724 1.724 0 00-.199.838c0 .328.065.609.193.844.133.23.321.408.563.533.246.121.537.182.873.182.336 0 .625-.061.867-.182.242-.125.428-.303.557-.533.133-.235.199-.516.199-.844zm.891-3.979c0 .415-.11.788-.328 1.12a2.286 2.286 0 01-.897.785 2.826 2.826 0 01-1.289.287 2.89 2.89 0 01-1.307-.287 2.238 2.238 0 01-.89-.785 2.016 2.016 0 01-.323-1.12c0-.496.108-.918.323-1.265.218-.348.517-.613.896-.797a2.93 2.93 0 011.295-.275c.488 0 .922.091 1.301.275a2.1 2.1 0 01.891.797c.218.347.328.769.328 1.265zm-1.084.018c0-.285-.061-.537-.182-.756a1.327 1.327 0 00-.504-.515 1.43 1.43 0 00-.75-.194c-.285 0-.535.061-.75.182a1.258 1.258 0 00-.498.504 1.626 1.626 0 00-.176.779c0 .293.059.549.176.768.121.218.289.388.504.509.215.121.465.182.75.182s.533-.061.744-.182c.215-.121.383-.291.504-.509.121-.219.182-.475.182-.768zM353.299 550.109V551h-5.584v-.779l2.795-3.112c.344-.382.609-.707.797-.972.191-.27.324-.51.398-.721.078-.215.117-.434.117-.656 0-.281-.058-.535-.176-.762a1.322 1.322 0 00-.503-.551 1.526 1.526 0 00-.809-.205c-.379 0-.695.074-.949.223-.25.144-.438.347-.563.609a2.073 2.073 0 00-.187.903h-1.084c0-.481.105-.92.316-1.319.211-.398.524-.715.938-.949.414-.238.924-.357 1.529-.357.539 0 1 .095 1.383.287.383.187.676.453.879.797.207.339.31.738.31 1.195a2.4 2.4 0 01-.129.762 3.907 3.907 0 01-.345.761 5.988 5.988 0 01-.51.75c-.192.246-.397.489-.615.727l-2.286 2.478h4.278zm1.638-.017h.111c.625 0 1.133-.088 1.524-.264.391-.176.691-.412.902-.709.211-.297.356-.631.434-1.002.078-.375.117-.76.117-1.154v-1.307c0-.386-.045-.73-.135-1.031a2.236 2.236 0 00-.363-.756 1.612 1.612 0 00-.522-.463 1.291 1.291 0 00-.621-.158c-.25 0-.474.051-.673.152a1.414 1.414 0 00-.498.416 1.98 1.98 0 00-.305.633c-.07.242-.106.506-.106.791 0 .254.032.5.094.739a2.1 2.1 0 00.287.644c.129.191.289.344.481.457.195.109.424.164.685.164.242 0 .469-.047.68-.14a1.974 1.974 0 001.142-1.624h.516c0 .325-.064.645-.193.961a2.936 2.936 0 01-.528.856 2.67 2.67 0 01-.796.621 2.203 2.203 0 01-.997.228c-.421 0-.787-.082-1.095-.246a2.201 2.201 0 01-.762-.656 2.986 2.986 0 01-.439-.914 3.854 3.854 0 01-.141-1.031c0-.406.057-.787.17-1.143.113-.355.281-.668.504-.937.222-.274.498-.487.826-.639a2.732 2.732 0 011.148-.228c.489 0 .905.097 1.248.293.344.195.623.457.838.785.219.328.379.697.481 1.107.101.41.152.832.152 1.266v.392c0 .442-.029.891-.088 1.348a5.354 5.354 0 01-.322 1.301 3.412 3.412 0 01-.686 1.113c-.3.324-.693.582-1.177.773-.481.188-1.075.282-1.782.282h-.111v-.92zM404.291 546.201h.773c.379 0 .692-.062.938-.187a1.29 1.29 0 00.557-.522c.125-.222.187-.472.187-.75 0-.328-.055-.603-.164-.826a1.092 1.092 0 00-.492-.504c-.219-.113-.496-.17-.832-.17a1.74 1.74 0 00-.809.182c-.23.117-.412.285-.545.504a1.49 1.49 0 00-.193.773h-1.084c0-.433.109-.828.328-1.183.219-.356.525-.639.92-.85.398-.211.859-.316 1.383-.316.515 0 .967.091 1.353.275.387.18.688.449.903.809.215.355.322.798.322 1.33 0 .214-.051.445-.152.691a2.053 2.053 0 01-.463.68 2.394 2.394 0 01-.809.521c-.332.133-.73.199-1.195.199h-.926v-.656zm0 .891v-.651h.926c.543 0 .992.065 1.347.194.356.129.635.301.838.515.207.215.352.452.434.709.086.254.129.508.129.762 0 .399-.069.752-.205 1.061a2.16 2.16 0 01-.569.785 2.419 2.419 0 01-.855.486 3.384 3.384 0 01-1.072.164c-.371 0-.721-.053-1.049-.158a2.712 2.712 0 01-.861-.457 2.13 2.13 0 01-.586-.744 2.337 2.337 0 01-.211-1.014h1.084c0 .297.064.557.193.779.133.223.32.397.562.522.247.121.536.182.868.182.332 0 .617-.057.855-.17.242-.118.428-.293.557-.528.133-.234.199-.529.199-.884 0-.356-.074-.647-.223-.874-.148-.23-.359-.4-.632-.509a2.445 2.445 0 00-.956-.17h-.773zm9.923-1.037v1.3c0 .7-.062 1.29-.187 1.77s-.305.867-.539 1.16a2.053 2.053 0 01-.85.639 3.021 3.021 0 01-1.113.193 3.19 3.19 0 01-.908-.123 2.154 2.154 0 01-.75-.392 2.395 2.395 0 01-.563-.715 3.847 3.847 0 01-.357-1.067 7.686 7.686 0 01-.123-1.465v-1.3c0-.7.062-1.285.187-1.758.129-.473.311-.852.545-1.137a1.99 1.99 0 01.844-.621 3.139 3.139 0 011.113-.187c.332 0 .637.041.914.123.282.078.532.205.75.38.219.172.405.403.557.692.156.285.275.635.357 1.049.082.414.123.9.123 1.459zm-1.089 1.476v-1.658c0-.383-.024-.719-.071-1.008a3.166 3.166 0 00-.193-.75 1.483 1.483 0 00-.328-.504 1.161 1.161 0 00-.451-.281 1.636 1.636 0 00-.569-.094 1.53 1.53 0 00-.685.147 1.237 1.237 0 00-.504.451c-.133.207-.235.478-.305.814-.07.336-.105.745-.105 1.225v1.658c0 .383.021.721.064 1.014.047.293.115.547.205.762.09.211.199.384.328.521s.278.238.446.305c.172.062.361.094.568.094.266 0 .498-.051.697-.153.199-.101.366-.26.498-.474.137-.219.239-.498.305-.838.066-.344.1-.754.1-1.231z"/>
      </g>
      <path stroke="#CECECE" stroke-width=".5" d="M437 303.5H51.5M437.5 228H52M437 454H52M437.5 379H51.775M437 529.5H51M437.5 605H52"/>
      <g>
        <path fill="#626262" d="M188.08 320.939l-.867-.222.428-4.248h4.377v1.002h-3.457l-.258 2.32c.156-.09.353-.174.592-.252a2.71 2.71 0 01.832-.117c.394 0 .748.068 1.06.205.313.133.578.324.797.574.223.25.393.551.51.903.117.351.176.744.176 1.177 0 .41-.057.787-.17 1.131-.11.344-.276.645-.498.902a2.236 2.236 0 01-.844.592c-.336.141-.733.211-1.19.211a3.37 3.37 0 01-.978-.14 2.526 2.526 0 01-.82-.44 2.362 2.362 0 01-.586-.738 2.954 2.954 0 01-.282-1.043h1.032c.046.32.14.59.281.808.14.219.324.385.551.498.23.11.498.165.802.165.258 0 .487-.045.686-.135a1.37 1.37 0 00.504-.387c.137-.168.24-.371.31-.609.075-.239.112-.506.112-.803 0-.27-.037-.52-.112-.75a1.703 1.703 0 00-.334-.604 1.468 1.468 0 00-.533-.398 1.705 1.705 0 00-.726-.146c-.364 0-.639.048-.827.146-.183.098-.373.23-.568.398zM245.869 316.457h.094v.92h-.094c-.574 0-1.055.094-1.441.281a2.36 2.36 0 00-.92.744 3.047 3.047 0 00-.492 1.043c-.098.387-.147.78-.147 1.178v1.254c0 .379.045.715.135 1.008.09.289.213.533.369.732.156.199.332.35.527.451.2.102.407.153.621.153.25 0 .473-.047.668-.141.196-.098.36-.232.493-.404.136-.176.24-.383.31-.621.07-.239.106-.5.106-.785 0-.254-.032-.499-.094-.733a1.968 1.968 0 00-.287-.633 1.375 1.375 0 00-1.172-.603c-.301 0-.582.074-.844.222a1.918 1.918 0 00-.639.575c-.164.234-.257.49-.281.767l-.574-.006c.055-.437.156-.81.305-1.119a2.39 2.39 0 01.562-.761c.227-.2.479-.344.756-.434a2.79 2.79 0 01.891-.141c.425 0 .793.08 1.101.241.309.16.563.375.762.644.199.266.346.566.439.902.098.332.147.674.147 1.026 0 .402-.057.779-.17 1.131-.113.351-.283.66-.51.925a2.296 2.296 0 01-.826.622 2.755 2.755 0 01-1.143.222c-.46 0-.863-.094-1.207-.281a2.585 2.585 0 01-.855-.762 3.458 3.458 0 01-.51-1.054 4.185 4.185 0 01-.17-1.178v-.51c0-.602.061-1.191.182-1.77a4.71 4.71 0 01.627-1.57 3.213 3.213 0 011.248-1.119c.531-.277 1.209-.416 2.033-.416zM302.223 316.469v.609L298.689 325h-1.142l3.527-7.641h-4.617v-.89h5.766zM357.088 322.691c0 .52-.121.961-.363 1.325a2.285 2.285 0 01-.973.82 3.255 3.255 0 01-1.377.281c-.512 0-.973-.094-1.383-.281a2.276 2.276 0 01-.972-.82c-.239-.364-.358-.805-.358-1.325 0-.339.065-.65.193-.931.133-.285.319-.533.557-.744.242-.211.527-.373.856-.487a3.275 3.275 0 011.095-.175c.524 0 .991.101 1.401.304.41.199.732.475.966.826.239.352.358.754.358 1.207zm-1.09-.023c0-.316-.068-.596-.205-.838a1.454 1.454 0 00-.574-.574 1.73 1.73 0 00-.856-.205 1.72 1.72 0 00-.861.205 1.438 1.438 0 00-.557.574 1.713 1.713 0 00-.199.838c0 .328.065.609.193.844.133.23.321.408.563.533.246.121.537.182.873.182.336 0 .625-.061.867-.182.242-.125.428-.303.557-.533.133-.235.199-.516.199-.844zm.891-3.979c0 .415-.11.788-.328 1.12a2.286 2.286 0 01-.897.785 2.826 2.826 0 01-1.289.287 2.89 2.89 0 01-1.307-.287 2.238 2.238 0 01-.89-.785 2.016 2.016 0 01-.323-1.12c0-.496.108-.918.323-1.265.218-.348.517-.613.896-.797a2.93 2.93 0 011.295-.275c.488 0 .922.091 1.301.275a2.1 2.1 0 01.891.797c.218.347.328.769.328 1.265zm-1.084.018c0-.285-.061-.537-.182-.756a1.327 1.327 0 00-.504-.515 1.43 1.43 0 00-.75-.194c-.285 0-.535.061-.75.182a1.258 1.258 0 00-.498.504 1.626 1.626 0 00-.176.779c0 .293.059.549.176.768.121.218.289.388.504.509.215.121.465.182.75.182s.533-.061.744-.182c.215-.121.383-.291.504-.509.121-.219.182-.475.182-.768zM407.787 324.092h.111c.625 0 1.133-.088 1.524-.264.39-.176.691-.412.902-.709.211-.297.356-.631.434-1.002.078-.375.117-.76.117-1.154v-1.307c0-.386-.045-.73-.135-1.031a2.236 2.236 0 00-.363-.756 1.612 1.612 0 00-.522-.463 1.291 1.291 0 00-.621-.158 1.426 1.426 0 00-1.172.568 2 2 0 00-.304.633c-.07.242-.106.506-.106.791 0 .254.032.5.094.739a2.1 2.1 0 00.287.644c.129.191.289.344.481.457.195.109.424.164.685.164.242 0 .469-.047.68-.14a1.974 1.974 0 001.142-1.624h.516c0 .325-.064.645-.193.961a2.936 2.936 0 01-.528.856 2.67 2.67 0 01-.796.621 2.203 2.203 0 01-.997.228c-.421 0-.787-.082-1.095-.246a2.201 2.201 0 01-.762-.656 2.986 2.986 0 01-.439-.914 3.854 3.854 0 01-.141-1.031c0-.406.057-.787.17-1.143.113-.355.281-.668.504-.937.222-.274.498-.487.826-.639a2.732 2.732 0 011.148-.228c.489 0 .905.097 1.248.293.344.195.623.457.838.785.219.328.379.697.481 1.107.101.41.152.832.152 1.266v.392c0 .442-.029.891-.088 1.348a5.354 5.354 0 01-.322 1.301 3.412 3.412 0 01-.686 1.113c-.3.324-.693.582-1.177.773-.481.188-1.075.282-1.782.282h-.111v-.92z"/>
        <path fill="#686868" d="M137.475 322.129v.891h-6.164v-.639l3.82-5.912h.885l-.95 1.711-2.525 3.949h4.934zm-1.19-5.66V325h-1.084v-8.531h1.084z"/>
        <path fill="#626262" d="M78.291 320.201h.773c.38 0 .692-.062.938-.187a1.29 1.29 0 00.557-.522c.125-.222.187-.472.187-.75 0-.328-.055-.603-.164-.826a1.095 1.095 0 00-.492-.504c-.219-.113-.496-.17-.832-.17-.305 0-.574.061-.809.182-.23.117-.412.285-.545.504a1.492 1.492 0 00-.193.773h-1.084c0-.433.11-.828.328-1.183.219-.356.526-.639.92-.85.398-.211.86-.316 1.383-.316.515 0 .967.091 1.353.275.387.18.688.449.903.809.215.355.322.798.322 1.33 0 .214-.05.445-.152.691a2.05 2.05 0 01-.463.68 2.393 2.393 0 01-.809.521c-.332.133-.73.199-1.195.199h-.926v-.656zm0 .891v-.651h.926c.543 0 .992.065 1.347.194.356.129.635.301.838.515.207.215.352.452.434.709.086.254.129.508.129.762 0 .399-.069.752-.205 1.061-.133.308-.323.57-.569.785a2.421 2.421 0 01-.855.486 3.382 3.382 0 01-1.072.164c-.371 0-.721-.053-1.05-.158a2.711 2.711 0 01-.86-.457 2.137 2.137 0 01-.586-.744 2.342 2.342 0 01-.211-1.014h1.084c0 .297.064.557.193.779.133.223.32.397.563.522.246.121.535.182.867.182.332 0 .617-.057.855-.17.242-.118.428-.293.557-.528.133-.234.199-.529.199-.884 0-.356-.074-.647-.223-.874-.148-.23-.359-.4-.633-.509a2.44 2.44 0 00-.955-.17h-.773z"/>
      </g>
      <rect width="388" height="141" x="49" y="702" fill="#F0F0F0" rx="30"/>
      <rect width="388" height="141" x="48" y="873" fill="#F2F2F2" rx="30"/>
      <path fill="#717171" d="M52.598 683.87v1.246c0 1.638-.91 3.318-3.094 4.018l.91 1.47c2.534-.812 3.724-3.038 3.724-5.488v-1.246h-1.54zm.378 0v1.246c0 2.408 1.148 4.48 3.626 5.264l.91-1.456c-2.114-.644-3.01-2.212-3.01-3.808v-1.246h-1.526zm-1.484 7.714v1.484h6.972v3.178h1.876v-4.662h-8.848zm6.972-8.302v7.728h1.876v-7.728h-1.876zm12.319 0v9.366h1.862v-9.366h-1.862zm1.33 3.528v1.526h2.254v-1.526h-2.254zm-9.184 2.226v1.498h1.078c2.884 0 4.368-.07 5.95-.42l-.182-1.47c-1.554.336-2.954.392-5.768.392h-1.078zm0-4.732v5.53h1.848v-4.032h3.948v-1.498h-5.796zm1.358 10.234v1.484h8.82v-1.484h-8.82zm0-2.87v3.626h1.862v-3.626h-1.862z"/>
      <g>
        <path fill="#fff" d="M30 894h428v72H30z"/>
        <path stroke="#EDEDED" stroke-width=".5" d="M30 893.75h428"/>
        <circle cx="243.5" cy="907.5" r="39.5" fill="#C4C4C4"/>
        <g>
          <path fill="#C4C4C4" d="M70 914h31v31H70v-31zM151 914h31v31h-31v-31zM306 914h31v31h-31v-31zM389 914h31v31h-31v-31z"/>
        </g>
      </g>
    </g>
  </g>
  <defs>
    <clipPath id="clip0_1124_4728">
      <rect width="428" height="926" x="30" y="40" fill="#fff" rx="40"/>
    </clipPath>
    <filter id="filter0_d_1124_4728" width="508" height="1006" x="0" y="0" color-interpolation-filters="sRGB" filterUnits="userSpaceOnUse">
      <feFlood flood-opacity="0" result="BackgroundImageFix"/>
      <feColorMatrix in="SourceAlpha" result="hardAlpha" values="0 0 0 0 0 0 0 0 0 0 0 0 0 0 0 0 0 0 127 0"/>
      <feOffset dx="10"/>
      <feGaussianBlur stdDeviation="20"/>
      <feComposite in2="hardAlpha" operator="out"/>
      <feColorMatrix values="0 0 0 0 0 0 0 0 0 0 0 0 0 0 0 0 0 0 0.1 0"/>
      <feBlend in2="BackgroundImageFix" result="effect1_dropShadow_1124_4728"/>
      <feBlend in="SourceGraphic" in2="effect1_dropShadow_1124_4728" result="shape"/>
    </filter>
  </defs>
</svg>
