<svg xmlns="http://www.w3.org/2000/svg" width="508" height="1006" fill="none" viewBox="0 0 508 1006">
  <g filter="url(#filter0_d_1124_4729)">
    <g clip-path="url(#clip0_1124_4729)">
      <rect width="428" height="926" x="30" y="40" fill="#fff" rx="40"/>
      <rect width="140" height="5" x="175" y="951" fill="#444" rx="2.5"/>
      <g opacity=".6">
        <path fill="#BDBDBD" d="M51.536 112.2v1.68H56c-.032.272-.112.56-.208.816l-5.008.176.304 1.632 3.648-.272c-.848.784-2.144 1.424-3.984 1.84l.8 1.648c4.496-1.104 6.736-3.616 6.736-7.52h-6.752zm3.152 11.52h7.6v-3.952H52.56v1.616h7.616v.832h-7.6v4h10.128v-1.6h-8.016v-.896zm7.6-9.088v-3.008h-2.112v7.568h2.112v-2.848h1.952v-1.712h-1.952zm10.83 8.4v-2.192h4.465v-1.696h-8.544v-1.648h8.208v-4.912h-10.32v1.68h8.24v1.584h-8.224v4.992h4.064v2.192h-5.6v1.728H78.75v-1.728h-5.632zm9.952-4.448h4.784v-5.696h-6.96v1.68h4.8v2.352h-4.785v6.064h1.328c2.672 0 4.833-.096 7.233-.512l-.224-1.712c-2.08.352-3.936.464-6.176.48v-2.656zm7.2-6.96v14.784h2.112v-14.784h-2.113zm14.206 2.416h-7.968v3.52h10.304v-1.424h-8.224v-.768h7.968v-3.472h-10.08v1.424h8v.72zm-6.016 9.984h8.144v-3.504H96.348v1.424h8.16v.752h-8.144v3.552h10.64v-1.424H98.46v-.8zm-3.616-5.76v1.52h13.344v-1.52H94.844zm24.207 3.024h-2.96v-3.264h2.96v3.264zm0-4.912h-2.96v-3.568h-2.096v10.16h7.152v-10.16h-2.096v3.568zm8.176.752h-2.144v-5.472h-2.112v14.72h2.112v-7.488h2.144v-1.76zm8.751 5.904v-2.192h4.464v-1.696h-8.544v-1.648h8.208v-4.912h-10.32v1.68h8.24v1.584h-8.224v4.992h4.064v2.192h-5.6v1.728h13.344v-1.728h-5.632zm13.135-7.632c0-1.024.784-1.648 1.888-1.648 1.104 0 1.888.624 1.888 1.648 0 1.04-.784 1.664-1.888 1.664-1.104 0-1.888-.624-1.888-1.664zm5.808 0c0-1.936-1.664-3.344-3.92-3.344-2.24 0-3.92 1.408-3.92 3.344 0 1.968 1.68 3.36 3.92 3.36 2.256 0 3.92-1.392 3.92-3.36zm-3.968 8.208h7.616v-4.032h-9.728v1.632h7.648v.88h-7.632v4.112h10.128v-1.632h-8.032v-.96zm7.616-9.136v-2.832h-2.112V119h2.112v-2.8h1.936v-1.728h-1.936zm19.951 2.4c-3.344-.464-5.04-2.384-5.04-4.096v-.704h-2.256v.704c0 1.728-1.68 3.632-5.04 4.096l.8 1.696c2.576-.384 4.432-1.584 5.376-3.168.944 1.584 2.784 2.784 5.36 3.168l.8-1.696zm.48 2.784h-13.312v1.712h5.552v5.024h2.112v-5.024H179v-1.712zm17.616-8.016h-2.128v8.336h2.128v-8.336zm-8.032 2.512c1.12 0 1.952.672 1.952 1.776s-.832 1.776-1.952 1.776-1.936-.672-1.936-1.776.816-1.776 1.936-1.776zm0 5.312c2.304 0 4.016-1.472 4.016-3.536s-1.712-3.536-4.016-3.536c-2.272 0-4 1.472-4 3.536s1.728 3.536 4 3.536zm6.544 1.12h-2.08v.496c0 1.088-.496 2.32-1.68 3.2-1.168-.816-1.632-2.032-1.632-3.2v-.496h-2.048v.496c0 1.424-.8 2.88-2.752 3.536l1.04 1.536c1.328-.48 2.224-1.344 2.736-2.416.48 1.12 1.328 2.08 2.672 2.576 1.343-.528 2.192-1.504 2.672-2.624.496 1.12 1.392 2 2.784 2.464l1.04-1.536c-1.952-.592-2.752-2.016-2.752-3.536v-.496zm7.998.688c-1.072 0-1.792-1.168-1.792-3.36 0-2.176.72-3.344 1.792-3.344 1.088 0 1.808 1.168 1.808 3.344 0 2.192-.72 3.36-1.808 3.36zm6.224-9.648v5.312h-2.464c-.288-2.656-1.776-4.272-3.76-4.272-2.192 0-3.808 2.016-3.808 5.248 0 3.248 1.616 5.28 3.808 5.28 2.048 0 3.552-1.728 3.776-4.544h2.448v7.76h2.112v-14.784h-2.112zm9.503 8.512c.512.096 1.04.144 1.616.144a8.85 8.85 0 001.632-.144v2.816h-3.248v-2.816zm1.616-6.112c2.048 0 3.424.832 3.424 2.304 0 1.456-1.376 2.304-3.424 2.304s-3.408-.848-3.408-2.304c0-1.472 1.36-2.304 3.408-2.304zm3.728 8.928v-3.6c1.104-.688 1.776-1.744 1.776-3.024 0-2.416-2.32-3.968-5.504-3.968-3.168 0-5.488 1.552-5.488 3.968-.016 1.28.656 2.336 1.776 3.024v3.6h-2.944v1.712h13.344v-1.712h-2.96zm6.928-9.327l-.227 7.961h-1.742l-.226-7.961h2.195zm-2.258 10.414c0-.307.104-.565.313-.773.213-.214.5-.321.859-.321s.643.107.852.321c.213.208.32.466.32.773 0 .302-.107.557-.32.766-.209.208-.493.312-.852.312s-.646-.104-.859-.312a1.041 1.041 0 01-.313-.766z"/>
        <path fill="#646464" d="M61.533 143.754c-2.831-.874-4.066-2.964-4.066-5.149v-1.672h-2.546v1.672c0 2.223-1.254 4.503-4.18 5.434l1.235 1.976c2.052-.665 3.458-2.033 4.256-3.724.779 1.577 2.128 2.812 4.085 3.439l1.216-1.976zm-8.113 5.586h9.405v4.313h2.527v-6.327H53.42v2.014zm9.405-13.205v10.431h2.527v-10.431h-2.527zm15.37 7.258c-1.9.399-3.63.513-6.745.532v-4.408h5.338v-1.995H68.96v8.417h1.464c3.875 0 5.87-.095 8.017-.57l-.246-1.976zm-4.902 4.066h-2.509v5.871h11.913v-1.995h-9.404v-3.876zm8.777-6.555v-4.769h-2.507v12.654h2.507v-5.833h2.319v-2.052H82.07zm9.405-2.964v1.995h5.833c-.362 3.876-2.3 6.612-6.765 8.759l1.311 1.976c6.213-3.002 8.019-7.372 8.019-12.73h-8.398zm11.076-1.824v17.499h2.527v-17.499h-2.527zm7.181 14.345h9.766v3.116h2.508v-5.092h-12.274v1.976zm7.429-4.959v-1.254h5.092v-1.9h-9.823v-1.14h9.462v-4.731h-11.97v1.9h9.5v1.064h-9.462v4.807h4.693v1.254h-6.669v1.995h15.846v-1.995h-6.669z"/>
      </g>
      <rect width="388" height="40" x="50" y="178" fill="#F0F0F0" opacity=".6" rx="20"/>
      <path fill="#646464" d="M86.875 207.356l-7.168-7.265a8.294 8.294 0 001.558-4.844c0-4.546-3.648-8.247-8.13-8.247-4.488-.005-8.135 3.696-8.135 8.242 0 4.546 3.647 8.247 8.13 8.247a8.02 8.02 0 005.127-1.85l7.129 7.231 1.489-1.514zm-13.745-5.771c-3.447 0-6.255-2.847-6.255-6.343s2.808-6.343 6.255-6.343 6.255 2.847 6.255 6.343-2.803 6.343-6.255 6.343z" opacity=".6"/>
      <g opacity=".6">
        <g filter="url(#filter1_d_1124_4729)">
          <rect width="388" height="80" x="50" y="268" fill="#fff" rx="20"/>
        </g>
        <path fill="#8F8F8F" d="M135.508 302.16c-2.448 0-4.02.828-4.02 2.172 0 1.344 1.572 2.16 4.02 2.16 2.448 0 4.02-.816 4.02-2.16 0-1.344-1.572-2.172-4.02-2.172zm0 1.236c1.512 0 2.376.3 2.376.936 0 .624-.864.936-2.376.936-1.524 0-2.376-.312-2.376-.936 0-.636.852-.936 2.376-.936zm-3.864 5.76v3.792h7.68v-3.792h-7.68zm6.12 1.26v1.272h-4.548v-1.272h4.548zm-7.284-3.288v1.26h10.044v-1.26H130.48zm13.643-4.668v1.068c0 1.404-.78 2.844-2.652 3.444l.78 1.26c2.172-.696 3.192-2.604 3.192-4.704v-1.068h-1.32zm.324 0v1.068c0 2.064.984 3.84 3.108 4.512l.78-1.248c-1.812-.552-2.58-1.896-2.58-3.264v-1.068h-1.308zm-1.272 6.612v1.272h5.976v2.724h1.608v-3.996h-7.584zm5.976-7.116v6.624h1.608v-6.624h-1.608zm11.027-.012v11.148h1.608v-11.148h-1.608zm-4.38.78c-1.68 0-2.916 1.536-2.916 3.96 0 2.448 1.236 3.984 2.916 3.984s2.916-1.536 2.916-3.984c0-2.424-1.236-3.96-2.916-3.96zm0 1.452c.828 0 1.38.876 1.38 2.508 0 1.656-.552 2.544-1.38 2.544-.828 0-1.392-.888-1.392-2.544 0-1.632.564-2.508 1.392-2.508zm7.799 3.384v1.26h10.068v-1.26h-10.068zm1.236-5.4v1.212h6.036v.636h-6.024v2.34h1.584v-1.212h6.012v-2.976h-7.608zm.012 3.6v1.212h7.812v-1.212h-7.812zm.024 3.732v3.456h7.632v-3.456h-7.632zm6.06 1.248v.948h-4.5v-.948h4.5zM373.482 303.026V313h-1.968v-7.704l-2.366.752v-1.552l4.123-1.47h.211zm9.94 4.122v1.723c0 .747-.08 1.392-.239 1.935-.16.537-.39.979-.691 1.326a2.72 2.72 0 01-1.059.759 3.657 3.657 0 01-1.368.246c-.401 0-.774-.05-1.121-.151a2.802 2.802 0 01-.936-.485 3.062 3.062 0 01-.711-.827 4.241 4.241 0 01-.451-1.203 7.302 7.302 0 01-.158-1.6v-1.723c0-.747.08-1.387.24-1.92.164-.538.394-.978.69-1.32a2.717 2.717 0 011.067-.752c.41-.164.865-.246 1.367-.246.401 0 .772.053 1.114.157.346.101.659.258.937.472.278.214.515.49.71.827.196.333.347.732.452 1.196.104.461.157.989.157 1.586zm-1.976 1.983v-2.249c0-.36-.02-.675-.061-.944a2.822 2.822 0 00-.171-.683 1.45 1.45 0 00-.287-.465 1.057 1.057 0 00-.39-.26 1.39 1.39 0 00-.485-.082c-.224 0-.422.044-.595.13a1.113 1.113 0 00-.431.417c-.118.187-.209.438-.273.752a6.18 6.18 0 00-.089 1.135v2.249c0 .36.018.677.055.95.041.273.1.508.177.704.083.192.178.349.288.472.114.118.243.205.389.26.151.054.315.082.492.082.219 0 .413-.044.581-.13.174-.091.319-.233.438-.424.123-.196.214-.451.273-.766.06-.314.089-.697.089-1.148zm10.015-1.983v1.723c0 .747-.08 1.392-.239 1.935-.16.537-.39.979-.691 1.326a2.72 2.72 0 01-1.059.759c-.41.164-.866.246-1.368.246-.401 0-.774-.05-1.121-.151a2.802 2.802 0 01-.936-.485 3.062 3.062 0 01-.711-.827 4.241 4.241 0 01-.451-1.203 7.306 7.306 0 01-.157-1.6v-1.723c0-.747.079-1.387.239-1.92.164-.538.394-.978.69-1.32a2.717 2.717 0 011.067-.752c.41-.164.866-.246 1.367-.246.401 0 .772.053 1.114.157.346.101.659.258.937.472.278.214.515.49.711.827.196.333.346.732.451 1.196.105.461.157.989.157 1.586zm-1.976 1.983v-2.249c0-.36-.02-.675-.061-.944a2.822 2.822 0 00-.171-.683 1.45 1.45 0 00-.287-.465 1.057 1.057 0 00-.39-.26 1.386 1.386 0 00-.485-.082c-.223 0-.422.044-.595.13a1.113 1.113 0 00-.431.417c-.118.187-.209.438-.273.752a6.18 6.18 0 00-.089 1.135v2.249c0 .36.018.677.055.95.041.273.1.508.178.704.082.192.177.349.287.472.114.118.243.205.389.26.151.054.315.082.492.082.219 0 .413-.044.582-.13.173-.091.319-.233.437-.424.123-.196.214-.451.273-.766.06-.314.089-.697.089-1.148zm5.367-6.638V313h-1.969v-10.507h1.969zm4.662 3.111l-3.213 3.664-1.723 1.743-.718-1.422 1.368-1.736 1.92-2.249h2.366zM397.47 313l-2.188-3.418 1.361-1.189 3.096 4.607h-2.269zm5.81-1.401c.242 0 .456-.046.643-.137.187-.096.333-.228.437-.397.11-.173.167-.376.171-.608h1.853c-.005.52-.144.982-.417 1.388a2.88 2.88 0 01-1.101.95c-.46.228-.975.342-1.545.342-.574 0-1.075-.096-1.504-.287a2.946 2.946 0 01-1.059-.793 3.468 3.468 0 01-.636-1.19 4.924 4.924 0 01-.212-1.463v-.198c0-.524.071-1.012.212-1.463.141-.456.353-.852.636-1.189a2.896 2.896 0 011.059-.8c.424-.192.921-.287 1.491-.287.606 0 1.137.116 1.592.348.461.233.821.566 1.08.998.265.429.399.937.404 1.525h-1.853a1.537 1.537 0 00-.157-.67 1.137 1.137 0 00-.424-.479 1.182 1.182 0 00-.677-.184c-.287 0-.521.061-.704.184a1.18 1.18 0 00-.423.493 2.42 2.42 0 00-.212.704c-.037.26-.055.533-.055.82v.198c0 .287.018.563.055.827.036.265.104.499.205.705.104.205.248.366.43.485.183.118.42.178.711.178zm8.238-.267v-3.295c0-.237-.039-.44-.117-.608a.866.866 0 00-.362-.404c-.159-.095-.367-.143-.622-.143-.219 0-.408.039-.567.116a.825.825 0 00-.37.321.895.895 0 00-.129.486h-1.969c0-.315.073-.613.219-.896.145-.282.357-.531.635-.745.278-.219.609-.39.992-.513.387-.123.82-.184 1.298-.184.575 0 1.085.095 1.532.287.446.191.797.478 1.052.861.26.383.39.862.39 1.436v3.165c0 .405.025.738.075.998.05.255.123.478.219.67V313h-1.989a2.83 2.83 0 01-.219-.752 6.139 6.139 0 01-.068-.916zm.259-2.837l.014 1.114h-1.101c-.259 0-.485.03-.676.089a1.258 1.258 0 00-.472.253.977.977 0 00-.273.369 1.277 1.277 0 00-.082.465c0 .169.038.321.116.458a.83.83 0 00.335.315c.146.073.316.109.512.109.297 0 .554-.059.773-.178a1.41 1.41 0 00.506-.437c.123-.173.187-.337.191-.492l.52.834c-.073.186-.174.38-.301.581a2.43 2.43 0 01-1.162.998 2.541 2.541 0 01-.957.164c-.47 0-.896-.094-1.279-.281a2.323 2.323 0 01-.902-.786 2.06 2.06 0 01-.328-1.148c0-.387.073-.732.219-1.032.146-.301.36-.554.642-.759.287-.21.645-.367 1.074-.472a6.073 6.073 0 011.49-.164h1.141zm5.319-5.995V313h-1.976v-10.5h1.976z"/>
        <rect width="60" height="60" x="60" y="278" fill="#C4C4C4" rx="15"/>
        <g filter="url(#filter2_d_1124_4729)">
          <rect width="388" height="80" x="50" y="368" fill="#fff" rx="20"/>
        </g>
        <path fill="#8F8F8F" d="M135.508 402.16c-2.448 0-4.02.828-4.02 2.172 0 1.344 1.572 2.16 4.02 2.16 2.448 0 4.02-.816 4.02-2.16 0-1.344-1.572-2.172-4.02-2.172zm0 1.236c1.512 0 2.376.3 2.376.936 0 .624-.864.936-2.376.936-1.524 0-2.376-.312-2.376-.936 0-.636.852-.936 2.376-.936zm-3.864 5.76v3.792h7.68v-3.792h-7.68zm6.12 1.26v1.272h-4.548v-1.272h4.548zm-7.284-3.288v1.26h10.044v-1.26H130.48zm13.643-4.668v1.068c0 1.404-.78 2.844-2.652 3.444l.78 1.26c2.172-.696 3.192-2.604 3.192-4.704v-1.068h-1.32zm.324 0v1.068c0 2.064.984 3.84 3.108 4.512l.78-1.248c-1.812-.552-2.58-1.896-2.58-3.264v-1.068h-1.308zm-1.272 6.612v1.272h5.976v2.724h1.608v-3.996h-7.584zm5.976-7.116v6.624h1.608v-6.624h-1.608zm11.027-.012v11.148h1.608v-11.148h-1.608zm-4.38.78c-1.68 0-2.916 1.536-2.916 3.96 0 2.448 1.236 3.984 2.916 3.984s2.916-1.536 2.916-3.984c0-2.424-1.236-3.96-2.916-3.96zm0 1.452c.828 0 1.38.876 1.38 2.508 0 1.656-.552 2.544-1.38 2.544-.828 0-1.392-.888-1.392-2.544 0-1.632.564-2.508 1.392-2.508zm7.799 3.384v1.26h10.068v-1.26h-10.068zm1.236-5.4v1.212h6.036v.636h-6.024v2.34h1.584v-1.212h6.012v-2.976h-7.608zm.012 3.6v1.212h7.812v-1.212h-7.812zm.024 3.732v3.456h7.632v-3.456h-7.632zm6.06 1.248v.948h-4.5v-.948h4.5zM373.482 403.026V413h-1.968v-7.704l-2.366.752v-1.552l4.123-1.47h.211zm9.94 4.122v1.723c0 .747-.08 1.392-.239 1.935-.16.537-.39.979-.691 1.326a2.72 2.72 0 01-1.059.759 3.657 3.657 0 01-1.368.246c-.401 0-.774-.05-1.121-.151a2.802 2.802 0 01-.936-.485 3.062 3.062 0 01-.711-.827 4.241 4.241 0 01-.451-1.203 7.302 7.302 0 01-.158-1.6v-1.723c0-.747.08-1.387.24-1.92.164-.538.394-.978.69-1.32a2.717 2.717 0 011.067-.752c.41-.164.865-.246 1.367-.246.401 0 .772.053 1.114.157.346.101.659.258.937.472.278.214.515.49.71.827.196.333.347.732.452 1.196.104.461.157.989.157 1.586zm-1.976 1.983v-2.249c0-.36-.02-.675-.061-.944a2.822 2.822 0 00-.171-.683 1.45 1.45 0 00-.287-.465 1.057 1.057 0 00-.39-.26 1.39 1.39 0 00-.485-.082c-.224 0-.422.044-.595.13a1.113 1.113 0 00-.431.417c-.118.187-.209.438-.273.752a6.18 6.18 0 00-.089 1.135v2.249c0 .36.018.677.055.95.041.273.1.508.177.704.083.192.178.349.288.472.114.118.243.205.389.26.151.054.315.082.492.082.219 0 .413-.044.581-.13.174-.091.319-.233.438-.424.123-.196.214-.451.273-.766.06-.314.089-.697.089-1.148zm10.015-1.983v1.723c0 .747-.08 1.392-.239 1.935-.16.537-.39.979-.691 1.326a2.72 2.72 0 01-1.059.759c-.41.164-.866.246-1.368.246-.401 0-.774-.05-1.121-.151a2.802 2.802 0 01-.936-.485 3.062 3.062 0 01-.711-.827 4.241 4.241 0 01-.451-1.203 7.306 7.306 0 01-.157-1.6v-1.723c0-.747.079-1.387.239-1.92.164-.538.394-.978.69-1.32a2.717 2.717 0 011.067-.752c.41-.164.866-.246 1.367-.246.401 0 .772.053 1.114.157.346.101.659.258.937.472.278.214.515.49.711.827.196.333.346.732.451 1.196.105.461.157.989.157 1.586zm-1.976 1.983v-2.249c0-.36-.02-.675-.061-.944a2.822 2.822 0 00-.171-.683 1.45 1.45 0 00-.287-.465 1.057 1.057 0 00-.39-.26 1.386 1.386 0 00-.485-.082c-.223 0-.422.044-.595.13a1.113 1.113 0 00-.431.417c-.118.187-.209.438-.273.752a6.18 6.18 0 00-.089 1.135v2.249c0 .36.018.677.055.95.041.273.1.508.178.704.082.192.177.349.287.472.114.118.243.205.389.26.151.054.315.082.492.082.219 0 .413-.044.582-.13.173-.091.319-.233.437-.424.123-.196.214-.451.273-.766.06-.314.089-.697.089-1.148zm5.367-6.638V413h-1.969v-10.507h1.969zm4.662 3.111l-3.213 3.664-1.723 1.743-.718-1.422 1.368-1.736 1.92-2.249h2.366zM397.47 413l-2.188-3.418 1.361-1.189 3.096 4.607h-2.269zm5.81-1.401c.242 0 .456-.046.643-.137.187-.096.333-.228.437-.397.11-.173.167-.376.171-.608h1.853c-.005.52-.144.982-.417 1.388a2.88 2.88 0 01-1.101.95c-.46.228-.975.342-1.545.342-.574 0-1.075-.096-1.504-.287a2.946 2.946 0 01-1.059-.793 3.468 3.468 0 01-.636-1.19 4.924 4.924 0 01-.212-1.463v-.198c0-.524.071-1.012.212-1.463.141-.456.353-.852.636-1.189a2.896 2.896 0 011.059-.8c.424-.192.921-.287 1.491-.287.606 0 1.137.116 1.592.348.461.233.821.566 1.08.998.265.429.399.937.404 1.525h-1.853a1.537 1.537 0 00-.157-.67 1.137 1.137 0 00-.424-.479 1.182 1.182 0 00-.677-.184c-.287 0-.521.061-.704.184a1.18 1.18 0 00-.423.493 2.42 2.42 0 00-.212.704c-.037.26-.055.533-.055.82v.198c0 .287.018.563.055.827.036.265.104.499.205.705.104.205.248.366.43.485.183.118.42.178.711.178zm8.238-.267v-3.295c0-.237-.039-.44-.117-.608a.866.866 0 00-.362-.404c-.159-.095-.367-.143-.622-.143-.219 0-.408.039-.567.116a.825.825 0 00-.37.321.895.895 0 00-.129.486h-1.969c0-.315.073-.613.219-.896.145-.282.357-.531.635-.745.278-.219.609-.39.992-.513.387-.123.82-.184 1.298-.184.575 0 1.085.095 1.532.287.446.191.797.478 1.052.861.26.383.39.862.39 1.436v3.165c0 .405.025.738.075.998.05.255.123.478.219.67V413h-1.989a2.83 2.83 0 01-.219-.752 6.139 6.139 0 01-.068-.916zm.259-2.837l.014 1.114h-1.101c-.259 0-.485.03-.676.089a1.258 1.258 0 00-.472.253.977.977 0 00-.273.369 1.277 1.277 0 00-.082.465c0 .169.038.321.116.458a.83.83 0 00.335.315c.146.073.316.109.512.109.297 0 .554-.059.773-.178a1.41 1.41 0 00.506-.437c.123-.173.187-.337.191-.492l.52.834c-.073.186-.174.38-.301.581a2.43 2.43 0 01-1.162.998 2.541 2.541 0 01-.957.164c-.47 0-.896-.094-1.279-.281a2.323 2.323 0 01-.902-.786 2.06 2.06 0 01-.328-1.148c0-.387.073-.732.219-1.032.146-.301.36-.554.642-.759.287-.21.645-.367 1.074-.472a6.073 6.073 0 011.49-.164h1.141zm5.319-5.995V413h-1.976v-10.5h1.976z"/>
        <rect width="60" height="60" x="60" y="378" fill="#C4C4C4" rx="15"/>
        <g>
          <g filter="url(#filter3_d_1124_4729)">
            <rect width="388" height="80" x="50" y="468" fill="#fff" rx="20"/>
          </g>
          <path fill="#8F8F8F" d="M135.508 502.16c-2.448 0-4.02.828-4.02 2.172 0 1.344 1.572 2.16 4.02 2.16 2.448 0 4.02-.816 4.02-2.16 0-1.344-1.572-2.172-4.02-2.172zm0 1.236c1.512 0 2.376.3 2.376.936 0 .624-.864.936-2.376.936-1.524 0-2.376-.312-2.376-.936 0-.636.852-.936 2.376-.936zm-3.864 5.76v3.792h7.68v-3.792h-7.68zm6.12 1.26v1.272h-4.548v-1.272h4.548zm-7.284-3.288v1.26h10.044v-1.26H130.48zm13.643-4.668v1.068c0 1.404-.78 2.844-2.652 3.444l.78 1.26c2.172-.696 3.192-2.604 3.192-4.704v-1.068h-1.32zm.324 0v1.068c0 2.064.984 3.84 3.108 4.512l.78-1.248c-1.812-.552-2.58-1.896-2.58-3.264v-1.068h-1.308zm-1.272 6.612v1.272h5.976v2.724h1.608v-3.996h-7.584zm5.976-7.116v6.624h1.608v-6.624h-1.608zm11.027-.012v11.148h1.608v-11.148h-1.608zm-4.38.78c-1.68 0-2.916 1.536-2.916 3.96 0 2.448 1.236 3.984 2.916 3.984s2.916-1.536 2.916-3.984c0-2.424-1.236-3.96-2.916-3.96zm0 1.452c.828 0 1.38.876 1.38 2.508 0 1.656-.552 2.544-1.38 2.544-.828 0-1.392-.888-1.392-2.544 0-1.632.564-2.508 1.392-2.508zm7.799 3.384v1.26h10.068v-1.26h-10.068zm1.236-5.4v1.212h6.036v.636h-6.024v2.34h1.584v-1.212h6.012v-2.976h-7.608zm.012 3.6v1.212h7.812v-1.212h-7.812zm.024 3.732v3.456h7.632v-3.456h-7.632zm6.06 1.248v.948h-4.5v-.948h4.5zM373.482 503.026V513h-1.968v-7.704l-2.366.752v-1.552l4.123-1.47h.211zm9.94 4.122v1.723c0 .747-.08 1.392-.239 1.935-.16.537-.39.979-.691 1.326a2.72 2.72 0 01-1.059.759 3.657 3.657 0 01-1.368.246c-.401 0-.774-.05-1.121-.151a2.802 2.802 0 01-.936-.485 3.062 3.062 0 01-.711-.827 4.241 4.241 0 01-.451-1.203 7.302 7.302 0 01-.158-1.6v-1.723c0-.747.08-1.387.24-1.92.164-.538.394-.978.69-1.32a2.717 2.717 0 011.067-.752c.41-.164.865-.246 1.367-.246.401 0 .772.053 1.114.157.346.101.659.258.937.472.278.214.515.49.71.827.196.333.347.732.452 1.196.104.461.157.989.157 1.586zm-1.976 1.983v-2.249c0-.36-.02-.675-.061-.944a2.822 2.822 0 00-.171-.683 1.45 1.45 0 00-.287-.465 1.057 1.057 0 00-.39-.26 1.39 1.39 0 00-.485-.082c-.224 0-.422.044-.595.13a1.113 1.113 0 00-.431.417c-.118.187-.209.438-.273.752a6.18 6.18 0 00-.089 1.135v2.249c0 .36.018.677.055.95.041.273.1.508.177.704.083.192.178.349.288.472.114.118.243.205.389.26.151.054.315.082.492.082.219 0 .413-.044.581-.13.174-.091.319-.233.438-.424.123-.196.214-.451.273-.766.06-.314.089-.697.089-1.148zm10.015-1.983v1.723c0 .747-.08 1.392-.239 1.935-.16.537-.39.979-.691 1.326a2.72 2.72 0 01-1.059.759c-.41.164-.866.246-1.368.246-.401 0-.774-.05-1.121-.151a2.802 2.802 0 01-.936-.485 3.062 3.062 0 01-.711-.827 4.241 4.241 0 01-.451-1.203 7.306 7.306 0 01-.157-1.6v-1.723c0-.747.079-1.387.239-1.92.164-.538.394-.978.69-1.32a2.717 2.717 0 011.067-.752c.41-.164.866-.246 1.367-.246.401 0 .772.053 1.114.157.346.101.659.258.937.472.278.214.515.49.711.827.196.333.346.732.451 1.196.105.461.157.989.157 1.586zm-1.976 1.983v-2.249c0-.36-.02-.675-.061-.944a2.822 2.822 0 00-.171-.683 1.45 1.45 0 00-.287-.465 1.057 1.057 0 00-.39-.26 1.386 1.386 0 00-.485-.082c-.223 0-.422.044-.595.13a1.113 1.113 0 00-.431.417c-.118.187-.209.438-.273.752a6.18 6.18 0 00-.089 1.135v2.249c0 .36.018.677.055.95.041.273.1.508.178.704.082.192.177.349.287.472.114.118.243.205.389.26.151.054.315.082.492.082.219 0 .413-.044.582-.13.173-.091.319-.233.437-.424.123-.196.214-.451.273-.766.06-.314.089-.697.089-1.148zm5.367-6.638V513h-1.969v-10.507h1.969zm4.662 3.111l-3.213 3.664-1.723 1.743-.718-1.422 1.368-1.736 1.92-2.249h2.366zM397.47 513l-2.188-3.418 1.361-1.189 3.096 4.607h-2.269zm5.81-1.401c.242 0 .456-.046.643-.137.187-.096.333-.228.437-.397.11-.173.167-.376.171-.608h1.853c-.005.52-.144.982-.417 1.388a2.88 2.88 0 01-1.101.95c-.46.228-.975.342-1.545.342-.574 0-1.075-.096-1.504-.287a2.946 2.946 0 01-1.059-.793 3.468 3.468 0 01-.636-1.19 4.924 4.924 0 01-.212-1.463v-.198c0-.524.071-1.012.212-1.463.141-.456.353-.852.636-1.189a2.896 2.896 0 011.059-.8c.424-.192.921-.287 1.491-.287.606 0 1.137.116 1.592.348.461.233.821.566 1.08.998.265.429.399.937.404 1.525h-1.853a1.537 1.537 0 00-.157-.67 1.137 1.137 0 00-.424-.479 1.182 1.182 0 00-.677-.184c-.287 0-.521.061-.704.184a1.18 1.18 0 00-.423.493 2.42 2.42 0 00-.212.704c-.037.26-.055.533-.055.82v.198c0 .287.018.563.055.827.036.265.104.499.205.705.104.205.248.366.43.485.183.118.42.178.711.178zm8.238-.267v-3.295c0-.237-.039-.44-.117-.608a.866.866 0 00-.362-.404c-.159-.095-.367-.143-.622-.143-.219 0-.408.039-.567.116a.825.825 0 00-.37.321.895.895 0 00-.129.486h-1.969c0-.315.073-.613.219-.896.145-.282.357-.531.635-.745.278-.219.609-.39.992-.513.387-.123.82-.184 1.298-.184.575 0 1.085.095 1.532.287.446.191.797.478 1.052.861.26.383.39.862.39 1.436v3.165c0 .405.025.738.075.998.05.255.123.478.219.67V513h-1.989a2.83 2.83 0 01-.219-.752 6.139 6.139 0 01-.068-.916zm.259-2.837l.014 1.114h-1.101c-.259 0-.485.03-.676.089a1.258 1.258 0 00-.472.253.977.977 0 00-.273.369 1.277 1.277 0 00-.082.465c0 .169.038.321.116.458a.83.83 0 00.335.315c.146.073.316.109.512.109.297 0 .554-.059.773-.178a1.41 1.41 0 00.506-.437c.123-.173.187-.337.191-.492l.52.834c-.073.186-.174.38-.301.581a2.43 2.43 0 01-1.162.998 2.541 2.541 0 01-.957.164c-.47 0-.896-.094-1.279-.281a2.323 2.323 0 01-.902-.786 2.06 2.06 0 01-.328-1.148c0-.387.073-.732.219-1.032.146-.301.36-.554.642-.759.287-.21.645-.367 1.074-.472a6.073 6.073 0 011.49-.164h1.141zm5.319-5.995V513h-1.976v-10.5h1.976z"/>
          <rect width="60" height="60" x="60" y="478" fill="#C4C4C4" rx="15"/>
        </g>
        <g>
          <g filter="url(#filter4_d_1124_4729)">
            <rect width="388" height="80" x="50" y="568" fill="#fff" rx="20"/>
          </g>
          <path fill="#8F8F8F" d="M135.508 602.16c-2.448 0-4.02.828-4.02 2.172 0 1.344 1.572 2.16 4.02 2.16 2.448 0 4.02-.816 4.02-2.16 0-1.344-1.572-2.172-4.02-2.172zm0 1.236c1.512 0 2.376.3 2.376.936 0 .624-.864.936-2.376.936-1.524 0-2.376-.312-2.376-.936 0-.636.852-.936 2.376-.936zm-3.864 5.76v3.792h7.68v-3.792h-7.68zm6.12 1.26v1.272h-4.548v-1.272h4.548zm-7.284-3.288v1.26h10.044v-1.26H130.48zm13.643-4.668v1.068c0 1.404-.78 2.844-2.652 3.444l.78 1.26c2.172-.696 3.192-2.604 3.192-4.704v-1.068h-1.32zm.324 0v1.068c0 2.064.984 3.84 3.108 4.512l.78-1.248c-1.812-.552-2.58-1.896-2.58-3.264v-1.068h-1.308zm-1.272 6.612v1.272h5.976v2.724h1.608v-3.996h-7.584zm5.976-7.116v6.624h1.608v-6.624h-1.608zm11.027-.012v11.148h1.608v-11.148h-1.608zm-4.38.78c-1.68 0-2.916 1.536-2.916 3.96 0 2.448 1.236 3.984 2.916 3.984s2.916-1.536 2.916-3.984c0-2.424-1.236-3.96-2.916-3.96zm0 1.452c.828 0 1.38.876 1.38 2.508 0 1.656-.552 2.544-1.38 2.544-.828 0-1.392-.888-1.392-2.544 0-1.632.564-2.508 1.392-2.508zm7.799 3.384v1.26h10.068v-1.26h-10.068zm1.236-5.4v1.212h6.036v.636h-6.024v2.34h1.584v-1.212h6.012v-2.976h-7.608zm.012 3.6v1.212h7.812v-1.212h-7.812zm.024 3.732v3.456h7.632v-3.456h-7.632zm6.06 1.248v.948h-4.5v-.948h4.5zM373.482 603.026V613h-1.968v-7.704l-2.366.752v-1.552l4.123-1.47h.211zm9.94 4.122v1.723c0 .747-.08 1.392-.239 1.935-.16.537-.39.979-.691 1.326a2.72 2.72 0 01-1.059.759 3.657 3.657 0 01-1.368.246c-.401 0-.774-.05-1.121-.151a2.802 2.802 0 01-.936-.485 3.062 3.062 0 01-.711-.827 4.241 4.241 0 01-.451-1.203 7.302 7.302 0 01-.158-1.6v-1.723c0-.747.08-1.387.24-1.92.164-.538.394-.978.69-1.32a2.717 2.717 0 011.067-.752c.41-.164.865-.246 1.367-.246.401 0 .772.053 1.114.157.346.101.659.258.937.472.278.214.515.49.71.827.196.333.347.732.452 1.196.104.461.157.989.157 1.586zm-1.976 1.983v-2.249c0-.36-.02-.675-.061-.944a2.822 2.822 0 00-.171-.683 1.45 1.45 0 00-.287-.465 1.057 1.057 0 00-.39-.26 1.39 1.39 0 00-.485-.082c-.224 0-.422.044-.595.13a1.113 1.113 0 00-.431.417c-.118.187-.209.438-.273.752a6.18 6.18 0 00-.089 1.135v2.249c0 .36.018.677.055.95.041.273.1.508.177.704.083.192.178.349.288.472.114.118.243.205.389.26.151.054.315.082.492.082.219 0 .413-.044.581-.13.174-.091.319-.233.438-.424.123-.196.214-.451.273-.766.06-.314.089-.697.089-1.148zm10.015-1.983v1.723c0 .747-.08 1.392-.239 1.935-.16.537-.39.979-.691 1.326a2.72 2.72 0 01-1.059.759c-.41.164-.866.246-1.368.246-.401 0-.774-.05-1.121-.151a2.802 2.802 0 01-.936-.485 3.062 3.062 0 01-.711-.827 4.241 4.241 0 01-.451-1.203 7.306 7.306 0 01-.157-1.6v-1.723c0-.747.079-1.387.239-1.92.164-.538.394-.978.69-1.32a2.717 2.717 0 011.067-.752c.41-.164.866-.246 1.367-.246.401 0 .772.053 1.114.157.346.101.659.258.937.472.278.214.515.49.711.827.196.333.346.732.451 1.196.105.461.157.989.157 1.586zm-1.976 1.983v-2.249c0-.36-.02-.675-.061-.944a2.822 2.822 0 00-.171-.683 1.45 1.45 0 00-.287-.465 1.057 1.057 0 00-.39-.26 1.386 1.386 0 00-.485-.082c-.223 0-.422.044-.595.13a1.113 1.113 0 00-.431.417c-.118.187-.209.438-.273.752a6.18 6.18 0 00-.089 1.135v2.249c0 .36.018.677.055.95.041.273.1.508.178.704.082.192.177.349.287.472.114.118.243.205.389.26.151.054.315.082.492.082.219 0 .413-.044.582-.13.173-.091.319-.233.437-.424.123-.196.214-.451.273-.766.06-.314.089-.697.089-1.148zm5.367-6.638V613h-1.969v-10.507h1.969zm4.662 3.111l-3.213 3.664-1.723 1.743-.718-1.422 1.368-1.736 1.92-2.249h2.366zM397.47 613l-2.188-3.418 1.361-1.189 3.096 4.607h-2.269zm5.81-1.401c.242 0 .456-.046.643-.137.187-.096.333-.228.437-.397.11-.173.167-.376.171-.608h1.853c-.005.52-.144.982-.417 1.388a2.88 2.88 0 01-1.101.95c-.46.228-.975.342-1.545.342-.574 0-1.075-.096-1.504-.287a2.946 2.946 0 01-1.059-.793 3.468 3.468 0 01-.636-1.19 4.924 4.924 0 01-.212-1.463v-.198c0-.524.071-1.012.212-1.463.141-.456.353-.852.636-1.189a2.896 2.896 0 011.059-.8c.424-.192.921-.287 1.491-.287.606 0 1.137.116 1.592.348.461.233.821.566 1.08.998.265.429.399.937.404 1.525h-1.853a1.537 1.537 0 00-.157-.67 1.137 1.137 0 00-.424-.479 1.182 1.182 0 00-.677-.184c-.287 0-.521.061-.704.184a1.18 1.18 0 00-.423.493 2.42 2.42 0 00-.212.704c-.037.26-.055.533-.055.82v.198c0 .287.018.563.055.827.036.265.104.499.205.705.104.205.248.366.43.485.183.118.42.178.711.178zm8.238-.267v-3.295c0-.237-.039-.44-.117-.608a.866.866 0 00-.362-.404c-.159-.095-.367-.143-.622-.143-.219 0-.408.039-.567.116a.825.825 0 00-.37.321.895.895 0 00-.129.486h-1.969c0-.315.073-.613.219-.896.145-.282.357-.531.635-.745.278-.219.609-.39.992-.513.387-.123.82-.184 1.298-.184.575 0 1.085.095 1.532.287.446.191.797.478 1.052.861.26.383.39.862.39 1.436v3.165c0 .405.025.738.075.998.05.255.123.478.219.67V613h-1.989a2.83 2.83 0 01-.219-.752 6.139 6.139 0 01-.068-.916zm.259-2.837l.014 1.114h-1.101c-.259 0-.485.03-.676.089a1.258 1.258 0 00-.472.253.977.977 0 00-.273.369 1.277 1.277 0 00-.082.465c0 .169.038.321.116.458a.83.83 0 00.335.315c.146.073.316.109.512.109.297 0 .554-.059.773-.178a1.41 1.41 0 00.506-.437c.123-.173.187-.337.191-.492l.52.834c-.073.186-.174.38-.301.581a2.43 2.43 0 01-1.162.998 2.541 2.541 0 01-.957.164c-.47 0-.896-.094-1.279-.281a2.323 2.323 0 01-.902-.786 2.06 2.06 0 01-.328-1.148c0-.387.073-.732.219-1.032.146-.301.36-.554.642-.759.287-.21.645-.367 1.074-.472a6.073 6.073 0 011.49-.164h1.141zm5.319-5.995V613h-1.976v-10.5h1.976z"/>
          <rect width="60" height="60" x="60" y="578" fill="#C4C4C4" rx="15"/>
        </g>
        <g>
          <g filter="url(#filter5_d_1124_4729)">
            <rect width="388" height="80" x="50" y="668" fill="#fff" rx="20"/>
          </g>
          <path fill="#8F8F8F" d="M135.508 702.16c-2.448 0-4.02.828-4.02 2.172 0 1.344 1.572 2.16 4.02 2.16 2.448 0 4.02-.816 4.02-2.16 0-1.344-1.572-2.172-4.02-2.172zm0 1.236c1.512 0 2.376.3 2.376.936 0 .624-.864.936-2.376.936-1.524 0-2.376-.312-2.376-.936 0-.636.852-.936 2.376-.936zm-3.864 5.76v3.792h7.68v-3.792h-7.68zm6.12 1.26v1.272h-4.548v-1.272h4.548zm-7.284-3.288v1.26h10.044v-1.26H130.48zm13.643-4.668v1.068c0 1.404-.78 2.844-2.652 3.444l.78 1.26c2.172-.696 3.192-2.604 3.192-4.704v-1.068h-1.32zm.324 0v1.068c0 2.064.984 3.84 3.108 4.512l.78-1.248c-1.812-.552-2.58-1.896-2.58-3.264v-1.068h-1.308zm-1.272 6.612v1.272h5.976v2.724h1.608v-3.996h-7.584zm5.976-7.116v6.624h1.608v-6.624h-1.608zm11.027-.012v11.148h1.608v-11.148h-1.608zm-4.38.78c-1.68 0-2.916 1.536-2.916 3.96 0 2.448 1.236 3.984 2.916 3.984s2.916-1.536 2.916-3.984c0-2.424-1.236-3.96-2.916-3.96zm0 1.452c.828 0 1.38.876 1.38 2.508 0 1.656-.552 2.544-1.38 2.544-.828 0-1.392-.888-1.392-2.544 0-1.632.564-2.508 1.392-2.508zm7.799 3.384v1.26h10.068v-1.26h-10.068zm1.236-5.4v1.212h6.036v.636h-6.024v2.34h1.584v-1.212h6.012v-2.976h-7.608zm.012 3.6v1.212h7.812v-1.212h-7.812zm.024 3.732v3.456h7.632v-3.456h-7.632zm6.06 1.248v.948h-4.5v-.948h4.5zM373.482 703.026V713h-1.968v-7.704l-2.366.752v-1.552l4.123-1.47h.211zm9.94 4.122v1.723c0 .747-.08 1.392-.239 1.935-.16.537-.39.979-.691 1.326a2.72 2.72 0 01-1.059.759 3.657 3.657 0 01-1.368.246c-.401 0-.774-.05-1.121-.151a2.802 2.802 0 01-.936-.485 3.062 3.062 0 01-.711-.827 4.241 4.241 0 01-.451-1.203 7.302 7.302 0 01-.158-1.6v-1.723c0-.747.08-1.387.24-1.92.164-.538.394-.978.69-1.32a2.717 2.717 0 011.067-.752c.41-.164.865-.246 1.367-.246.401 0 .772.053 1.114.157.346.101.659.258.937.472.278.214.515.49.71.827.196.333.347.732.452 1.196.104.461.157.989.157 1.586zm-1.976 1.983v-2.249c0-.36-.02-.675-.061-.944a2.822 2.822 0 00-.171-.683 1.45 1.45 0 00-.287-.465 1.057 1.057 0 00-.39-.26 1.39 1.39 0 00-.485-.082c-.224 0-.422.044-.595.13a1.113 1.113 0 00-.431.417c-.118.187-.209.438-.273.752a6.18 6.18 0 00-.089 1.135v2.249c0 .36.018.677.055.95.041.273.1.508.177.704.083.192.178.349.288.472.114.118.243.205.389.26.151.054.315.082.492.082.219 0 .413-.044.581-.13.174-.091.319-.233.438-.424.123-.196.214-.451.273-.766.06-.314.089-.697.089-1.148zm10.015-1.983v1.723c0 .747-.08 1.392-.239 1.935-.16.537-.39.979-.691 1.326a2.72 2.72 0 01-1.059.759c-.41.164-.866.246-1.368.246-.401 0-.774-.05-1.121-.151a2.802 2.802 0 01-.936-.485 3.062 3.062 0 01-.711-.827 4.241 4.241 0 01-.451-1.203 7.306 7.306 0 01-.157-1.6v-1.723c0-.747.079-1.387.239-1.92.164-.538.394-.978.69-1.32a2.717 2.717 0 011.067-.752c.41-.164.866-.246 1.367-.246.401 0 .772.053 1.114.157.346.101.659.258.937.472.278.214.515.49.711.827.196.333.346.732.451 1.196.105.461.157.989.157 1.586zm-1.976 1.983v-2.249c0-.36-.02-.675-.061-.944a2.822 2.822 0 00-.171-.683 1.45 1.45 0 00-.287-.465 1.057 1.057 0 00-.39-.26 1.386 1.386 0 00-.485-.082c-.223 0-.422.044-.595.13a1.113 1.113 0 00-.431.417c-.118.187-.209.438-.273.752a6.18 6.18 0 00-.089 1.135v2.249c0 .36.018.677.055.95.041.273.1.508.178.704.082.192.177.349.287.472.114.118.243.205.389.26.151.054.315.082.492.082.219 0 .413-.044.582-.13.173-.091.319-.233.437-.424.123-.196.214-.451.273-.766.06-.314.089-.697.089-1.148zm5.367-6.638V713h-1.969v-10.507h1.969zm4.662 3.111l-3.213 3.664-1.723 1.743-.718-1.422 1.368-1.736 1.92-2.249h2.366zM397.47 713l-2.188-3.418 1.361-1.189 3.096 4.607h-2.269zm5.81-1.401c.242 0 .456-.046.643-.137.187-.096.333-.228.437-.397.11-.173.167-.376.171-.608h1.853c-.005.52-.144.982-.417 1.388a2.88 2.88 0 01-1.101.95c-.46.228-.975.342-1.545.342-.574 0-1.075-.096-1.504-.287a2.946 2.946 0 01-1.059-.793 3.468 3.468 0 01-.636-1.19 4.924 4.924 0 01-.212-1.463v-.198c0-.524.071-1.012.212-1.463.141-.456.353-.852.636-1.189a2.896 2.896 0 011.059-.8c.424-.192.921-.287 1.491-.287.606 0 1.137.116 1.592.348.461.233.821.566 1.08.998.265.429.399.937.404 1.525h-1.853a1.537 1.537 0 00-.157-.67 1.137 1.137 0 00-.424-.479 1.182 1.182 0 00-.677-.184c-.287 0-.521.061-.704.184a1.18 1.18 0 00-.423.493 2.42 2.42 0 00-.212.704c-.037.26-.055.533-.055.82v.198c0 .287.018.563.055.827.036.265.104.499.205.705.104.205.248.366.43.485.183.118.42.178.711.178zm8.238-.267v-3.295c0-.237-.039-.44-.117-.608a.866.866 0 00-.362-.404c-.159-.095-.367-.143-.622-.143-.219 0-.408.039-.567.116a.825.825 0 00-.37.321.895.895 0 00-.129.486h-1.969c0-.315.073-.613.219-.896.145-.282.357-.531.635-.745.278-.219.609-.39.992-.513.387-.123.82-.184 1.298-.184.575 0 1.085.095 1.532.287.446.191.797.478 1.052.861.26.383.39.862.39 1.436v3.165c0 .405.025.738.075.998.05.255.123.478.219.67V713h-1.989a2.83 2.83 0 01-.219-.752 6.139 6.139 0 01-.068-.916zm.259-2.837l.014 1.114h-1.101c-.259 0-.485.03-.676.089a1.258 1.258 0 00-.472.253.977.977 0 00-.273.369 1.277 1.277 0 00-.082.465c0 .169.038.321.116.458a.83.83 0 00.335.315c.146.073.316.109.512.109.297 0 .554-.059.773-.178a1.41 1.41 0 00.506-.437c.123-.173.187-.337.191-.492l.52.834c-.073.186-.174.38-.301.581a2.43 2.43 0 01-1.162.998 2.541 2.541 0 01-.957.164c-.47 0-.896-.094-1.279-.281a2.323 2.323 0 01-.902-.786 2.06 2.06 0 01-.328-1.148c0-.387.073-.732.219-1.032.146-.301.36-.554.642-.759.287-.21.645-.367 1.074-.472a6.073 6.073 0 011.49-.164h1.141zm5.319-5.995V713h-1.976v-10.5h1.976z"/>
          <rect width="60" height="60" x="60" y="678" fill="#C4C4C4" rx="15"/>
        </g>
        <g>
          <g filter="url(#filter6_d_1124_4729)">
            <rect width="388" height="80" x="50" y="768" fill="#fff" rx="20"/>
          </g>
          <path fill="#8F8F8F" d="M135.508 802.16c-2.448 0-4.02.828-4.02 2.172 0 1.344 1.572 2.16 4.02 2.16 2.448 0 4.02-.816 4.02-2.16 0-1.344-1.572-2.172-4.02-2.172zm0 1.236c1.512 0 2.376.3 2.376.936 0 .624-.864.936-2.376.936-1.524 0-2.376-.312-2.376-.936 0-.636.852-.936 2.376-.936zm-3.864 5.76v3.792h7.68v-3.792h-7.68zm6.12 1.26v1.272h-4.548v-1.272h4.548zm-7.284-3.288v1.26h10.044v-1.26H130.48zm13.643-4.668v1.068c0 1.404-.78 2.844-2.652 3.444l.78 1.26c2.172-.696 3.192-2.604 3.192-4.704v-1.068h-1.32zm.324 0v1.068c0 2.064.984 3.84 3.108 4.512l.78-1.248c-1.812-.552-2.58-1.896-2.58-3.264v-1.068h-1.308zm-1.272 6.612v1.272h5.976v2.724h1.608v-3.996h-7.584zm5.976-7.116v6.624h1.608v-6.624h-1.608zm11.027-.012v11.148h1.608v-11.148h-1.608zm-4.38.78c-1.68 0-2.916 1.536-2.916 3.96 0 2.448 1.236 3.984 2.916 3.984s2.916-1.536 2.916-3.984c0-2.424-1.236-3.96-2.916-3.96zm0 1.452c.828 0 1.38.876 1.38 2.508 0 1.656-.552 2.544-1.38 2.544-.828 0-1.392-.888-1.392-2.544 0-1.632.564-2.508 1.392-2.508zm7.799 3.384v1.26h10.068v-1.26h-10.068zm1.236-5.4v1.212h6.036v.636h-6.024v2.34h1.584v-1.212h6.012v-2.976h-7.608zm.012 3.6v1.212h7.812v-1.212h-7.812zm.024 3.732v3.456h7.632v-3.456h-7.632zm6.06 1.248v.948h-4.5v-.948h4.5zM373.482 803.026V813h-1.968v-7.704l-2.366.752v-1.552l4.123-1.47h.211zm9.94 4.122v1.723c0 .747-.08 1.392-.239 1.935-.16.537-.39.979-.691 1.326a2.72 2.72 0 01-1.059.759 3.657 3.657 0 01-1.368.246c-.401 0-.774-.05-1.121-.151a2.802 2.802 0 01-.936-.485 3.062 3.062 0 01-.711-.827 4.241 4.241 0 01-.451-1.203 7.302 7.302 0 01-.158-1.6v-1.723c0-.747.08-1.387.24-1.92.164-.538.394-.978.69-1.32a2.717 2.717 0 011.067-.752c.41-.164.865-.246 1.367-.246.401 0 .772.053 1.114.157.346.101.659.258.937.472.278.214.515.49.71.827.196.333.347.732.452 1.196.104.461.157.989.157 1.586zm-1.976 1.983v-2.249c0-.36-.02-.675-.061-.944a2.822 2.822 0 00-.171-.683 1.45 1.45 0 00-.287-.465 1.057 1.057 0 00-.39-.26 1.39 1.39 0 00-.485-.082c-.224 0-.422.044-.595.13a1.113 1.113 0 00-.431.417c-.118.187-.209.438-.273.752a6.18 6.18 0 00-.089 1.135v2.249c0 .36.018.677.055.95.041.273.1.508.177.704.083.192.178.349.288.472.114.118.243.205.389.26.151.054.315.082.492.082.219 0 .413-.044.581-.13.174-.091.319-.233.438-.424.123-.196.214-.451.273-.766.06-.314.089-.697.089-1.148zm10.015-1.983v1.723c0 .747-.08 1.392-.239 1.935-.16.537-.39.979-.691 1.326a2.72 2.72 0 01-1.059.759c-.41.164-.866.246-1.368.246-.401 0-.774-.05-1.121-.151a2.802 2.802 0 01-.936-.485 3.062 3.062 0 01-.711-.827 4.241 4.241 0 01-.451-1.203 7.306 7.306 0 01-.157-1.6v-1.723c0-.747.079-1.387.239-1.92.164-.538.394-.978.69-1.32a2.717 2.717 0 011.067-.752c.41-.164.866-.246 1.367-.246.401 0 .772.053 1.114.157.346.101.659.258.937.472.278.214.515.49.711.827.196.333.346.732.451 1.196.105.461.157.989.157 1.586zm-1.976 1.983v-2.249c0-.36-.02-.675-.061-.944a2.822 2.822 0 00-.171-.683 1.45 1.45 0 00-.287-.465 1.057 1.057 0 00-.39-.26 1.386 1.386 0 00-.485-.082c-.223 0-.422.044-.595.13a1.113 1.113 0 00-.431.417c-.118.187-.209.438-.273.752a6.18 6.18 0 00-.089 1.135v2.249c0 .36.018.677.055.95.041.273.1.508.178.704.082.192.177.349.287.472.114.118.243.205.389.26.151.054.315.082.492.082.219 0 .413-.044.582-.13.173-.091.319-.233.437-.424.123-.196.214-.451.273-.766.06-.314.089-.697.089-1.148zm5.367-6.638V813h-1.969v-10.507h1.969zm4.662 3.111l-3.213 3.664-1.723 1.743-.718-1.422 1.368-1.736 1.92-2.249h2.366zM397.47 813l-2.188-3.418 1.361-1.189 3.096 4.607h-2.269zm5.81-1.401c.242 0 .456-.046.643-.137.187-.096.333-.228.437-.397.11-.173.167-.376.171-.608h1.853c-.005.52-.144.982-.417 1.388a2.88 2.88 0 01-1.101.95c-.46.228-.975.342-1.545.342-.574 0-1.075-.096-1.504-.287a2.946 2.946 0 01-1.059-.793 3.468 3.468 0 01-.636-1.19 4.924 4.924 0 01-.212-1.463v-.198c0-.524.071-1.012.212-1.463.141-.456.353-.852.636-1.189a2.896 2.896 0 011.059-.8c.424-.192.921-.287 1.491-.287.606 0 1.137.116 1.592.348.461.233.821.566 1.08.998.265.429.399.937.404 1.525h-1.853a1.537 1.537 0 00-.157-.67 1.137 1.137 0 00-.424-.479 1.182 1.182 0 00-.677-.184c-.287 0-.521.061-.704.184a1.18 1.18 0 00-.423.493 2.42 2.42 0 00-.212.704c-.037.26-.055.533-.055.82v.198c0 .287.018.563.055.827.036.265.104.499.205.705.104.205.248.366.43.485.183.118.42.178.711.178zm8.238-.267v-3.295c0-.237-.039-.44-.117-.608a.866.866 0 00-.362-.404c-.159-.095-.367-.143-.622-.143-.219 0-.408.039-.567.116a.825.825 0 00-.37.321.895.895 0 00-.129.486h-1.969c0-.315.073-.613.219-.896.145-.282.357-.531.635-.745.278-.219.609-.39.992-.513.387-.123.82-.184 1.298-.184.575 0 1.085.095 1.532.287.446.191.797.478 1.052.861.26.383.39.862.39 1.436v3.165c0 .405.025.738.075.998.05.255.123.478.219.67V813h-1.989a2.83 2.83 0 01-.219-.752 6.139 6.139 0 01-.068-.916zm.259-2.837l.014 1.114h-1.101c-.259 0-.485.03-.676.089a1.258 1.258 0 00-.472.253.977.977 0 00-.273.369 1.277 1.277 0 00-.082.465c0 .169.038.321.116.458a.83.83 0 00.335.315c.146.073.316.109.512.109.297 0 .554-.059.773-.178a1.41 1.41 0 00.506-.437c.123-.173.187-.337.191-.492l.52.834c-.073.186-.174.38-.301.581a2.43 2.43 0 01-1.162.998 2.541 2.541 0 01-.957.164c-.47 0-.896-.094-1.279-.281a2.323 2.323 0 01-.902-.786 2.06 2.06 0 01-.328-1.148c0-.387.073-.732.219-1.032.146-.301.36-.554.642-.759.287-.21.645-.367 1.074-.472a6.073 6.073 0 011.49-.164h1.141zm5.319-5.995V813h-1.976v-10.5h1.976z"/>
          <rect width="60" height="60" x="60" y="778" fill="#C4C4C4" rx="15"/>
        </g>
        <g>
          <g filter="url(#filter7_d_1124_4729)">
            <rect width="388" height="80" x="50" y="868" fill="#fff" rx="20"/>
          </g>
          <path fill="#8F8F8F" d="M135.508 902.16c-2.448 0-4.02.828-4.02 2.172 0 1.344 1.572 2.16 4.02 2.16 2.448 0 4.02-.816 4.02-2.16 0-1.344-1.572-2.172-4.02-2.172zm0 1.236c1.512 0 2.376.3 2.376.936 0 .624-.864.936-2.376.936-1.524 0-2.376-.312-2.376-.936 0-.636.852-.936 2.376-.936zm-3.864 5.76v3.792h7.68v-3.792h-7.68zm6.12 1.26v1.272h-4.548v-1.272h4.548zm-7.284-3.288v1.26h10.044v-1.26H130.48zm13.643-4.668v1.068c0 1.404-.78 2.844-2.652 3.444l.78 1.26c2.172-.696 3.192-2.604 3.192-4.704v-1.068h-1.32zm.324 0v1.068c0 2.064.984 3.84 3.108 4.512l.78-1.248c-1.812-.552-2.58-1.896-2.58-3.264v-1.068h-1.308zm-1.272 6.612v1.272h5.976v2.724h1.608v-3.996h-7.584zm5.976-7.116v6.624h1.608v-6.624h-1.608zm11.027-.012v11.148h1.608v-11.148h-1.608zm-4.38.78c-1.68 0-2.916 1.536-2.916 3.96 0 2.448 1.236 3.984 2.916 3.984s2.916-1.536 2.916-3.984c0-2.424-1.236-3.96-2.916-3.96zm0 1.452c.828 0 1.38.876 1.38 2.508 0 1.656-.552 2.544-1.38 2.544-.828 0-1.392-.888-1.392-2.544 0-1.632.564-2.508 1.392-2.508zm7.799 3.384v1.26h10.068v-1.26h-10.068zm1.236-5.4v1.212h6.036v.636h-6.024v2.34h1.584v-1.212h6.012v-2.976h-7.608zm.012 3.6v1.212h7.812v-1.212h-7.812zm.024 3.732v3.456h7.632v-3.456h-7.632zm6.06 1.248v.948h-4.5v-.948h4.5zM373.482 903.026V913h-1.968v-7.704l-2.366.752v-1.552l4.123-1.47h.211zm9.94 4.122v1.723c0 .747-.08 1.392-.239 1.935-.16.537-.39.979-.691 1.326a2.72 2.72 0 01-1.059.759 3.657 3.657 0 01-1.368.246c-.401 0-.774-.05-1.121-.151a2.802 2.802 0 01-.936-.485 3.062 3.062 0 01-.711-.827 4.241 4.241 0 01-.451-1.203 7.302 7.302 0 01-.158-1.6v-1.723c0-.747.08-1.387.24-1.92.164-.538.394-.978.69-1.32a2.717 2.717 0 011.067-.752c.41-.164.865-.246 1.367-.246.401 0 .772.053 1.114.157.346.101.659.258.937.472.278.214.515.49.71.827.196.333.347.732.452 1.196.104.461.157.989.157 1.586zm-1.976 1.983v-2.249c0-.36-.02-.675-.061-.944a2.822 2.822 0 00-.171-.683 1.45 1.45 0 00-.287-.465 1.057 1.057 0 00-.39-.26 1.39 1.39 0 00-.485-.082c-.224 0-.422.044-.595.13a1.113 1.113 0 00-.431.417c-.118.187-.209.438-.273.752a6.18 6.18 0 00-.089 1.135v2.249c0 .36.018.677.055.95.041.273.1.508.177.704.083.192.178.349.288.472.114.118.243.205.389.26.151.054.315.082.492.082.219 0 .413-.044.581-.13.174-.091.319-.233.438-.424.123-.196.214-.451.273-.766.06-.314.089-.697.089-1.148zm10.015-1.983v1.723c0 .747-.08 1.392-.239 1.935-.16.537-.39.979-.691 1.326a2.72 2.72 0 01-1.059.759c-.41.164-.866.246-1.368.246-.401 0-.774-.05-1.121-.151a2.802 2.802 0 01-.936-.485 3.062 3.062 0 01-.711-.827 4.241 4.241 0 01-.451-1.203 7.306 7.306 0 01-.157-1.6v-1.723c0-.747.079-1.387.239-1.92.164-.538.394-.978.69-1.32a2.717 2.717 0 011.067-.752c.41-.164.866-.246 1.367-.246.401 0 .772.053 1.114.157.346.101.659.258.937.472.278.214.515.49.711.827.196.333.346.732.451 1.196.105.461.157.989.157 1.586zm-1.976 1.983v-2.249c0-.36-.02-.675-.061-.944a2.822 2.822 0 00-.171-.683 1.45 1.45 0 00-.287-.465 1.057 1.057 0 00-.39-.26 1.386 1.386 0 00-.485-.082c-.223 0-.422.044-.595.13a1.113 1.113 0 00-.431.417c-.118.187-.209.438-.273.752a6.18 6.18 0 00-.089 1.135v2.249c0 .36.018.677.055.95.041.273.1.508.178.704.082.192.177.349.287.472.114.118.243.205.389.26.151.054.315.082.492.082.219 0 .413-.044.582-.13.173-.091.319-.233.437-.424.123-.196.214-.451.273-.766.06-.314.089-.697.089-1.148zm5.367-6.638V913h-1.969v-10.507h1.969zm4.662 3.111l-3.213 3.664-1.723 1.743-.718-1.422 1.368-1.736 1.92-2.249h2.366zM397.47 913l-2.188-3.418 1.361-1.189 3.096 4.607h-2.269zm5.81-1.401c.242 0 .456-.046.643-.137.187-.096.333-.228.437-.397.11-.173.167-.376.171-.608h1.853c-.005.52-.144.982-.417 1.388a2.88 2.88 0 01-1.101.95c-.46.228-.975.342-1.545.342-.574 0-1.075-.096-1.504-.287a2.946 2.946 0 01-1.059-.793 3.468 3.468 0 01-.636-1.19 4.924 4.924 0 01-.212-1.463v-.198c0-.524.071-1.012.212-1.463.141-.456.353-.852.636-1.189a2.896 2.896 0 011.059-.8c.424-.192.921-.287 1.491-.287.606 0 1.137.116 1.592.348.461.233.821.566 1.08.998.265.429.399.937.404 1.525h-1.853a1.537 1.537 0 00-.157-.67 1.137 1.137 0 00-.424-.479 1.182 1.182 0 00-.677-.184c-.287 0-.521.061-.704.184a1.18 1.18 0 00-.423.493 2.42 2.42 0 00-.212.704c-.037.26-.055.533-.055.82v.198c0 .287.018.563.055.827.036.265.104.499.205.705.104.205.248.366.43.485.183.118.42.178.711.178zm8.238-.267v-3.295c0-.237-.039-.44-.117-.608a.866.866 0 00-.362-.404c-.159-.095-.367-.143-.622-.143-.219 0-.408.039-.567.116a.825.825 0 00-.37.321.895.895 0 00-.129.486h-1.969c0-.315.073-.613.219-.896.145-.282.357-.531.635-.745.278-.219.609-.39.992-.513.387-.123.82-.184 1.298-.184.575 0 1.085.095 1.532.287.446.191.797.478 1.052.861.26.383.39.862.39 1.436v3.165c0 .405.025.738.075.998.05.255.123.478.219.67V913h-1.989a2.83 2.83 0 01-.219-.752 6.139 6.139 0 01-.068-.916zm.259-2.837l.014 1.114h-1.101c-.259 0-.485.03-.676.089a1.258 1.258 0 00-.472.253.977.977 0 00-.273.369 1.277 1.277 0 00-.082.465c0 .169.038.321.116.458a.83.83 0 00.335.315c.146.073.316.109.512.109.297 0 .554-.059.773-.178a1.41 1.41 0 00.506-.437c.123-.173.187-.337.191-.492l.52.834c-.073.186-.174.38-.301.581a2.43 2.43 0 01-1.162.998 2.541 2.541 0 01-.957.164c-.47 0-.896-.094-1.279-.281a2.323 2.323 0 01-.902-.786 2.06 2.06 0 01-.328-1.148c0-.387.073-.732.219-1.032.146-.301.36-.554.642-.759.287-.21.645-.367 1.074-.472a6.073 6.073 0 011.49-.164h1.141zm5.319-5.995V913h-1.976v-10.5h1.976z"/>
          <rect width="60" height="60" x="60" y="878" fill="#C4C4C4" rx="15"/>
        </g>
        <rect width="427" height="919" x="30.5" y="248.5" stroke="#7B61FF" stroke-dasharray="10 5" rx="4.5"/>
      </g>
      <g filter="url(#filter8_d_1124_4729)">
        <rect width="428" height="610" x="30" y="358" fill="#fff" rx="30"/>
      </g>
      <path fill="#A8A8A8" d="M80.63 435.24h-2.67c.15-1.29.24-2.61.24-4.02H67.46v3.15h6.81c-.51 5.4-2.91 9.39-8.37 12.72l2.25 2.76c5.16-3.06 7.92-6.9 9.15-11.46h3.33v3.75h-3.84v3.18h3.84v9.06h3.69v-25.83h-3.69v6.69zm5.67-7.32v27.66h3.75v-27.66H86.3zm23.488 12.45c-3.45.63-6.48.81-10.98.84v-2.85h8.64v-8.76h-12.6v3.18h8.7v2.61h-8.67v9h2.37c5.52 0 9.03-.15 12.87-.87l-.33-3.15zm-7.89 6.33h-3.96v8.4h18.72v-3.15h-14.76v-5.25zm13.74-10.8v-7.95h-3.96v20.37h3.96v-9.18h3.66v-3.24h-3.66zm36.988-5.07h-9.21v-2.91h-3.96v2.91h-9.3v3.09h22.47v-3.09zm-5.82 8.94c0 1.23-1.77 1.8-5.37 1.8s-5.34-.57-5.34-1.8c0-1.29 1.74-1.83 5.34-1.83 3.6 0 5.37.54 5.37 1.83zm-14.82 0c0 3.03 3.54 4.74 9.45 4.74 5.91 0 9.48-1.71 9.48-4.74 0-3.06-3.57-4.77-9.48-4.77s-9.45 1.71-9.45 4.77zm21.99 6.06h-25.02v3.18h10.5v6.6h3.96v-6.6h10.56v-3.18zm7.618-4.86h8.76v-10.68h-12.69v3.15h8.79v4.41h-8.76v11.4h2.34c4.8 0 8.61-.18 12.75-.93l-.36-3.21c-3.6.63-6.87.84-10.83.87v-5.01zm20.61-2.61h-3.96v-10.44h-3.96v27.72h3.96v-14.01h3.96v-3.27zm20.877-10.44v27.72h3.96v-27.72h-3.96zm-10.89 1.95c-4.17 0-7.26 3.78-7.26 9.84 0 6.09 3.09 9.9 7.26 9.9s7.26-3.81 7.26-9.9c0-6.06-3.09-9.84-7.26-9.84zm0 3.57c2.04 0 3.45 2.19 3.45 6.27 0 4.11-1.41 6.3-3.45 6.3s-3.45-2.19-3.45-6.3c0-4.08 1.41-6.27 3.45-6.27zM383.402 447.022V449h-8.754v-1.688l4.14-4.438c.416-.463.744-.87.984-1.222.241-.357.414-.676.519-.958.111-.287.167-.559.167-.817 0-.387-.064-.718-.193-.993a1.448 1.448 0 00-.572-.651c-.246-.152-.55-.228-.914-.228-.386 0-.72.094-1.002.281a1.79 1.79 0 00-.632.782 2.891 2.891 0 00-.211 1.134h-2.54c0-.762.181-1.459.544-2.092a4 4 0 011.539-1.52c.662-.381 1.447-.571 2.355-.571.897 0 1.652.146 2.268.439.621.287 1.089.703 1.406 1.248.322.539.483 1.184.483 1.934 0 .422-.067.835-.202 1.239a5.603 5.603 0 01-.58 1.195 9.69 9.69 0 01-.896 1.196c-.352.404-.742.823-1.169 1.256l-2.224 2.496h5.484zm3.964-3.849l-2.021-.484.729-6.486h7.19v2.048h-5.107l-.316 2.839c.17-.1.428-.205.773-.317a3.609 3.609 0 011.16-.175c.622 0 1.172.096 1.653.29.48.193.887.474 1.221.843.34.37.598.821.774 1.354.176.533.264 1.137.264 1.811 0 .568-.088 1.11-.264 1.625-.176.51-.443.967-.8 1.372a3.74 3.74 0 01-1.345.94c-.539.229-1.177.343-1.916.343-.55 0-1.084-.082-1.599-.246a4.393 4.393 0 01-1.38-.73 3.759 3.759 0 01-.976-1.169c-.24-.463-.366-.99-.378-1.582h2.514c.035.363.129.677.281.941.158.257.366.457.624.597.258.141.56.211.906.211.322 0 .597-.061.826-.184a1.49 1.49 0 00.553-.51 2.39 2.39 0 00.308-.774c.07-.298.106-.621.106-.966 0-.346-.042-.66-.124-.941a2.021 2.021 0 00-.377-.729 1.672 1.672 0 00-.651-.475 2.273 2.273 0 00-.905-.167c-.469 0-.832.073-1.09.22a2.604 2.604 0 00-.633.501zm16.568-1.696v2.214c0 .961-.103 1.79-.308 2.488-.205.691-.501 1.259-.888 1.705a3.51 3.51 0 01-1.362.975 4.691 4.691 0 01-1.758.317c-.515 0-.996-.065-1.441-.194a3.589 3.589 0 01-1.204-.624 3.931 3.931 0 01-.914-1.063 5.432 5.432 0 01-.58-1.547c-.135-.598-.203-1.283-.203-2.057v-2.214c0-.961.103-1.785.308-2.47.211-.692.507-1.257.888-1.696.386-.44.843-.762 1.371-.967a4.691 4.691 0 011.758-.317c.515 0 .993.068 1.432.202.446.129.847.332 1.204.607.358.275.662.63.914 1.063.252.428.446.941.58 1.539.135.591.203 1.271.203 2.039zm-2.54 2.548v-2.891c0-.463-.027-.867-.08-1.213a3.545 3.545 0 00-.219-.879 1.88 1.88 0 00-.369-.598 1.366 1.366 0 00-.501-.334 1.776 1.776 0 00-.624-.105c-.288 0-.542.056-.765.167-.217.111-.401.29-.554.536-.152.24-.269.563-.351.967a7.839 7.839 0 00-.115 1.459v2.891c0 .463.024.871.071 1.222.052.352.129.653.228.905.106.246.229.449.369.607.147.152.314.263.501.334.194.07.405.105.633.105.281 0 .53-.055.747-.167.223-.117.41-.299.563-.545.158-.252.275-.58.351-.984.076-.404.115-.897.115-1.477zm6.899-8.534V449h-2.531v-13.509h2.531zm5.994 3.999l-4.131 4.711-2.215 2.241-.922-1.828 1.757-2.232 2.47-2.892h3.041zm-2.628 9.51l-2.812-4.395 1.749-1.529 3.981 5.924h-2.918zm7.471-1.802c.31 0 .586-.058.826-.176.24-.123.428-.293.563-.509a1.5 1.5 0 00.219-.783h2.382a3.17 3.17 0 01-.536 1.785 3.686 3.686 0 01-1.415 1.221c-.592.293-1.254.44-1.986.44-.739 0-1.383-.123-1.934-.369a3.766 3.766 0 01-1.362-1.02 4.457 4.457 0 01-.818-1.529 6.341 6.341 0 01-.272-1.881v-.255c0-.674.091-1.301.272-1.881a4.359 4.359 0 01.818-1.529c.363-.44.817-.782 1.362-1.028.545-.246 1.184-.37 1.916-.37.779 0 1.462.15 2.048.449a3.337 3.337 0 011.389 1.283c.339.551.512 1.204.518 1.96h-2.382a1.977 1.977 0 00-.202-.861 1.464 1.464 0 00-.545-.616c-.234-.158-.524-.237-.87-.237-.369 0-.671.079-.905.237a1.52 1.52 0 00-.545.633c-.129.264-.22.566-.273.905-.046.334-.07.686-.07 1.055v.255c0 .369.024.724.07 1.063.047.34.135.642.264.906.135.263.319.471.554.624.234.152.539.228.914.228zm10.591-.343v-4.236c0-.305-.05-.565-.15-.782a1.108 1.108 0 00-.466-.519c-.205-.123-.471-.184-.799-.184-.282 0-.525.05-.73.149a1.058 1.058 0 00-.474.413 1.137 1.137 0 00-.167.624h-2.532c0-.404.094-.788.282-1.151.187-.363.46-.683.817-.958a4.032 4.032 0 011.274-.659 5.508 5.508 0 011.67-.238c.739 0 1.395.124 1.969.37a3.015 3.015 0 011.354 1.107c.334.492.501 1.107.501 1.846v4.069c0 .522.032.949.096 1.283.065.328.158.615.281.862V449h-2.557a3.642 3.642 0 01-.281-.967 7.907 7.907 0 01-.088-1.178zm.334-3.647l.017 1.433h-1.415a2.96 2.96 0 00-.87.114 1.609 1.609 0 00-.606.325 1.248 1.248 0 00-.352.475c-.07.181-.105.381-.105.597 0 .217.049.413.149.589.1.17.243.305.431.405.187.093.407.14.659.14.381 0 .712-.076.993-.228.281-.153.498-.34.65-.563.159-.223.241-.433.247-.633l.668 1.073c-.094.24-.223.489-.387.747a3.494 3.494 0 01-.607.729 3.137 3.137 0 01-.887.554c-.346.14-.756.211-1.231.211-.603 0-1.151-.12-1.643-.361a3.004 3.004 0 01-1.161-1.01 2.657 2.657 0 01-.421-1.477c0-.498.093-.94.281-1.327.187-.387.463-.712.826-.976.369-.269.829-.471 1.38-.606.551-.141 1.189-.211 1.916-.211h1.468zm6.838-7.708V449h-2.54v-13.5h2.54zM262.872 434.696v2.52h5.592c-.408 4.344-2.28 7.536-6.72 10.128l1.848 2.208c6.168-3.6 7.992-8.664 7.992-14.856h-8.712zm15.072-2.736v8.328h-1.968v-7.752h-2.952v20.592h2.952v-10.296h1.968v11.232h3.024V431.96h-3.024zM236.721 408.511l9.772 9.87a1.746 1.746 0 010 2.46l-1.623 1.64a1.706 1.706 0 01-2.436 0l-6.934-6.989-6.927 6.996a1.703 1.703 0 01-2.435 0l-1.631-1.64a1.746 1.746 0 010-2.46l9.772-9.87a1.707 1.707 0 012.442-.007zM234.285 477.488l-9.778-9.874a1.747 1.747 0 010-2.461l1.625-1.641a1.705 1.705 0 012.437 0l6.931 6.999 6.931-6.999a1.705 1.705 0 012.437 0l1.625 1.641a1.747 1.747 0 010 2.461l-9.778 9.874a1.697 1.697 0 01-2.43 0z"/>
      <rect width="30" height="30" x="221" y="428" fill="#A8A8A8" rx="5"/>
      <path fill="#fff" d="M240.703 447.803V450h-9.726v-1.875l4.599-4.932c.462-.514.827-.966 1.094-1.357.267-.397.459-.752.576-1.065.124-.319.186-.621.186-.908 0-.429-.072-.797-.215-1.103a1.596 1.596 0 00-.635-.723c-.273-.169-.612-.254-1.016-.254-.429 0-.8.104-1.113.313-.306.208-.54.498-.703.869a3.224 3.224 0 00-.234 1.26h-2.823c0-.847.202-1.621.606-2.325a4.439 4.439 0 011.709-1.689c.735-.423 1.608-.635 2.617-.635.996 0 1.836.163 2.52.488.69.319 1.21.782 1.562 1.387.358.599.537 1.315.537 2.149 0 .468-.075.927-.224 1.377-.15.442-.365.885-.645 1.328-.273.436-.605.879-.996 1.328a30.51 30.51 0 01-1.299 1.396l-2.471 2.774h6.094z"/>
      <rect width="388" height="63" x="50" y="785" fill="#DFDFDF" rx="30"/>
      <path fill="#fff" d="M225.902 815.892v2.376h18.436v-2.376h-18.436zm2.222-3.718v2.31h14.124v-2.31h-14.124zm0-5.038v6.182h2.904v-3.85h11.11v-2.332h-14.014zm6.93 12.342c-4.4 0-7.084 1.342-7.084 3.74s2.684 3.74 7.084 3.74c4.4 0 7.062-1.342 7.062-3.74s-2.662-3.74-7.062-3.74zm0 2.2c2.728 0 4.114.506 4.114 1.54 0 1.056-1.386 1.518-4.114 1.518-2.728 0-4.114-.462-4.114-1.518 0-1.034 1.386-1.54 4.114-1.54zm11.064-4.18v2.332h18.458v-2.332h-18.458zm2.266-10.516v2.222h11.066v1.232h-11.044v4.268h2.904v-2.2h11.022v-5.522h-13.948zm.022 6.842v2.222h14.322v-2.222h-14.322zm5.478 1.078v3.872h2.926v-3.872h-2.926zm-5.72 6.072v2.31h11.374v3.608h2.926v-5.918h-14.3z"/>
      <g>
        <path fill="#fff" d="M32 898h428v72H32z"/>
        <path stroke="#EDEDED" stroke-width=".5" d="M32 897.75h428"/>
        <circle cx="245.5" cy="911.5" r="39.5" fill="#C4C4C4"/>
        <g>
          <path fill="#C4C4C4" d="M72 918h31v31H72v-31zM153 918h31v31h-31v-31zM308 918h31v31h-31v-31zM391 918h31v31h-31v-31z"/>
        </g>
      </g>
      <rect width="227" height="227" x="137.5" y="517.5" fill="#fff" stroke="#DFDFDF" stroke-dasharray="10 10" rx="30.5"/>
      <path fill="#DFDFDF" d="M271 622.25v21.214c0 1.952-1.638 3.536-3.656 3.536h-31.688c-2.018 0-3.656-1.584-3.656-3.536V622.25c0-1.952 1.638-3.536 3.656-3.536h6.703l.937-2.423c.533-1.378 1.897-2.291 3.42-2.291h9.56c1.523 0 2.887.913 3.42 2.291l.945 2.423h6.703c2.018 0 3.656 1.584 3.656 3.536zm-10.359 10.607c0-4.876-4.098-8.839-9.141-8.839s-9.141 3.963-9.141 8.839 4.098 8.839 9.141 8.839 9.141-3.963 9.141-8.839zm-2.438 0c0 3.573-3.009 6.482-6.703 6.482-3.694 0-6.703-2.909-6.703-6.482 0-3.572 3.009-6.482 6.703-6.482 3.694 0 6.703 2.91 6.703 6.482z"/>
    </g>
  </g>
  <defs>
    <filter id="filter0_d_1124_4729" width="508" height="1006" x="0" y="0" color-interpolation-filters="sRGB" filterUnits="userSpaceOnUse">
      <feFlood flood-opacity="0" result="BackgroundImageFix"/>
      <feColorMatrix in="SourceAlpha" result="hardAlpha" values="0 0 0 0 0 0 0 0 0 0 0 0 0 0 0 0 0 0 127 0"/>
      <feOffset dx="10"/>
      <feGaussianBlur stdDeviation="20"/>
      <feComposite in2="hardAlpha" operator="out"/>
      <feColorMatrix values="0 0 0 0 0 0 0 0 0 0 0 0 0 0 0 0 0 0 0.1 0"/>
      <feBlend in2="BackgroundImageFix" result="effect1_dropShadow_1124_4729"/>
      <feBlend in="SourceGraphic" in2="effect1_dropShadow_1124_4729" result="shape"/>
    </filter>
    <filter id="filter1_d_1124_4729" width="392" height="84" x="48" y="266" color-interpolation-filters="sRGB" filterUnits="userSpaceOnUse">
      <feFlood flood-opacity="0" result="BackgroundImageFix"/>
      <feColorMatrix in="SourceAlpha" result="hardAlpha" values="0 0 0 0 0 0 0 0 0 0 0 0 0 0 0 0 0 0 127 0"/>
      <feOffset/>
      <feGaussianBlur stdDeviation="1"/>
      <feComposite in2="hardAlpha" operator="out"/>
      <feColorMatrix values="0 0 0 0 0 0 0 0 0 0 0 0 0 0 0 0 0 0 0.3 0"/>
      <feBlend in2="BackgroundImageFix" result="effect1_dropShadow_1124_4729"/>
      <feBlend in="SourceGraphic" in2="effect1_dropShadow_1124_4729" result="shape"/>
    </filter>
    <filter id="filter2_d_1124_4729" width="392" height="84" x="48" y="366" color-interpolation-filters="sRGB" filterUnits="userSpaceOnUse">
      <feFlood flood-opacity="0" result="BackgroundImageFix"/>
      <feColorMatrix in="SourceAlpha" result="hardAlpha" values="0 0 0 0 0 0 0 0 0 0 0 0 0 0 0 0 0 0 127 0"/>
      <feOffset/>
      <feGaussianBlur stdDeviation="1"/>
      <feComposite in2="hardAlpha" operator="out"/>
      <feColorMatrix values="0 0 0 0 0 0 0 0 0 0 0 0 0 0 0 0 0 0 0.3 0"/>
      <feBlend in2="BackgroundImageFix" result="effect1_dropShadow_1124_4729"/>
      <feBlend in="SourceGraphic" in2="effect1_dropShadow_1124_4729" result="shape"/>
    </filter>
    <filter id="filter3_d_1124_4729" width="392" height="84" x="48" y="466" color-interpolation-filters="sRGB" filterUnits="userSpaceOnUse">
      <feFlood flood-opacity="0" result="BackgroundImageFix"/>
      <feColorMatrix in="SourceAlpha" result="hardAlpha" values="0 0 0 0 0 0 0 0 0 0 0 0 0 0 0 0 0 0 127 0"/>
      <feOffset/>
      <feGaussianBlur stdDeviation="1"/>
      <feComposite in2="hardAlpha" operator="out"/>
      <feColorMatrix values="0 0 0 0 0 0 0 0 0 0 0 0 0 0 0 0 0 0 0.3 0"/>
      <feBlend in2="BackgroundImageFix" result="effect1_dropShadow_1124_4729"/>
      <feBlend in="SourceGraphic" in2="effect1_dropShadow_1124_4729" result="shape"/>
    </filter>
    <filter id="filter4_d_1124_4729" width="392" height="84" x="48" y="566" color-interpolation-filters="sRGB" filterUnits="userSpaceOnUse">
      <feFlood flood-opacity="0" result="BackgroundImageFix"/>
      <feColorMatrix in="SourceAlpha" result="hardAlpha" values="0 0 0 0 0 0 0 0 0 0 0 0 0 0 0 0 0 0 127 0"/>
      <feOffset/>
      <feGaussianBlur stdDeviation="1"/>
      <feComposite in2="hardAlpha" operator="out"/>
      <feColorMatrix values="0 0 0 0 0 0 0 0 0 0 0 0 0 0 0 0 0 0 0.3 0"/>
      <feBlend in2="BackgroundImageFix" result="effect1_dropShadow_1124_4729"/>
      <feBlend in="SourceGraphic" in2="effect1_dropShadow_1124_4729" result="shape"/>
    </filter>
    <filter id="filter5_d_1124_4729" width="392" height="84" x="48" y="666" color-interpolation-filters="sRGB" filterUnits="userSpaceOnUse">
      <feFlood flood-opacity="0" result="BackgroundImageFix"/>
      <feColorMatrix in="SourceAlpha" result="hardAlpha" values="0 0 0 0 0 0 0 0 0 0 0 0 0 0 0 0 0 0 127 0"/>
      <feOffset/>
      <feGaussianBlur stdDeviation="1"/>
      <feComposite in2="hardAlpha" operator="out"/>
      <feColorMatrix values="0 0 0 0 0 0 0 0 0 0 0 0 0 0 0 0 0 0 0.3 0"/>
      <feBlend in2="BackgroundImageFix" result="effect1_dropShadow_1124_4729"/>
      <feBlend in="SourceGraphic" in2="effect1_dropShadow_1124_4729" result="shape"/>
    </filter>
    <filter id="filter6_d_1124_4729" width="392" height="84" x="48" y="766" color-interpolation-filters="sRGB" filterUnits="userSpaceOnUse">
      <feFlood flood-opacity="0" result="BackgroundImageFix"/>
      <feColorMatrix in="SourceAlpha" result="hardAlpha" values="0 0 0 0 0 0 0 0 0 0 0 0 0 0 0 0 0 0 127 0"/>
      <feOffset/>
      <feGaussianBlur stdDeviation="1"/>
      <feComposite in2="hardAlpha" operator="out"/>
      <feColorMatrix values="0 0 0 0 0 0 0 0 0 0 0 0 0 0 0 0 0 0 0.3 0"/>
      <feBlend in2="BackgroundImageFix" result="effect1_dropShadow_1124_4729"/>
      <feBlend in="SourceGraphic" in2="effect1_dropShadow_1124_4729" result="shape"/>
    </filter>
    <filter id="filter7_d_1124_4729" width="392" height="84" x="48" y="866" color-interpolation-filters="sRGB" filterUnits="userSpaceOnUse">
      <feFlood flood-opacity="0" result="BackgroundImageFix"/>
      <feColorMatrix in="SourceAlpha" result="hardAlpha" values="0 0 0 0 0 0 0 0 0 0 0 0 0 0 0 0 0 0 127 0"/>
      <feOffset/>
      <feGaussianBlur stdDeviation="1"/>
      <feComposite in2="hardAlpha" operator="out"/>
      <feColorMatrix values="0 0 0 0 0 0 0 0 0 0 0 0 0 0 0 0 0 0 0.3 0"/>
      <feBlend in2="BackgroundImageFix" result="effect1_dropShadow_1124_4729"/>
      <feBlend in="SourceGraphic" in2="effect1_dropShadow_1124_4729" result="shape"/>
    </filter>
    <filter id="filter8_d_1124_4729" width="488" height="670" x="0" y="323" color-interpolation-filters="sRGB" filterUnits="userSpaceOnUse">
      <feFlood flood-opacity="0" result="BackgroundImageFix"/>
      <feColorMatrix in="SourceAlpha" result="hardAlpha" values="0 0 0 0 0 0 0 0 0 0 0 0 0 0 0 0 0 0 127 0"/>
      <feOffset dy="-5"/>
      <feGaussianBlur stdDeviation="15"/>
      <feComposite in2="hardAlpha" operator="out"/>
      <feColorMatrix values="0 0 0 0 0 0 0 0 0 0 0 0 0 0 0 0 0 0 0.15 0"/>
      <feBlend in2="BackgroundImageFix" result="effect1_dropShadow_1124_4729"/>
      <feBlend in="SourceGraphic" in2="effect1_dropShadow_1124_4729" result="shape"/>
    </filter>
    <clipPath id="clip0_1124_4729">
      <rect width="428" height="926" x="30" y="40" fill="#fff" rx="40"/>
    </clipPath>
  </defs>
</svg>
