<svg xmlns="http://www.w3.org/2000/svg" width="508" height="1006" fill="none" viewBox="0 0 508 1006">
  <g filter="url(#filter0_d_1124_4722)">
    <rect width="428" height="926" x="40" y="30" fill="#fff" rx="40"/>
    <path fill="#444" d="M155.942 629.732v1.944h15.084v-1.944h-15.084zm6.318-3.69v4.14h2.394v-4.14h-2.394zm-4.752-7.884v8.19h11.862v-8.19h-11.862zm9.522 1.908v4.392h-7.164v-4.392h7.164zm5.471 5.094v1.908h15.084v-1.908h-15.084zm1.818-3.258v1.926h11.61v-1.926h-11.61zm0-4.356v5.058h2.394v-3.168h9.072v-1.89h-11.466zm-.036 13.842v1.926h11.754v-1.926h-11.754zm0-3.06v3.546h2.376v-3.546h-2.376zm28.277-7.362v1.944h3.168v-1.944h-3.168zm2.52-4.032v9.9h2.394v-9.9h-2.394zm-3.258 10.26c-3.528 0-5.706 1.206-5.706 3.222 0 2.034 2.178 3.204 5.706 3.204 3.528 0 5.706-1.17 5.706-3.204 0-2.016-2.178-3.222-5.706-3.222zm0 1.818c2.178 0 3.33.45 3.33 1.404 0 .936-1.152 1.386-3.33 1.386-2.16 0-3.312-.45-3.312-1.386 0-.954 1.152-1.404 3.312-1.404zm-4.446-10.404v1.044c0 2.142-1.188 4.356-3.942 5.292l1.224 1.89c3.186-1.08 4.662-3.996 4.662-7.182v-1.044h-1.944zm.504 0v1.044c0 2.97 1.422 5.742 4.518 6.768l1.17-1.89c-2.628-.882-3.762-2.916-3.762-4.878v-1.044h-1.926zm-3.798-.666v1.908h8.964v-1.908h-8.964zm16.018 11.79v1.944h15.084v-1.944H210.1zm6.318-3.564v4.032h2.394v-4.032h-2.394zm-4.734-8.172v8.676h11.862v-8.676h-2.376v2.556h-7.11v-2.556h-2.376zm2.376 4.428h7.11v2.34h-7.11v-2.34zm28.511-5.49v8.964h2.412v-8.964h-2.412zm-8.676 9.684v6.804h11.088v-6.804h-2.376v1.548h-6.354v-1.548h-2.358zm2.358 3.384h6.354v1.512h-6.354v-1.512zm-.342-12.384c-2.592 0-4.536 1.638-4.536 3.942 0 2.304 1.944 3.942 4.536 3.942 2.592 0 4.518-1.638 4.518-3.942 0-2.304-1.926-3.942-4.518-3.942zm0 1.98c1.26 0 2.178.738 2.178 1.962 0 1.242-.918 1.962-2.178 1.962-1.278 0-2.196-.72-2.196-1.962 0-1.224.918-1.962 2.196-1.962zm12.401 5.274v1.908h1.278c3.186 0 4.896-.054 6.84-.414l-.234-1.89c-1.89.342-3.51.396-6.606.396h-1.278zm-.018-6.984v1.89h4.95v1.584h-4.932v4.77h2.376v-2.988h4.932v-5.256h-7.326zm10.944-.936v10.26h2.394v-10.26h-2.394zm-2.664 2.286v1.908h3.096v-1.908h-3.096zm0 3.546v1.908h3.096v-1.908h-3.096zm-6.354 5.184v1.908h9.018v3.744h2.394v-5.652H250.22zm25.451-11.052v16.722h2.412v-16.722h-2.412zm-6.57 1.17c-2.52 0-4.374 2.304-4.374 5.94 0 3.672 1.854 5.976 4.374 5.976 2.52 0 4.374-2.304 4.374-5.976 0-3.636-1.854-5.94-4.374-5.94zm0 2.178c1.242 0 2.07 1.314 2.07 3.762 0 2.484-.828 3.816-2.07 3.816s-2.088-1.332-2.088-3.816c0-2.448.846-3.762 2.088-3.762zm16.181 2.772v1.908h15.084v-1.908h-15.084zm1.404-5.544v1.89h3.888v-1.89h-3.888zm3.186 0v.9c0 1.152 0 2.7-.792 5.094l2.304.324c.828-2.412.828-4.23.828-5.418v-.9h-2.34zm3.276 0v1.89h4.284v-1.89h-4.284zm3.168 0v1.152c0 1.296 0 2.754-.684 4.932l2.322.324c.702-2.214.702-3.906.702-5.256v-1.152h-2.34zm-9.198 8.586v5.976h2.394v-4.212h9.09v-1.764h-11.484zm0 5.562v1.782h11.61v-1.782h-11.61zm1.422-2.772v1.692h9.666v-1.692h-9.666zm24.028-11.934v9.198h2.394v-9.198h-2.394zm1.746 3.546v1.962h2.862v-1.962h-2.862zm-11.808-2.574v6.858h2.394v-6.858h-2.394zm0 5.472v1.962h1.404c2.358 0 4.914-.162 7.632-.702l-.27-1.926c-2.628.504-5.094.666-7.362.666h-1.404zm2.862 3.42v.774c0 1.656-.9 3.348-3.078 4.122l1.206 1.728c2.574-.936 3.654-3.294 3.654-5.85v-.774h-1.782zm.612 0v.774c0 2.484.936 5.022 3.582 6.012l.99-1.746c-2.07-.864-2.862-2.61-2.862-4.266v-.774h-1.71zm5.454 0v.774c0 1.494-.792 3.33-2.862 4.266l.99 1.746c2.628-1.044 3.6-3.69 3.6-6.012v-.774h-1.728zm.576 0v.774c0 2.664 1.044 4.932 3.672 5.85l1.17-1.728c-2.178-.72-3.06-2.358-3.06-4.122v-.774h-1.782zm10.961-8.712c-2.502 0-4.302 2.304-4.302 5.94 0 3.672 1.8 5.976 4.302 5.976 2.484 0 4.302-2.304 4.302-5.976 0-3.636-1.818-5.94-4.302-5.94zm0 2.178c1.224 0 2.016 1.314 2.016 3.762 0 2.484-.792 3.816-2.016 3.816-1.206 0-2.016-1.332-2.016-3.816 0-2.448.81-3.762 2.016-3.762zm7.038-3.348v16.722h2.376v-16.722h-2.376zm-3.438 6.012v1.926h4.446v-1.926h-4.446zm11.716 2.466v4.68h2.376v-4.68h-2.376zm6.048 0v4.68h2.394v-4.68h-2.394zm-9.36 4.338v1.944h15.084v-1.944h-15.084zm7.524-11.988c-3.6 0-6.228 1.764-6.228 4.482s2.628 4.464 6.228 4.464c3.582 0 6.228-1.746 6.228-4.464 0-2.718-2.646-4.482-6.228-4.482zm0 1.872c2.322 0 3.87.954 3.87 2.61 0 1.638-1.548 2.61-3.87 2.61s-3.87-.972-3.87-2.61c0-1.656 1.548-2.61 3.87-2.61zM133.711 556.12v2.064c0 5.232-5.04 11.04-15.264 12.384l2.496 5.136c11.664-1.728 18.384-8.976 18.384-17.52v-2.064h-5.616zm1.2 0v2.064c0 8.544 6.72 15.792 18.384 17.52l2.448-5.136c-10.176-1.344-15.264-7.2-15.264-12.384v-2.064h-5.568zM133.759 583v16.272h6.336V583h-6.336zm-16.752-4.032v5.184h40.176v-5.184h-40.176zm48.236-20.4v5.136h28.176v-5.136h-28.176zm-4.08 30.192v5.184h40.176v-5.184h-40.176zm14.208-15.264v17.808h6.384v-17.808h-6.384zm15.744-14.928v4.272c0 5.328 0 11.76-1.776 20.592l6.384.72c1.776-9.504 1.776-15.744 1.776-21.312v-4.272h-6.384zm42.669-3.744v44.448h6.336v-44.448h-6.336zm4.896 17.328v5.328h7.872v-5.328h-7.872zm-33.6-10.752v5.088h25.872V561.4H205.08zm13.008 7.584c-6.48 0-11.28 4.416-11.28 10.608s4.8 10.608 11.28 10.608c6.48 0 11.28-4.416 11.28-10.608s-4.8-10.608-11.28-10.608zm0 5.184c3.024 0 5.184 2.016 5.184 5.424 0 3.408-2.16 5.424-5.184 5.424s-5.184-2.016-5.184-5.424c0-3.408 2.16-5.424 5.184-5.424zm-3.216-18.624v7.776h6.384v-7.776h-6.384zm58.22 3.696v5.088h8.88v-5.088h-8.88zm0 8.304v5.04h8.88v-5.04h-8.88zm7.152-12.72v25.536h6.384v-25.536h-6.384zm-20.64 1.584v4.032c0 6.384-3.024 12.624-10.464 15.264l3.504 4.992c8.4-3.12 12.192-11.136 12.192-20.256v-4.032h-5.232zm1.248 0v4.032c0 8.832 3.6 16.656 11.568 19.776l3.552-5.04c-7.056-2.592-9.936-8.64-9.936-14.736v-4.032h-5.184zm-.912 25.632v1.056c0 4.416-2.4 8.928-8.208 10.944l3.12 4.656c6.96-2.544 9.888-8.832 9.888-15.6v-1.056h-4.8zm1.632 0v1.056c0 6.624 2.544 13.392 9.6 16.032l2.64-4.656c-5.52-2.304-7.632-6.96-7.632-11.376v-1.056h-4.608zm14.592 0v1.056c0 3.984-2.16 8.832-7.632 11.376l2.64 4.656c6.96-2.784 9.552-9.84 9.552-16.032v-1.056h-4.56zm1.488 0v1.056c0 7.104 2.88 13.152 9.888 15.6l3.216-4.656c-5.952-1.872-8.304-6.24-8.304-10.944v-1.056h-4.8zm28.124-24.144c-6.672 0-11.472 6.144-11.472 15.84 0 9.792 4.8 15.936 11.472 15.936 6.624 0 11.472-6.144 11.472-15.936 0-9.696-4.848-15.84-11.472-15.84zm0 5.808c3.264 0 5.376 3.504 5.376 10.032 0 6.624-2.112 10.176-5.376 10.176-3.216 0-5.376-3.552-5.376-10.176 0-6.528 2.16-10.032 5.376-10.032zm18.768-8.928v44.592h6.336v-44.592h-6.336zm-9.168 16.032v5.136h11.856v-5.136h-11.856zm31.244 6.576v12.48h6.336v-12.48h-6.336zm16.128 0v12.48h6.384v-12.48h-6.384zm-24.96 11.568v5.184h40.224v-5.184h-40.224zm20.064-31.968c-9.6 0-16.608 4.704-16.608 11.952s7.008 11.904 16.608 11.904c9.552 0 16.608-4.656 16.608-11.904s-7.056-11.952-16.608-11.952zm0 4.992c6.192 0 10.32 2.544 10.32 6.96 0 4.368-4.128 6.96-10.32 6.96s-10.32-2.592-10.32-6.96c0-4.416 4.128-6.96 10.32-6.96zm32.367-1.101l-.774 23.695h-5.625l-.797-23.695h7.196zm-7.383 31.031c0-1 .344-1.828 1.031-2.484.703-.672 1.625-1.008 2.766-1.008 1.156 0 2.078.336 2.765 1.008.688.656 1.032 1.484 1.032 2.484 0 .969-.344 1.789-1.032 2.461-.687.672-1.609 1.008-2.765 1.008-1.141 0-2.063-.336-2.766-1.008-.687-.672-1.031-1.492-1.031-2.461z"/>
    <rect width="140" height="60" x="183" y="821" fill="#C4C4C4" rx="30"/>
    <path fill="#fff" d="M211.55 843.644v10.8h6.588v-10.8h-6.588zm4.356 1.872v7.056h-2.124v-7.056h2.124zm7.218-3.582v16.668h2.286v-16.668h-2.286zm-6.192 6.048v1.926h3.744v-1.926h-3.744zm2.79-5.796v15.66h2.25v-15.66h-2.25zm19.367-.234v11.97h2.412v-11.97h-2.412zm-8.694 14.454v1.908h11.52v-1.908h-11.52zm0-3.69v4.464h2.394v-4.464h-2.394zm2.034-9.72c-2.556 0-4.536 1.764-4.536 4.23 0 2.448 1.98 4.23 4.536 4.23 2.556 0 4.518-1.782 4.518-4.23 0-2.466-1.962-4.23-4.518-4.23zm0 2.07c1.224 0 2.178.792 2.178 2.16 0 1.35-.954 2.142-2.178 2.142-1.242 0-2.196-.792-2.196-2.142 0-1.368.954-2.16 2.196-2.16zm28.439-3.132v16.668h2.286v-16.668h-2.286zM255.99 848v2.106h2.232V848h-2.232zm1.566-5.742v15.57h2.25v-15.57h-2.25zm-8.748 1.548v1.908h7.578v-1.908h-7.578zm-.036 11.016c2.052 0 5.436-.054 8.028-.612l-.162-1.728c-2.52.342-6.03.396-8.118.396l.252 1.944zm1.062-9.792v8.352h2.142v-8.352h-2.142zm3.348 0v8.352h2.16v-8.352h-2.16zm23.489-3.114v16.722h2.412v-16.722h-2.412zm-6.57 1.17c-2.52 0-4.374 2.304-4.374 5.94 0 3.672 1.854 5.976 4.374 5.976 2.52 0 4.374-2.304 4.374-5.976 0-3.636-1.854-5.94-4.374-5.94zm0 2.178c1.242 0 2.07 1.314 2.07 3.762 0 2.484-.828 3.816-2.07 3.816s-2.088-1.332-2.088-3.816c0-2.448.846-3.762 2.088-3.762zm15.712-.702v1.872c0 2.826-1.35 5.904-4.14 7.146l1.35 1.89c3.132-1.422 4.698-5.184 4.698-9.036v-1.872h-1.908zm.54 0v1.872c0 3.708 1.548 7.254 4.716 8.622l1.296-1.89c-2.79-1.152-4.122-4.032-4.122-6.732v-1.872h-1.89zm-4.014-1.026v1.962h9.342v-1.962h-9.342zm10.89-1.602v16.668h2.412v-16.668h-2.412z"/>
    <ellipse cx="253" cy="351" fill="#F1F1F1" rx="156" ry="150"/>
  </g>
  <defs>
    <filter id="filter0_d_1124_4722" width="508" height="1006" x="0" y="0" color-interpolation-filters="sRGB" filterUnits="userSpaceOnUse">
      <feFlood flood-opacity="0" result="BackgroundImageFix"/>
      <feColorMatrix in="SourceAlpha" result="hardAlpha" values="0 0 0 0 0 0 0 0 0 0 0 0 0 0 0 0 0 0 127 0"/>
      <feOffset dy="10"/>
      <feGaussianBlur stdDeviation="20"/>
      <feComposite in2="hardAlpha" operator="out"/>
      <feColorMatrix values="0 0 0 0 0 0 0 0 0 0 0 0 0 0 0 0 0 0 0.1 0"/>
      <feBlend in2="BackgroundImageFix" result="effect1_dropShadow_1124_4722"/>
      <feBlend in="SourceGraphic" in2="effect1_dropShadow_1124_4722" result="shape"/>
    </filter>
  </defs>
</svg>
