<svg xmlns="http://www.w3.org/2000/svg" width="508" height="1006" fill="none" viewBox="0 0 508 1006">
  <g filter="url(#filter0_d_1124_4725)">
    <g clip-path="url(#clip0_1124_4725)">
      <rect width="428" height="926" x="30" y="40" fill="#fff" rx="40"/>
      <path fill="#C4C4C4" d="M301.132 181.566c0 32.345-26.221 58.566-58.566 58.566v2c33.449 0 60.566-27.117 60.566-60.566h-2zm-58.566 58.566c-32.345 0-58.566-26.221-58.566-58.566h-2c0 33.449 27.116 60.566 60.566 60.566v-2zM184 181.566C184 149.221 210.221 123 242.566 123v-2C209.116 121 182 148.116 182 181.566h2zM242.566 123c32.345 0 58.566 26.221 58.566 58.566h2c0-33.45-27.117-60.566-60.566-60.566v2zm-41.329 101.191l42.119-42.119-1.414-1.415-42.119 42.12 1.414 1.414zm42.119-42.119l41.835-41.835-1.414-1.414-41.835 41.834 1.414 1.415zm-43.533-42.12l42.119 42.12 1.414-1.415-42.119-42.119-1.414 1.414zm42.119 42.12l41.835 41.835 1.414-1.415-41.835-41.835-1.414 1.415z"/>
      <path fill="#898989" d="M137.534 290.862h1.848v-6.552h-1.848v1.89h-2.352v1.47h2.352v3.192zm-1.232-1.568c-2.016-.616-2.898-2.114-2.898-3.64v-.924h-1.862v.924c0 1.638-.896 3.22-3.038 3.864l.952 1.442c1.47-.462 2.478-1.414 3.052-2.618.546 1.078 1.498 1.932 2.856 2.366l.938-1.414zm-3.584 6.328v-.756h6.664v-3.458h-8.498v1.414h6.678v.714h-6.664v3.528h8.848v-1.442h-7.028zm15.763-8.204v1.498h1.932v3.066h1.848v-7.672h-1.848v3.108h-1.932zm.77 2.772c-1.96-.644-2.856-2.156-2.912-3.626h2.506v-1.484h-6.93v1.484h2.534c-.056 1.61-.994 3.248-3.038 3.962l.938 1.456c1.498-.504 2.52-1.554 3.08-2.856.56 1.134 1.526 2.044 2.926 2.506l.896-1.442zm-1.344 5.628c-1.694 0-2.576-.35-2.576-1.078 0-.728.882-1.078 2.576-1.078 1.68 0 2.562.35 2.562 1.078 0 .728-.882 1.078-2.562 1.078zm0-3.556c-2.744 0-4.424.91-4.424 2.478s1.68 2.478 4.424 2.478c2.73 0 4.41-.91 4.41-2.478s-1.68-2.478-4.41-2.478zm10.177.798c-.868 0-1.512-.588-1.512-1.568 0-.98.644-1.582 1.512-1.582s1.498.602 1.498 1.568c0 .994-.63 1.582-1.498 1.582zm0-4.648c-1.876 0-3.276 1.274-3.276 3.066 0 1.82 1.4 3.094 3.276 3.094 1.862 0 3.248-1.274 3.248-3.094 0-1.792-1.386-3.066-3.248-3.066zm.91-3.878h-1.848v1.68h-2.856v1.47h7.504v-1.47h-2.8v-1.68zm7.336 4.816h-1.848v-5.04h-1.848v12.894h1.848v-6.328h1.848v-1.526zm10.947 3.472c.518-2.744.518-4.564.518-6.174v-1.232h-9.366v1.47h7.518c0 1.498-.028 3.29-.518 5.726l1.848.21zm-4.06 1.344v-4.438h-1.848v4.438h-4.116v1.484h11.662v-1.484h-5.698zm21.097-9.856h-1.862v7.14h1.862v-7.14zm-2.8 5.306c-2.086-.588-3.01-2.086-3.01-3.626v-1.232h-1.876v1.232c0 1.582-.938 3.178-3.094 3.85l.896 1.456c1.526-.476 2.576-1.456 3.164-2.674.574 1.12 1.568 2.002 3.038 2.436l.882-1.442zm-2.576 3.878h2.1v2.114h-2.1v-2.114zm3.92 2.114v-2.114h1.498v-1.456h-8.764v1.456h1.526v2.114h-1.638v1.442h9.03v-1.442h-1.652zm9.449-9.464c1.736 0 2.772.42 2.772 1.204 0 .798-1.036 1.19-2.772 1.19-1.722 0-2.758-.392-2.758-1.19 0-.784 1.036-1.204 2.758-1.204zm0 3.864c2.814 0 4.676-1.022 4.676-2.66 0-1.638-1.862-2.66-4.676-2.66-2.8 0-4.662 1.022-4.662 2.66 0 1.638 1.862 2.66 4.662 2.66zm-2.562 3.22h-1.848v3.752h8.932v-1.47h-7.084v-2.282zm-3.262-2.338v1.47h11.648v-1.47h-11.648zm25.199-6.594v12.936h1.848v-12.936h-1.848zm-8.204 1.036v8.89h6.356v-8.89H218v3.122h-2.688v-3.122h-1.834zm1.834 4.564H218v2.856h-2.688v-2.856zm21.111-5.586h-1.848v6.496h1.848v-6.496zm-5.6 4.648h-2.632v-2.562h2.632v2.562zm1.806-4.004h-6.258v5.46h6.258v-5.46zm-2.954 10.724v-.812h6.748v-3.486h-8.582v1.414h6.762v.756h-6.748v3.556h8.904v-1.428h-7.084zm13.761-5.32h-2.45v-1.82h2.45v1.82zm1.806-1.134h2.296v4.606h1.848v-9.506h-1.848v3.416h-2.296v-2.562h-1.806v1.946h-2.45v-1.96h-1.834v6.664h6.09v-2.604zm-2.52 6.286v-2.604h-1.848v4.074h8.792v-1.47h-6.944zm19.907-9.59h-4.41v-1.484h-1.848v1.484h-4.382v1.47h10.64v-1.47zm-7.812 4.536c0-.728.868-1.092 2.464-1.092 1.624 0 2.492.364 2.492 1.092 0 .742-.868 1.078-2.492 1.078-1.596 0-2.464-.336-2.464-1.078zm3.402 3.962v-1.484c2.142-.21 3.444-1.092 3.444-2.478 0-1.582-1.68-2.52-4.382-2.52-2.674 0-4.368.938-4.368 2.52 0 1.386 1.316 2.282 3.458 2.478v1.484h-4.886v1.498h11.69v-1.498h-4.956zm14.573-8.008h-6.972v3.08h9.016v-1.246h-7.196v-.672h6.972v-3.038h-8.82v1.246h7v.63zm-5.264 8.736h7.126v-3.066h-8.974v1.246h7.14v.658h-7.126v3.108h9.31v-1.246h-7.476v-.7zm-3.164-5.04v1.33h11.676v-1.33h-11.676zm25.213-5.796v6.93h1.862v-6.93h-1.862zm-6.706 7.49v5.25h8.568v-5.25h-1.834v1.204h-4.9V291.8h-1.834zm1.834 2.618h4.9v1.176h-4.9v-1.176zm-.28-9.576c-2.002 0-3.514 1.274-3.514 3.038 0 1.778 1.512 3.052 3.514 3.052s3.5-1.274 3.5-3.052c0-1.764-1.498-3.038-3.5-3.038zm0 1.526c.98 0 1.694.574 1.694 1.512 0 .966-.714 1.526-1.694 1.526s-1.708-.56-1.708-1.526c0-.938.728-1.512 1.708-1.512zm15.763 3.78c-1.274.238-2.408.294-4.256.308v-1.344h3.794v-4.074h-5.642v1.484h3.822v1.218h-3.808v4.2h.994c2.45 0 3.78-.042 5.278-.322l-.182-1.47zm-4.62 4.158h6.972v2.912h1.848v-4.382h-8.82v1.47zm6.972-9.982v1.764h-2.072v1.484h2.072v1.274h-2.072v1.47h2.072v1.946h1.848v-7.952l-1.848.014zm7.041 8.568c-.7 0-1.204-.56-1.204-1.526s.504-1.54 1.204-1.54 1.204.574 1.204 1.54c0 .966-.504 1.526-1.204 1.526zm0-4.606c-1.652 0-2.828 1.274-2.828 3.08 0 1.792 1.176 3.066 2.828 3.066s2.828-1.274 2.828-3.066c0-1.806-1.176-3.08-2.828-3.08zm.91-3.626h-1.82v1.596h-2.198v1.47h6.16v-1.47h-2.142v-1.596zm5.306-.364v5.264h-.98v-5.012h-1.722v12.11h1.722v-5.614h.98v6.146h1.75v-12.894h-1.75zm4.801 6.398c2.254-.308 3.836-1.274 4.606-2.59.77 1.316 2.352 2.282 4.606 2.59l.658-1.442c-2.618-.322-3.976-1.582-4.158-2.814h3.654v-1.47h-9.562v1.47h3.71c-.182 1.232-1.554 2.492-4.186 2.814l.672 1.442zm10.43.742H319.38v1.47h4.858v4.326h1.848v-4.326h4.942v-1.47zm5.333-6.006h-1.778v2.17c0 2.198-.686 4.508-2.576 5.656l1.106 1.386c1.162-.7 1.918-1.932 2.366-3.36.406 1.302 1.092 2.394 2.184 3.066l1.008-1.428c-1.75-1.162-2.31-3.304-2.31-5.39v-2.1zm2.576 3.234h-1.61v1.498h1.61v6.468h1.722v-12.11h-1.722v4.144zm2.618-4.354v12.894h1.75V284.31h-1.75zm7.978 7.434c.448.084.91.126 1.414.126.504 0 .98-.042 1.428-.126v2.464h-2.842v-2.464zm1.414-5.348c1.792 0 2.996.728 2.996 2.016 0 1.274-1.204 2.016-2.996 2.016s-2.982-.742-2.982-2.016c0-1.288 1.19-2.016 2.982-2.016zm3.262 7.812v-3.15c.966-.602 1.554-1.526 1.554-2.646 0-2.114-2.03-3.472-4.816-3.472-2.772 0-4.802 1.358-4.802 3.472-.014 1.12.574 2.044 1.554 2.646v3.15h-2.576v1.498h11.676v-1.498h-2.59z"/>
      <g filter="url(#filter1_d_1124_4725)">
        <path fill="#fff" d="M458 966H30V509h428z"/>
      </g>
      <path fill="#DBDBDB" d="M92.952 551h302.096v-2H92.952v2zM437 592.731v300.538h2V592.731h-2zM395.048 935H92.952v2h302.096v-2zM51 893.269V592.731h-2v300.538h2zM92.952 935C69.778 935 51 916.312 51 893.269h-2C49 917.426 68.683 937 92.952 937v-2zM437 893.269C437 916.312 418.222 935 395.048 935v2C419.317 937 439 917.426 439 893.269h-2zM395.048 551C418.222 551 437 569.688 437 592.731h2C439 568.574 419.317 549 395.048 549v2zm-302.096-2C68.682 549 49 568.574 49 592.731h2C51 569.688 69.778 551 92.952 551v-2zm-28.37 375.087L245.77 743.833l-1.41-1.418L63.172 922.669l1.41 1.418zM245.77 743.833l179.963-179.035-1.41-1.418L244.36 742.415l1.41 1.418zM62.84 563.25l181.52 180.583 1.41-1.418L64.251 561.832l-1.41 1.418zm181.52 180.583l180.292 179.363 1.411-1.417L245.77 742.415l-1.41 1.418z"/>
      <circle cx="222" cy="339" r="10" fill="#CDCDCD"/>
      <circle cx="177" cy="339" r="10" fill="#CDCDCD"/>
      <circle cx="267" cy="339" r="10" fill="#CDCDCD"/>
      <circle cx="312" cy="339" r="10" fill="#CDCDCD"/>
    </g>
  </g>
  <defs>
    <filter id="filter0_d_1124_4725" width="508" height="1006" x="0" y="0" color-interpolation-filters="sRGB" filterUnits="userSpaceOnUse">
      <feFlood flood-opacity="0" result="BackgroundImageFix"/>
      <feColorMatrix in="SourceAlpha" result="hardAlpha" values="0 0 0 0 0 0 0 0 0 0 0 0 0 0 0 0 0 0 127 0"/>
      <feOffset dx="10"/>
      <feGaussianBlur stdDeviation="20"/>
      <feComposite in2="hardAlpha" operator="out"/>
      <feColorMatrix values="0 0 0 0 0 0 0 0 0 0 0 0 0 0 0 0 0 0 0.1 0"/>
      <feBlend in2="BackgroundImageFix" result="effect1_dropShadow_1124_4725"/>
      <feBlend in="SourceGraphic" in2="effect1_dropShadow_1124_4725" result="shape"/>
    </filter>
    <filter id="filter1_d_1124_4725" width="498" height="527" x="-5" y="470" color-interpolation-filters="sRGB" filterUnits="userSpaceOnUse">
      <feFlood flood-opacity="0" result="BackgroundImageFix"/>
      <feColorMatrix in="SourceAlpha" result="hardAlpha" values="0 0 0 0 0 0 0 0 0 0 0 0 0 0 0 0 0 0 127 0"/>
      <feMorphology in="SourceAlpha" operator="dilate" radius="5" result="effect1_dropShadow_1124_4725"/>
      <feOffset dy="-4"/>
      <feGaussianBlur stdDeviation="15"/>
      <feComposite in2="hardAlpha" operator="out"/>
      <feColorMatrix values="0 0 0 0 0 0 0 0 0 0 0 0 0 0 0 0 0 0 0.05 0"/>
      <feBlend in2="BackgroundImageFix" result="effect1_dropShadow_1124_4725"/>
      <feBlend in="SourceGraphic" in2="effect1_dropShadow_1124_4725" result="shape"/>
    </filter>
    <clipPath id="clip0_1124_4725">
      <rect width="428" height="926" x="30" y="40" fill="#fff" rx="40"/>
    </clipPath>
  </defs>
</svg>
