<svg xmlns="http://www.w3.org/2000/svg" width="508" height="1006" fill="none" viewBox="0 0 508 1006">
  <g filter="url(#filter0_d_1124_4721)">
    <rect width="428" height="926" x="40" y="30" fill="#fff" rx="40"/>
    <path fill="#444" d="M187.533 263.312v4.872h3.192v-4.872h-3.192zm9.744-11.4v16.824h3.192v-16.824h-3.192zm-12.816 19.296v2.544h16.488v-2.544h-16.488zm0-4.056v4.728h3.192v-4.728h-3.192zm-2.4-2.88c4.008 0 9.216-.12 13.944-.912l-.192-2.28c-4.656.6-10.08.648-14.136.648l.384 2.544zm11.016.552v2.184h4.896v-2.184h-4.896zm-4.248-12.144c-3.264 0-5.544 1.608-5.544 3.96 0 2.376 2.28 3.96 5.544 3.96 3.24 0 5.52-1.584 5.52-3.96 0-2.352-2.28-3.96-5.52-3.96zm0 2.328c1.464 0 2.496.552 2.496 1.632 0 1.08-1.032 1.632-2.496 1.632-1.488 0-2.52-.552-2.52-1.632 0-1.08 1.032-1.632 2.52-1.632zm29.254-3.096v22.224h3.168v-22.224h-3.168zm2.448 8.664v2.664h3.936v-2.664h-3.936zm-16.8-5.376v2.544h12.936V255.2h-12.936zm6.504 3.792c-3.24 0-5.64 2.208-5.64 5.304s2.4 5.304 5.64 5.304c3.24 0 5.64-2.208 5.64-5.304s-2.4-5.304-5.64-5.304zm0 2.592c1.512 0 2.592 1.008 2.592 2.712 0 1.704-1.08 2.712-2.592 2.712s-2.592-1.008-2.592-2.712c0-1.704 1.08-2.712 2.592-2.712zm-1.608-9.312v3.888h3.192v-3.888h-3.192zm19.774 5.64v2.52h15.408v-2.52h-15.408zm-2.496 4.824v2.544h20.136v-2.544h-20.136zm2.496-10.032v6.456h3.168v-6.456h-3.168zm-.216 18.408v2.544h15.744v-2.544h-15.744zm0-4.056v4.728h3.192v-4.728h-3.192zm31.199-13.44v3.24c0 4.32-1.824 8.592-5.688 10.272l1.896 2.64c4.416-2.04 6.384-7.2 6.384-12.912v-3.24h-2.592zm.624 0v3.24c0 5.472 1.968 10.416 6.264 12.384l1.872-2.568c-3.792-1.632-5.544-5.712-5.544-9.816v-3.24h-2.592zm9.192-1.728v22.296h3.216v-22.296H269.2zm21.118.024v15.912h3.216v-15.912h-3.216zm2.304 6.192v2.616h3.864v-2.616h-3.864zm-8.496-4.536v1.584c0 3.528-2.808 6.504-8.256 7.992l1.344 2.544c6.624-1.92 10.32-6.072 10.32-12.12h-3.408zm-7.296 0v2.568h9.024v-2.568h-9.024zm2.328 17.64v2.544h15.12v-2.544h-15.12zm0-4.992v6.12h3.216v-6.12h-3.216zm27.838-6.12v2.568h3.648v-2.568h-3.648zm7.176-8.184v22.224h3.048v-22.224h-3.048zm-4.536.336v20.88h3v-20.88h-3zm-6.528 1.224c-2.928 0-4.8 3.048-4.8 8.064 0 5.04 1.872 8.088 4.8 8.088 2.952 0 4.848-3.048 4.848-8.088 0-5.016-1.896-8.064-4.848-8.064zm0 3c1.248 0 1.944 1.68 1.944 5.064 0 3.408-.696 5.064-1.944 5.064-1.2 0-1.896-1.656-1.896-5.064 0-3.384.696-5.064 1.896-5.064zM111.5 285.92v2.136c0 2.808-1.56 5.688-5.304 6.888l1.56 2.52c4.344-1.392 6.384-5.208 6.384-9.408v-2.136h-2.64zm.648 0v2.136c0 4.128 1.968 7.68 6.216 9.024l1.56-2.496c-3.624-1.104-5.16-3.792-5.16-6.528v-2.136h-2.616zm-2.544 13.224v2.544h11.952v5.448h3.216v-7.992h-15.168zm11.952-14.232v13.248h3.216v-13.248h-3.216zm11.806 1.704v3.24c0 4.128-1.704 8.4-5.448 10.152l1.92 2.568c4.2-2.064 6.12-7.224 6.12-12.72v-3.24h-2.592zm.648 0v3.24c0 5.328 1.752 10.272 5.76 12.312l1.92-2.544c-3.552-1.728-5.136-5.784-5.136-9.768v-3.24h-2.544zm8.568-1.704v22.224h3.216v-22.224h-3.216zm2.496 8.544v2.664h3.936v-2.664h-3.936zm25.655-8.544V296h3.192v-11.088h-3.192zm1.896 4.248v2.616h4.224v-2.616h-4.224zm-13.392 7.728v2.448h11.544v1.344h-11.496v4.944h3.168v-2.64h11.472v-6.096h-14.688zm.048 7.512v2.496h15.288V304.4h-15.288zm3.216-18.84c-3.384 0-5.928 2.088-5.928 5.04 0 2.928 2.544 5.04 5.928 5.04 3.408 0 5.928-2.112 5.928-5.04 0-2.952-2.52-5.04-5.928-5.04zm0 2.568c1.656 0 2.856.912 2.856 2.472s-1.2 2.496-2.856 2.496c-1.632 0-2.832-.936-2.832-2.496s1.2-2.472 2.832-2.472zm31.27-3.216v13.176h3.216v-13.176h-3.216zm-14.112 9.864v2.592h1.944c4.44 0 7.392-.096 10.704-.672l-.36-2.52c-3.216.528-6.024.6-10.344.6h-1.944zm-.024-8.592v2.52h7.08v1.8h-7.056v5.808h3.144v-3.432h7.056v-6.696h-10.224zm2.568 12.912v7.8h14.784v-7.8h-14.784zm11.64 2.496v2.784h-8.52v-2.784h8.52zm16.798-16.368c-5.088 0-8.04 1.344-8.04 3.792 0 2.448 2.952 3.792 8.04 3.792 5.064 0 8.04-1.344 8.04-3.792 0-2.448-2.976-3.792-8.04-3.792zm0 2.328c3.216 0 4.728.48 4.728 1.464 0 1.032-1.512 1.464-4.728 1.464-3.216 0-4.728-.432-4.728-1.464 0-.984 1.512-1.464 4.728-1.464zm-10.056 6.288v2.52h20.088v-2.52h-20.088zm2.304 3.768v2.376h12.216v1.128h-12.192v4.176h3.144v-1.968h12.192v-5.712h-15.36zm.024 6.984v2.4h15.912v-2.4h-15.912zm37.079-16.44v2.544h5.472v-2.544h-5.472zm4.056-3.24v11.28h3.192v-11.28h-3.192zm-11.496 12.216v2.448h11.52v1.224h-11.472v5.088h3.144v-2.784h11.496v-5.976h-14.688zm.048 7.296v2.472h15.264v-2.472h-15.264zm1.128-18.792v1.584c0 2.832-1.56 5.544-5.256 6.648l1.632 2.52c4.248-1.344 6.216-4.968 6.216-9.168v-1.584h-2.592zm.624 0v1.584c0 3.984 1.896 7.416 5.952 8.736l1.632-2.472c-3.504-1.056-4.992-3.624-4.992-6.264v-1.584h-2.592zm28.414 4.656v2.592h4.224v-2.592h-4.224zm3.36-5.376v13.2h3.192v-13.2h-3.192zm-4.344 13.68c-4.704 0-7.608 1.608-7.608 4.296 0 2.712 2.904 4.272 7.608 4.272s7.608-1.56 7.608-4.272c0-2.688-2.904-4.296-7.608-4.296zm0 2.424c2.904 0 4.44.6 4.44 1.872 0 1.248-1.536 1.848-4.44 1.848-2.88 0-4.416-.6-4.416-1.848 0-1.272 1.536-1.872 4.416-1.872zm-5.928-13.872v1.392c0 2.856-1.584 5.808-5.256 7.056l1.632 2.52c4.248-1.44 6.216-5.328 6.216-9.576v-1.392h-2.592zm.672 0v1.392c0 3.96 1.896 7.656 6.024 9.024l1.56-2.52c-3.504-1.176-5.016-3.888-5.016-6.504v-1.392h-2.568zm-5.064-.888v2.544h11.952v-2.544h-11.952zm35.638-1.368v12h3.192v-12h-3.192zm1.92 4.752v2.592h4.224v-2.592h-4.224zm-13.416 8.136v2.304h11.544v1.176h-11.496v4.176h3.168v-2.016h11.472v-5.64H275.6zm.048 6.864v2.352h15.288v-2.352h-15.288zm-2.856-18.096v2.4h13.08v-2.4h-13.08zm6.552 2.928c-3.312 0-5.472 1.416-5.472 3.648s2.16 3.6 5.472 3.6c3.288 0 5.448-1.368 5.448-3.6s-2.16-3.648-5.448-3.648zm0 2.232c1.488 0 2.4.48 2.4 1.416 0 .888-.912 1.368-2.4 1.368s-2.4-.48-2.4-1.368c0-.936.912-1.416 2.4-1.416zm-1.608-6.96v3.504h3.192v-3.504h-3.192zm31.487.816v1.032c0 2.616-2.52 5.52-7.632 6.192l1.248 2.568c5.832-.864 9.192-4.488 9.192-8.76v-1.032h-2.808zm.6 0v1.032c0 4.272 3.36 7.896 9.192 8.76l1.224-2.568c-5.088-.672-7.632-3.6-7.632-6.192v-1.032h-2.784zm-.576 13.44v8.136h3.168V299h-3.168zm-8.376-2.016v2.592h20.088v-2.592h-20.088zm33.022 1.416v.744c0 2.16-1.224 4.368-4.128 5.352l1.56 2.328c3.48-1.248 4.968-4.32 4.968-7.68v-.744h-2.4zm.816 0v.744c0 3.264 1.272 6.576 4.8 7.896l1.272-2.352c-2.712-1.128-3.792-3.384-3.792-5.544v-.744h-2.28zm7.296 0v.744c0 1.968-1.104 4.32-3.816 5.544l1.32 2.352c3.456-1.368 4.776-4.824 4.776-7.896v-.744h-2.28zm.744 0v.744c0 3.504 1.44 6.48 4.968 7.68l1.56-2.328c-2.928-.912-4.128-3.048-4.128-5.352v-.744h-2.4zm1.416-13.464v12.552h3.216v-12.552h-3.216zm-8.88 1.128c-3.456 0-6.048 2.208-6.048 5.328 0 3.096 2.592 5.304 6.048 5.304s6.024-2.208 6.024-5.304c0-3.12-2.568-5.328-6.024-5.328zm0 2.64c1.68 0 2.904.984 2.904 2.688 0 1.68-1.224 2.664-2.904 2.664s-2.928-.984-2.928-2.664c0-1.704 1.248-2.688 2.928-2.688zm21.791-2.256c-3.336 0-5.736 3.072-5.736 7.92 0 4.896 2.4 7.968 5.736 7.968 3.312 0 5.736-3.072 5.736-7.968 0-4.848-2.424-7.92-5.736-7.92zm0 2.904c1.632 0 2.688 1.752 2.688 5.016 0 3.312-1.056 5.088-2.688 5.088-1.608 0-2.688-1.776-2.688-5.088 0-3.264 1.08-5.016 2.688-5.016zm9.384-4.464v22.296h3.168v-22.296h-3.168zm-4.584 8.016v2.568h5.928v-2.568h-5.928zm15.622 3.288v6.24h3.168v-6.24h-3.168zm8.064 0v6.24h3.192v-6.24h-3.192zm-12.48 5.784v2.592h20.112v-2.592h-20.112zm10.032-15.984c-4.8 0-8.304 2.352-8.304 5.976s3.504 5.952 8.304 5.952c4.776 0 8.304-2.328 8.304-5.952s-3.528-5.976-8.304-5.976zm0 2.496c3.096 0 5.16 1.272 5.16 3.48 0 2.184-2.064 3.48-5.16 3.48s-5.16-1.296-5.16-3.48c0-2.208 2.064-3.48 5.16-3.48zm16.183-.55l-.387 11.847h-2.812l-.399-11.847h3.598zm-3.692 15.515c0-.5.172-.914.516-1.242.352-.336.813-.504 1.383-.504.578 0 1.039.168 1.383.504.343.328.515.742.515 1.242 0 .485-.172.895-.515 1.231-.344.336-.805.504-1.383.504-.57 0-1.031-.168-1.383-.504a1.655 1.655 0 01-.516-1.231z"/>
    <rect width="140" height="60" x="183" y="821" fill="#C4C4C4" rx="30"/>
    <path fill="#fff" d="M248.817 841.916v16.722h2.412v-16.722h-2.412zm1.872 6.174v1.962h2.952v-1.962h-2.952zm-11.88 4.554v1.98h1.404c2.898 0 5.184-.072 7.704-.522l-.234-1.98c-2.448.432-4.662.522-7.47.522h-1.404zm0-9.18v10.134h2.376v-8.208h5.4v-1.926h-7.776zm23.453-1.224c-3.672 0-6.03 1.242-6.03 3.258s2.358 3.24 6.03 3.24 6.03-1.224 6.03-3.24-2.358-3.258-6.03-3.258zm0 1.854c2.268 0 3.564.45 3.564 1.404 0 .936-1.296 1.404-3.564 1.404-2.286 0-3.564-.468-3.564-1.404 0-.954 1.278-1.404 3.564-1.404zm-5.796 8.64v5.688h11.52v-5.688h-11.52zm9.18 1.89v1.908h-6.822v-1.908h6.822zm-10.926-4.932v1.89h15.066v-1.89H254.72z"/>
    <circle cx="253" cy="160" r="50" fill="#F1F1F1"/>
    <rect width="388" height="74" x="60" y="387" fill="#F1F1F1" rx="20"/>
    <rect width="41" height="17" x="397" y="416" fill="#C4C4C4" rx="8.5"/>
    <g filter="url(#filter1_d_1124_4721)">
      <circle cx="430" cy="424" r="11" fill="#fff"/>
      <circle cx="430" cy="424" r="10.95" stroke="#C5C5C5" stroke-width=".1"/>
    </g>
    <rect width="388" height="74" x="60" y="481" fill="#F1F1F1" rx="20"/>
    <rect width="41" height="17" x="397" y="510" fill="#C4C4C4" rx="8.5"/>
    <g filter="url(#filter2_d_1124_4721)">
      <circle cx="430" cy="518" r="11" fill="#fff"/>
      <circle cx="430" cy="518" r="10.95" stroke="#C5C5C5" stroke-width=".1"/>
    </g>
    <g>
      <rect width="388" height="74" x="60" y="669" fill="#F1F1F1" rx="20"/>
      <rect width="41" height="17" x="397" y="698" fill="#C4C4C4" rx="8.5"/>
      <g filter="url(#filter3_d_1124_4721)">
        <circle cx="430" cy="706" r="11" fill="#fff"/>
        <circle cx="430" cy="706" r="10.95" stroke="#C5C5C5" stroke-width=".1"/>
      </g>
    </g>
    <g>
      <rect width="388" height="74" x="60" y="575" fill="#F1F1F1" rx="20"/>
      <rect width="41" height="17" x="397" y="604" fill="#C4C4C4" rx="8.5"/>
      <g filter="url(#filter4_d_1124_4721)">
        <circle cx="430" cy="612" r="11" fill="#fff"/>
        <circle cx="430" cy="612" r="10.95" stroke="#C5C5C5" stroke-width=".1"/>
      </g>
    </g>
    <g>
      <rect width="72" height="26" x="219" y="331" fill="#F7F7F7" rx="10"/>
    </g>
  </g>
  <defs>
    <filter id="filter0_d_1124_4721" width="508" height="1006" x="0" y="0" color-interpolation-filters="sRGB" filterUnits="userSpaceOnUse">
      <feFlood flood-opacity="0" result="BackgroundImageFix"/>
      <feColorMatrix in="SourceAlpha" result="hardAlpha" values="0 0 0 0 0 0 0 0 0 0 0 0 0 0 0 0 0 0 127 0"/>
      <feOffset dy="10"/>
      <feGaussianBlur stdDeviation="20"/>
      <feComposite in2="hardAlpha" operator="out"/>
      <feColorMatrix values="0 0 0 0 0 0 0 0 0 0 0 0 0 0 0 0 0 0 0.1 0"/>
      <feBlend in2="BackgroundImageFix" result="effect1_dropShadow_1124_4721"/>
      <feBlend in="SourceGraphic" in2="effect1_dropShadow_1124_4721" result="shape"/>
    </filter>
    <filter id="filter1_d_1124_4721" width="26" height="26" x="416" y="412" color-interpolation-filters="sRGB" filterUnits="userSpaceOnUse">
      <feFlood flood-opacity="0" result="BackgroundImageFix"/>
      <feColorMatrix in="SourceAlpha" result="hardAlpha" values="0 0 0 0 0 0 0 0 0 0 0 0 0 0 0 0 0 0 127 0"/>
      <feOffset dx="-1" dy="1"/>
      <feGaussianBlur stdDeviation="1"/>
      <feComposite in2="hardAlpha" operator="out"/>
      <feColorMatrix values="0 0 0 0 0 0 0 0 0 0 0 0 0 0 0 0 0 0 0.25 0"/>
      <feBlend in2="BackgroundImageFix" result="effect1_dropShadow_1124_4721"/>
      <feBlend in="SourceGraphic" in2="effect1_dropShadow_1124_4721" result="shape"/>
    </filter>
    <filter id="filter2_d_1124_4721" width="26" height="26" x="416" y="506" color-interpolation-filters="sRGB" filterUnits="userSpaceOnUse">
      <feFlood flood-opacity="0" result="BackgroundImageFix"/>
      <feColorMatrix in="SourceAlpha" result="hardAlpha" values="0 0 0 0 0 0 0 0 0 0 0 0 0 0 0 0 0 0 127 0"/>
      <feOffset dx="-1" dy="1"/>
      <feGaussianBlur stdDeviation="1"/>
      <feComposite in2="hardAlpha" operator="out"/>
      <feColorMatrix values="0 0 0 0 0 0 0 0 0 0 0 0 0 0 0 0 0 0 0.25 0"/>
      <feBlend in2="BackgroundImageFix" result="effect1_dropShadow_1124_4721"/>
      <feBlend in="SourceGraphic" in2="effect1_dropShadow_1124_4721" result="shape"/>
    </filter>
    <filter id="filter3_d_1124_4721" width="26" height="26" x="416" y="694" color-interpolation-filters="sRGB" filterUnits="userSpaceOnUse">
      <feFlood flood-opacity="0" result="BackgroundImageFix"/>
      <feColorMatrix in="SourceAlpha" result="hardAlpha" values="0 0 0 0 0 0 0 0 0 0 0 0 0 0 0 0 0 0 127 0"/>
      <feOffset dx="-1" dy="1"/>
      <feGaussianBlur stdDeviation="1"/>
      <feComposite in2="hardAlpha" operator="out"/>
      <feColorMatrix values="0 0 0 0 0 0 0 0 0 0 0 0 0 0 0 0 0 0 0.25 0"/>
      <feBlend in2="BackgroundImageFix" result="effect1_dropShadow_1124_4721"/>
      <feBlend in="SourceGraphic" in2="effect1_dropShadow_1124_4721" result="shape"/>
    </filter>
    <filter id="filter4_d_1124_4721" width="26" height="26" x="416" y="600" color-interpolation-filters="sRGB" filterUnits="userSpaceOnUse">
      <feFlood flood-opacity="0" result="BackgroundImageFix"/>
      <feColorMatrix in="SourceAlpha" result="hardAlpha" values="0 0 0 0 0 0 0 0 0 0 0 0 0 0 0 0 0 0 127 0"/>
      <feOffset dx="-1" dy="1"/>
      <feGaussianBlur stdDeviation="1"/>
      <feComposite in2="hardAlpha" operator="out"/>
      <feColorMatrix values="0 0 0 0 0 0 0 0 0 0 0 0 0 0 0 0 0 0 0.25 0"/>
      <feBlend in2="BackgroundImageFix" result="effect1_dropShadow_1124_4721"/>
      <feBlend in="SourceGraphic" in2="effect1_dropShadow_1124_4721" result="shape"/>
    </filter>
  </defs>
</svg>
