<svg xmlns="http://www.w3.org/2000/svg" width="508" height="1006" fill="none" viewBox="0 0 508 1006">
  <g filter="url(#filter0_d_1124_4724)">
    <g clip-path="url(#clip0_1124_4724)">
      <rect width="428" height="926" x="30" y="40" fill="#fff" rx="40"/>
      <path fill="#646464" d="M57.36 214.712h4.768V213h-6.88v9.872h1.264c2.56 0 4.576-.08 6.8-.48l-.208-1.744c-1.904.32-3.648.432-5.744.464v-6.4zm11.008 2.368h-2.144v-5.44h-2.112v14.768h2.112v-7.584h2.144v-1.744zm11.135-5.456v14.784h2.112v-14.784h-2.112zm-5.808 1.04c-2.224 0-3.872 2.016-3.872 5.248 0 3.248 1.648 5.28 3.872 5.28s3.872-2.032 3.872-5.28c0-3.232-1.648-5.248-3.872-5.248zm0 1.904c1.088 0 1.84 1.168 1.84 3.344 0 2.192-.752 3.36-1.84 3.36s-1.84-1.168-1.84-3.36c0-2.176.752-3.344 1.84-3.344zm14.463 6.704c-1.073 0-1.793-1.168-1.793-3.36 0-2.176.72-3.344 1.793-3.344 1.088 0 1.808 1.168 1.808 3.344 0 2.192-.72 3.36-1.808 3.36zm6.224-9.648v5.312h-2.465c-.288-2.656-1.776-4.272-3.76-4.272-2.191 0-3.807 2.016-3.807 5.248 0 3.248 1.616 5.28 3.808 5.28 2.047 0 3.552-1.728 3.775-4.544h2.448v7.76h2.112v-14.784h-2.111zm16.382 7.616h-8.208v-1.648h7.76v-1.632h-7.76v-1.552h8.096v-1.696h-10.24v8.192h10.352v-1.664zm-11.92 3.728v1.712h13.344v-1.712H98.844zm19.455-10.352c-2.304 0-4.048 1.52-4.048 3.632 0 2.128 1.744 3.632 4.048 3.632 2.304 0 4.064-1.504 4.064-3.632 0-2.112-1.76-3.632-4.064-3.632zm0 1.808c1.136 0 2 .672 2 1.824 0 1.152-.864 1.824-2 1.824-1.136 0-2-.672-2-1.824 0-1.152.864-1.824 2-1.824zm5.44-2.8v14.784h2.112v-14.784h-2.112zm-9.84 11.792c2.544 0 6-.032 9.168-.672l-.128-1.52c-3.104.464-6.72.48-9.312.48l.272 1.712zm26.319-7.872v1.712h2.256v4.4h2.112V211.64h-2.112v3.904h-2.256zm.848 3.008c-2.368-.624-3.392-2.176-3.392-3.712v-.048h2.912v-1.664h-2.912v-1.536h-2.112v1.536h-2.88v1.664h2.88v.048c0 1.68-1.024 3.376-3.392 4.064l.992 1.648c1.712-.496 2.864-1.552 3.504-2.896.672 1.168 1.808 2.08 3.44 2.528l.96-1.632zm-.32 2.288h-2.16v.208c0 1.44-1.584 3.184-4.672 3.632l.784 1.648c2.368-.336 4.064-1.424 4.944-2.832.88 1.424 2.576 2.496 4.976 2.832l.768-1.648c-3.136-.432-4.64-2.096-4.64-3.632v-.208zm20.431-1.84h2.112v-7.376h-2.112v3.136h-2.576v1.68h2.576V219zm-9.184-6.816v1.68h4.176c-.272 1.744-1.808 3.152-5.024 3.872l.704 1.648c4.32-1.024 6.592-3.36 6.592-7.2h-6.448zm3.712 12.384v-.928h7.584v-4.08h-9.712v1.664h7.6v.848h-7.584v4.16h10v-1.664h-7.888zm16.639-12.64c-3.248 0-5.328 1.088-5.328 2.864 0 1.792 2.08 2.864 5.328 2.864s5.344-1.072 5.344-2.864c0-1.776-2.096-2.864-5.344-2.864zm0 1.616c2.016 0 3.168.416 3.168 1.248 0 .832-1.152 1.248-3.168 1.248-2 0-3.152-.416-3.152-1.248 0-.832 1.152-1.248 3.152-1.248zm-5.104 7.664v4.992h10.176v-4.992H167.24zm8.096 1.648v1.696h-6.032v-1.696h6.032zm-9.648-4.352v1.664H179v-1.664h-13.312z"/>
      <path fill="#B1B1B1" d="M60.251 241.075h2.679v-2.014h-2.679v-2.356h-2.375v2.356H55.14v2.014h2.736v.361c0 2.698-.893 5.567-3.382 7.03l1.406 1.881c1.577-.912 2.603-2.47 3.192-4.294.627 1.672 1.634 3.059 3.173 3.876l1.349-1.862c-2.47-1.311-3.363-3.99-3.363-6.631v-.361zm3.667 1.672h-1.995v2.033h1.995v8.056h2.337V236.42h-2.337v6.327zm3.534-6.631v17.499h2.375v-17.499h-2.375zm6.364 7.277c3.305-.285 5.453-1.52 6.383-3.173.931 1.653 3.079 2.888 6.365 3.173l.875-1.938c-3.268-.285-4.978-1.425-5.415-2.603h4.654v-1.995H73.74v1.995h4.636c-.438 1.178-2.148 2.318-5.397 2.603l.837 1.938zm9.88 7.087c0 .874-1.197 1.254-3.534 1.254-2.338 0-3.535-.38-3.535-1.254 0-.893 1.198-1.273 3.535-1.273s3.533.38 3.533 1.273zm4.407-4.408v-1.995H72.296v1.995h6.65v1.273c-3.04.247-4.846 1.33-4.846 3.135 0 2.014 2.28 3.173 6.062 3.173 3.78 0 6.08-1.159 6.08-3.173 0-1.786-1.787-2.869-4.788-3.116v-1.292h6.65zm7.372-8.132v1.995h5.832c-.361 3.876-2.299 6.612-6.764 8.759l1.311 1.976c6.213-3.002 8.018-7.372 8.018-12.73h-8.397zm11.076-1.824v17.499h2.527v-17.499h-2.527zm7.181 14.345h9.766v3.116h2.508v-5.092h-12.274v1.976zm7.429-4.959v-1.254h5.092v-1.9h-9.823v-1.14h9.462v-4.731h-11.97v1.9h9.5v1.064h-9.462v4.807h4.693v1.254h-6.669v1.995h15.846v-1.995h-6.669zm13.356 2.508c-1.178 0-2.052-.798-2.052-2.128s.874-2.147 2.052-2.147 2.033.817 2.033 2.128c0 1.349-.855 2.147-2.033 2.147zm0-6.308c-2.546 0-4.446 1.729-4.446 4.161 0 2.47 1.9 4.199 4.446 4.199 2.527 0 4.408-1.729 4.408-4.199 0-2.432-1.881-4.161-4.408-4.161zm1.235-5.263h-2.508v2.28h-3.876v1.995h10.184v-1.995h-3.8v-2.28zm9.956 6.536H143.2v-6.84h-2.508v17.499h2.508v-8.588h2.508v-2.071zm2.202-5.035v1.995h5.833c-.361 3.876-2.299 6.612-6.764 8.759l1.311 1.976c6.213-3.002 8.018-7.372 8.018-12.73h-8.398zm11.077-1.824v17.499h2.527v-17.499h-2.527z"/>
      <path fill="#CBCBCB" d="M60.168 124.913V127h-9.24v-1.781l4.37-4.685c.438-.489.785-.919 1.038-1.29.254-.377.437-.714.548-1.011a2.39 2.39 0 00.176-.863c0-.408-.068-.758-.204-1.048a1.522 1.522 0 00-.603-.687c-.26-.161-.581-.241-.965-.241-.408 0-.76.099-1.057.297-.291.198-.514.473-.669.826a3.054 3.054 0 00-.222 1.196h-2.681c0-.804.191-1.54.575-2.208a4.22 4.22 0 011.623-1.605c.7-.402 1.528-.603 2.487-.603.946 0 1.744.155 2.393.464.656.303 1.15.742 1.485 1.318.34.569.51 1.249.51 2.041 0 .445-.071.881-.213 1.308-.143.42-.347.841-.613 1.261-.26.415-.575.835-.946 1.262-.371.427-.782.869-1.234 1.327l-2.347 2.635h5.789zm10.762-5.854v2.337c0 1.015-.109 1.89-.325 2.626-.217.73-.529 1.33-.937 1.8a3.7 3.7 0 01-1.438 1.03 4.968 4.968 0 01-1.856.334 5.416 5.416 0 01-1.521-.205 3.821 3.821 0 01-1.271-.658 4.18 4.18 0 01-.965-1.123c-.266-.457-.47-1.002-.612-1.633-.142-.63-.214-1.354-.214-2.171v-2.337c0-1.015.109-1.884.325-2.607.223-.73.535-1.327.937-1.791.408-.464.89-.804 1.448-1.02a4.948 4.948 0 011.855-.334c.544 0 1.048.071 1.512.213.47.136.894.349 1.271.64.377.291.7.665.965 1.123.266.451.47.992.612 1.623.143.625.214 1.342.214 2.153zm-2.681 2.69v-3.052c0-.489-.028-.916-.084-1.28a3.75 3.75 0 00-.232-.928 1.959 1.959 0 00-.39-.631 1.428 1.428 0 00-.528-.353 1.868 1.868 0 00-.659-.111c-.303 0-.572.059-.807.176a1.503 1.503 0 00-.585.566c-.16.254-.284.594-.37 1.021-.081.42-.121.934-.121 1.54v3.052c0 .489.024.918.074 1.29.056.371.136.689.241.955.111.26.241.473.39.64.154.161.33.279.529.353.204.074.426.111.668.111.296 0 .56-.059.788-.176.235-.124.433-.316.594-.575.167-.266.29-.613.37-1.039.081-.427.122-.947.122-1.559zm13.74 3.164V127h-9.241v-1.781l4.37-4.685c.439-.489.785-.919 1.039-1.29.253-.377.436-.714.547-1.011a2.39 2.39 0 00.176-.863c0-.408-.068-.758-.204-1.048a1.522 1.522 0 00-.603-.687c-.26-.161-.581-.241-.965-.241-.408 0-.76.099-1.057.297-.29.198-.514.473-.668.826a3.054 3.054 0 00-.223 1.196H72.48c0-.804.192-1.54.575-2.208a4.22 4.22 0 011.624-1.605c.699-.402 1.527-.603 2.486-.603.946 0 1.744.155 2.394.464.655.303 1.15.742 1.484 1.318.34.569.51 1.249.51 2.041 0 .445-.07.881-.213 1.308-.142.42-.346.841-.612 1.261-.26.415-.576.835-.947 1.262-.37.427-.782.869-1.234 1.327l-2.347 2.635h5.79zm10.91 0V127h-9.24v-1.781l4.369-4.685c.439-.489.785-.919 1.039-1.29.254-.377.436-.714.547-1.011a2.39 2.39 0 00.176-.863c0-.408-.068-.758-.204-1.048a1.522 1.522 0 00-.603-.687c-.26-.161-.581-.241-.964-.241-.409 0-.761.099-1.058.297-.29.198-.513.473-.668.826a3.052 3.052 0 00-.223 1.196h-2.68c0-.804.19-1.54.574-2.208a4.22 4.22 0 011.624-1.605c.699-.402 1.528-.603 2.486-.603.947 0 1.744.155 2.394.464.655.303 1.15.742 1.484 1.318.34.569.51 1.249.51 2.041 0 .445-.07.881-.213 1.308-.142.42-.346.841-.612 1.261-.26.415-.576.835-.947 1.262-.37.427-.782.869-1.233 1.327l-2.348 2.635h5.79zm13.681-.915h2.508v-12.863h-2.508v1.938h-4.237v1.976h4.237v1.292h-4.237v1.976h4.237v5.681zm-2.489-4.845c-2.147.38-4.085.513-6.194.551v-7.467h-2.49v9.519h1.407c2.622 0 4.94-.095 7.524-.57l-.247-2.033zm-4.028 7.182v-3.477h-2.508v5.472h11.932v-1.995h-9.424zm23.228-12.871V127h-2.672v-10.456l-3.21 1.021v-2.106l5.594-1.995h.288zm13.407 5.765v1.52h3.097v.513h2.508v-10.127h-2.508v8.094h-3.097zm-3.553-6.194c1.254 0 2.033.323 2.033.988 0 .646-.779.969-2.033.969s-2.052-.323-2.052-.969c0-.665.798-.988 2.052-.988zm0 3.572c2.603 0 4.37-1.007 4.37-2.584 0-1.615-1.767-2.622-4.37-2.622-2.622 0-4.37 1.007-4.37 2.622 0 1.577 1.748 2.584 4.37 2.584zm-1.33 4.674h2.508v-2.394a52.982 52.982 0 004.598-.418l-.152-1.558c-3.667.399-7.828.399-11.172.399l.247 1.71c1.235 0 2.584 0 3.971-.019v2.28zm.76 5.51v-.893h9.728v-4.104h-12.217v1.691h9.747v.836h-9.728v4.18h12.597v-1.71h-10.127zM154.657 123.154a.42.42 0 00.343.18.412.412 0 00.342-.18l3.75-5.417a.41.41 0 00.027-.43.416.416 0 00-.369-.224h-7.5a.425.425 0 00-.368.224.406.406 0 00-.047.219.408.408 0 00.072.211l3.75 5.417z"/>
      <g clip-path="url(#clip1_1124_4724)">
        <path fill="#fff" d="M23 894h428v72H23z"/>
        <path stroke="#EDEDED" stroke-width=".5" d="M23 893.75h428"/>
      </g>
      <circle cx="244.5" cy="906.5" r="39.5" fill="#C4C4C4"/>
      <path fill="#C4C4C4" d="M71 913h31v31H71v-31zM152 913h31v31h-31v-31zM307 913h31v31h-31v-31zM390 913h31v31h-31v-31z"/>
      <rect width="383" height="408" x="50.5" y="474.5" stroke="#C4C4C4" rx="29.5"/>
      <rect width="185" height="174" x="49" y="277" fill="#F0F0F0" rx="30"/>
      <rect width="185" height="174" x="250" y="277" fill="#F0F0F0" rx="30"/>
    </g>
  </g>
  <defs>
    <clipPath id="clip0_1124_4724">
      <rect width="428" height="926" x="30" y="40" fill="#fff" rx="40"/>
    </clipPath>
    <clipPath id="clip1_1124_4724">
      <path fill="#fff" d="M0 0h428v103H0z" transform="translate(30 863)"/>
    </clipPath>
    <filter id="filter0_d_1124_4724" width="508" height="1006" x="0" y="0" color-interpolation-filters="sRGB" filterUnits="userSpaceOnUse">
      <feFlood flood-opacity="0" result="BackgroundImageFix"/>
      <feColorMatrix in="SourceAlpha" result="hardAlpha" values="0 0 0 0 0 0 0 0 0 0 0 0 0 0 0 0 0 0 127 0"/>
      <feOffset dx="10"/>
      <feGaussianBlur stdDeviation="20"/>
      <feComposite in2="hardAlpha" operator="out"/>
      <feColorMatrix values="0 0 0 0 0 0 0 0 0 0 0 0 0 0 0 0 0 0 0.1 0"/>
      <feBlend in2="BackgroundImageFix" result="effect1_dropShadow_1124_4724"/>
      <feBlend in="SourceGraphic" in2="effect1_dropShadow_1124_4724" result="shape"/>
    </filter>
  </defs>
</svg>
